{"glyphs":{"0":{"ha":1056,"x_min":38,"x_max":1018,"o":"m 528 -24 q 144 119 251 -24 q 38 489 38 263 q 144 857 38 717 q 528 997 251 997 q 911 857 804 997 q 1018 489 1018 717 q 911 119 1018 263 q 528 -24 804 -24 m 528 21 q 682 60 619 21 q 780 203 744 100 q 815 489 815 306 q 780 769 815 671 q 683 901 744 867 q 528 935 621 935 q 373 901 435 935 q 276 769 311 867 q 240 489 240 671 q 276 203 240 306 q 374 60 311 100 q 528 21 436 21 z "},"1":{"ha":408,"x_min":26,"x_max":361,"o":"m 361 0 l 157 0 l 157 865 l 26 783 l 26 833 l 258 975 l 361 975 l 361 0 z "},"2":{"ha":919,"x_min":38,"x_max":882,"o":"m 38 71 q 120 325 38 224 q 315 483 203 426 q 594 599 428 540 q 739 653 688 632 q 823 703 790 675 q 856 765 856 731 q 686 867 856 867 q 449 836 592 867 q 265 786 371 824 q 163 755 204 765 q 86 744 122 744 l 86 958 q 179 949 131 949 q 346 967 238 949 q 576 989 479 989 q 753 952 685 989 q 852 859 822 915 q 882 742 882 803 q 818 563 882 638 q 663 439 754 488 q 426 332 571 390 q 243 250 310 283 q 132 172 176 217 q 88 68 88 126 l 88 43 l 258 43 q 447 69 360 43 q 651 144 535 96 q 776 192 729 178 q 863 206 824 207 l 863 1 q 688 25 806 25 q 548 19 625 25 q 454 13 471 14 q 258 1 310 1 l 38 0 l 38 71 z "},"3":{"ha":869,"x_min":38,"x_max":832,"o":"m 447 -19 q 322 -10 385 -19 q 249 0 260 -1 q 117 15 160 15 q 38 0 69 15 l 38 204 q 125 183 83 204 q 229 119 167 163 q 356 44 303 69 q 474 18 408 18 q 620 69 567 18 q 674 194 674 119 q 638 315 674 254 q 528 431 603 376 q 340 521 453 486 l 622 804 l 103 804 l 103 975 l 785 975 l 785 907 l 531 643 q 757 510 682 597 q 832 321 832 422 q 781 156 832 235 q 642 29 731 78 q 447 -19 554 -19 z "},"4":{"ha":911,"x_min":38,"x_max":874,"o":"m 774 0 l 571 0 l 571 263 l 38 263 l 38 343 l 678 975 l 774 975 l 774 351 l 874 351 l 874 263 l 774 263 l 774 0 m 571 818 l 97 351 l 571 351 l 571 818 z "},"5":{"ha":919,"x_min":38,"x_max":882,"o":"m 465 -18 q 344 -11 399 -18 q 214 8 290 -4 q 103 24 132 24 q 44 10 65 24 l 38 10 l 38 215 l 44 215 q 115 197 83 215 q 193 140 146 179 q 276 78 239 103 q 367 37 313 54 q 492 19 421 19 q 617 49 561 19 q 704 129 672 78 q 736 246 736 181 q 691 371 736 310 q 554 472 646 432 q 332 511 463 511 q 169 496 264 511 l 85 483 l 164 975 l 871 975 l 874 728 l 861 728 q 825 797 861 775 q 715 818 789 818 l 183 818 l 138 599 q 323 651 247 636 q 472 667 399 667 q 688 626 594 667 q 831 515 781 585 q 882 363 882 446 q 825 152 882 238 q 674 24 768 67 q 465 -18 579 -18 z "},"6":{"ha":1031,"x_min":38,"x_max":993,"o":"m 542 -31 q 271 33 385 -31 q 97 210 157 96 q 38 475 38 325 q 119 767 38 649 q 333 942 200 885 q 625 999 467 999 q 829 975 726 999 l 829 829 q 517 951 653 951 q 315 838 390 951 q 240 481 240 724 q 283 231 240 338 q 396 69 326 125 q 543 14 465 14 q 661 49 606 14 q 753 169 717 85 q 789 389 789 253 q 755 573 789 500 q 670 678 721 646 q 571 711 619 711 q 498 691 522 711 q 465 640 474 671 q 449 553 456 610 q 421 420 439 474 q 354 325 403 367 l 289 499 q 340 534 319 508 q 390 607 361 560 q 444 688 419 657 q 508 740 468 718 q 606 761 547 761 q 801 722 714 761 q 941 600 889 682 q 993 397 993 518 q 926 159 993 256 q 755 16 858 63 q 542 -31 651 -31 z "},"7":{"ha":797,"x_min":38,"x_max":761,"o":"m 175 0 q 318 521 175 314 q 682 842 461 728 l 246 842 q 128 808 168 842 q 65 703 88 774 l 38 703 l 38 975 l 761 975 l 761 835 q 593 720 679 811 q 445 449 507 629 q 383 0 383 269 l 175 0 z "},"8":{"ha":989,"x_min":38,"x_max":951,"o":"m 501 -24 q 156 47 275 -24 q 38 260 38 117 q 142 447 38 386 q 390 525 247 507 q 181 582 257 525 q 106 749 106 639 q 199 929 106 861 q 501 997 292 997 q 807 928 708 997 q 906 749 906 860 q 860 628 906 679 q 746 551 814 578 q 613 525 678 525 q 852 447 753 508 q 951 260 951 386 q 839 46 951 115 q 501 -24 726 -24 m 501 544 q 651 608 601 544 q 700 757 700 671 q 661 892 700 829 q 501 956 622 956 q 361 921 406 956 q 308 847 317 886 q 299 757 299 807 q 349 608 299 671 q 501 544 399 544 m 501 18 q 657 63 603 18 q 729 162 711 108 q 747 253 747 215 q 731 375 747 322 q 660 464 714 428 q 501 500 606 500 q 331 464 389 500 q 257 376 274 428 q 240 253 240 324 q 258 161 240 214 q 335 63 276 108 q 501 18 393 18 z "},"9":{"ha":1031,"x_min":38,"x_max":993,"o":"m 186 139 q 337 72 261 96 q 479 49 413 49 q 704 154 619 49 q 789 485 789 260 q 746 734 789 628 q 633 896 703 840 q 488 951 564 951 q 369 916 425 951 q 277 797 314 881 q 240 576 240 713 q 275 392 240 465 q 360 287 310 319 q 460 254 411 254 q 534 275 508 254 q 569 328 560 296 q 585 417 578 360 q 612 543 594 493 q 676 631 629 593 l 739 471 q 688 433 708 460 q 639 360 667 407 q 587 278 611 310 q 523 226 563 247 q 425 204 483 204 q 229 244 317 204 q 90 365 142 283 q 38 568 38 447 q 105 806 38 710 q 276 949 172 903 q 489 996 379 996 q 759 933 646 996 q 933 755 872 869 q 993 490 993 640 q 800 81 993 206 q 306 -44 607 -44 q 186 -40 246 -44 l 186 139 z "}," ":{"ha":371,"x_min":0,"x_max":0,"o":""},"A":{"ha":882,"x_min":-37,"x_max":907,"o":"m -37 0 l 340 975 l 492 975 l 907 0 l 693 0 q 688 204 693 115 q 660 407 682 293 l 310 407 l 156 0 l -37 0 m 653 449 q 622 560 644 501 l 489 876 l 326 449 l 653 449 z "},"Á":{"ha":882,"x_min":-37,"x_max":907,"o":"m -37 0 l 340 975 l 492 975 l 907 0 l 693 0 q 688 204 693 115 q 660 407 682 293 l 310 407 l 156 0 l -37 0 m 653 449 q 622 560 644 501 l 489 876 l 326 449 l 653 449 m 189 1097 q 224 1147 201 1122 q 283 1203 247 1171 q 360 1282 335 1250 q 388 1350 386 1314 l 551 1350 q 526 1272 551 1304 q 463 1218 500 1239 q 365 1169 426 1197 q 274 1126 308 1146 q 221 1081 239 1107 l 189 1097 z "},"Ă":{"ha":882,"x_min":-37,"x_max":907,"o":"m -37 0 l 340 975 l 492 975 l 907 0 l 693 0 q 688 204 693 115 q 660 407 682 293 l 310 407 l 156 0 l -37 0 m 653 449 q 622 560 644 501 l 489 876 l 326 449 l 653 449 m 440 1117 q 315 1152 364 1117 q 242 1238 265 1188 q 214 1336 218 1288 l 253 1336 q 440 1240 294 1240 q 628 1336 585 1240 l 665 1336 q 638 1238 661 1288 q 565 1152 614 1188 q 440 1117 515 1117 z "},"Â":{"ha":882,"x_min":-37,"x_max":907,"o":"m -37 0 l 340 975 l 492 975 l 907 0 l 693 0 q 688 204 693 115 q 660 407 682 293 l 310 407 l 156 0 l -37 0 m 653 449 q 622 560 644 501 l 489 876 l 326 449 l 653 449 m 536 1097 q 519 1165 536 1129 q 471 1251 503 1201 q 439 1306 449 1288 l 407 1250 q 360 1161 375 1194 q 344 1097 344 1128 l 183 1097 q 211 1160 183 1133 q 294 1221 239 1188 q 381 1284 351 1257 q 418 1350 411 1311 l 460 1350 q 497 1284 467 1311 q 586 1221 528 1257 q 670 1160 642 1186 q 699 1097 699 1133 l 536 1097 z "},"Ä":{"ha":882,"x_min":-37,"x_max":907,"o":"m -37 0 l 340 975 l 492 975 l 907 0 l 693 0 q 688 204 693 115 q 660 407 682 293 l 310 407 l 156 0 l -37 0 m 653 449 q 622 560 644 501 l 489 876 l 326 449 l 653 449 m 346 1147 q 298 1167 318 1147 q 278 1214 278 1186 q 298 1263 278 1243 q 346 1282 318 1282 q 393 1263 374 1282 q 413 1214 413 1243 q 393 1167 413 1186 q 346 1147 374 1147 m 536 1147 q 488 1167 508 1147 q 468 1214 468 1186 q 488 1263 468 1243 q 536 1282 508 1282 q 583 1263 564 1282 q 603 1214 603 1243 q 583 1167 603 1186 q 536 1147 564 1147 z "},"À":{"ha":882,"x_min":-37,"x_max":907,"o":"m -37 0 l 340 975 l 492 975 l 907 0 l 693 0 q 688 204 693 115 q 660 407 682 293 l 310 407 l 156 0 l -37 0 m 653 449 q 622 560 644 501 l 489 876 l 326 449 l 653 449 m 594 1081 q 542 1126 576 1107 q 450 1169 507 1146 q 352 1218 389 1197 q 290 1272 315 1239 q 264 1350 264 1304 l 428 1350 q 455 1282 429 1314 q 532 1203 481 1250 q 591 1147 568 1171 q 626 1097 614 1122 l 594 1081 z "},"Ā":{"ha":882,"x_min":-37,"x_max":907,"o":"m -37 0 l 340 975 l 492 975 l 907 0 l 693 0 q 688 204 693 115 q 660 407 682 293 l 310 407 l 156 0 l -37 0 m 653 449 q 622 560 644 501 l 489 876 l 326 449 l 653 449 m 672 1175 l 211 1175 l 211 1217 l 672 1217 l 672 1175 z "},"Ą":{"ha":882,"x_min":-37,"x_max":907,"o":"m 794 -1 q 675 -50 714 -10 q 636 -146 636 -90 q 660 -212 636 -187 q 721 -236 685 -236 q 788 -214 756 -236 l 794 -278 q 643 -333 722 -333 q 533 -294 578 -333 q 489 -185 489 -254 q 542 -61 489 -117 q 693 10 594 -6 q 687 206 693 117 q 660 407 681 296 l 310 407 l 156 0 l -37 0 l 340 975 l 492 975 l 907 0 l 794 0 l 794 -1 m 326 449 l 653 449 q 622 560 644 501 l 489 876 l 326 449 z "},"Å":{"ha":882,"x_min":-37,"x_max":907,"o":"m -37 0 l 340 975 l 492 975 l 907 0 l 693 0 q 688 204 693 115 q 660 407 682 293 l 310 407 l 156 0 l -37 0 m 653 449 q 622 560 644 501 l 489 876 l 326 449 l 653 449 m 438 1088 q 348 1124 385 1088 q 311 1214 311 1161 q 348 1303 311 1267 q 438 1340 385 1340 q 527 1303 490 1340 q 564 1214 564 1267 q 527 1124 564 1161 q 438 1088 490 1088 m 438 1158 q 477 1174 461 1158 q 493 1214 493 1190 q 477 1253 493 1238 q 438 1269 461 1269 q 398 1253 414 1269 q 382 1214 382 1238 q 398 1174 382 1190 q 438 1158 414 1158 z "},"Ã":{"ha":882,"x_min":-37,"x_max":907,"o":"m -37 0 l 340 975 l 492 975 l 907 0 l 693 0 q 688 204 693 115 q 660 407 682 293 l 310 407 l 156 0 l -37 0 m 653 449 q 622 560 644 501 l 489 876 l 326 449 l 653 449 m 567 1143 q 497 1155 535 1143 q 401 1189 458 1167 q 323 1217 353 1208 q 272 1226 293 1226 q 222 1172 222 1226 l 201 1172 q 238 1285 201 1246 q 318 1324 274 1324 q 390 1311 350 1324 q 485 1275 429 1299 q 524 1260 493 1272 q 578 1242 556 1249 q 615 1236 600 1236 q 645 1247 635 1236 q 656 1285 656 1258 l 678 1285 q 645 1178 678 1213 q 567 1143 613 1143 z "},"Æ":{"ha":1325,"x_min":-37,"x_max":1294,"o":"m 1294 210 l 1294 0 q 1101 29 1214 29 q 972 22 1040 29 q 890 14 903 15 q 822 7 872 13 q 732 0 772 1 l 528 0 l 528 397 l 331 397 l 165 0 l -37 0 l 374 975 l 732 975 q 968 965 796 975 q 1050 961 996 964 q 1139 958 1104 958 q 1274 975 1228 958 l 1274 764 l 1267 764 q 1197 778 1229 764 q 1110 826 1164 793 q 1017 880 1056 860 q 921 915 978 900 q 793 932 864 931 l 732 933 l 732 569 l 921 569 q 1041 588 993 569 q 1111 667 1089 606 l 1125 667 l 1125 426 l 1111 426 q 1042 510 1089 492 q 921 528 994 528 l 732 528 l 732 42 q 896 70 825 46 q 1060 139 967 94 q 1183 192 1133 175 q 1288 210 1232 210 l 1294 210 m 528 871 l 347 439 l 528 439 l 528 871 z "},"B":{"ha":879,"x_min":39,"x_max":849,"o":"m 39 0 l 39 975 l 492 975 q 656 941 590 975 q 752 851 721 907 q 783 732 783 796 q 740 589 783 654 q 626 506 697 524 l 626 499 q 790 425 732 489 q 849 265 849 361 q 813 140 849 201 q 703 40 776 79 q 524 0 629 0 l 39 0 m 401 519 q 508 549 464 519 q 575 627 553 579 q 597 729 597 675 q 547 873 597 813 q 403 933 496 933 l 243 933 l 243 519 l 401 519 m 408 42 q 536 74 482 42 q 617 157 590 106 q 644 265 644 208 q 585 419 644 360 q 426 478 525 478 l 243 478 l 243 42 l 408 42 z "},"C":{"ha":922,"x_min":32,"x_max":894,"o":"m 518 -24 q 283 37 394 -24 q 101 215 171 97 q 32 497 32 333 q 101 772 32 660 q 288 941 171 885 q 549 997 406 997 q 628 992 592 997 q 721 975 664 986 q 824 960 790 960 q 894 975 863 960 l 894 729 q 818 756 849 729 q 750 835 788 782 q 672 924 708 893 q 575 954 635 954 q 395 895 474 954 q 274 732 317 836 q 235 496 232 628 q 282 226 239 332 q 391 72 325 119 q 531 24 457 24 q 631 58 585 24 q 742 161 678 93 q 815 234 788 210 q 872 268 843 258 l 878 51 q 803 40 838 49 q 725 15 769 31 q 622 -14 667 -4 q 518 -24 578 -24 z "},"Ć":{"ha":922,"x_min":32,"x_max":894,"o":"m 518 -24 q 283 37 394 -24 q 101 215 171 97 q 32 497 32 333 q 101 772 32 660 q 288 941 171 885 q 549 997 406 997 q 628 992 592 997 q 721 975 664 986 q 824 960 790 960 q 894 975 863 960 l 894 729 q 818 756 849 729 q 750 835 788 782 q 672 924 708 893 q 575 954 635 954 q 395 895 474 954 q 274 732 317 836 q 235 496 232 628 q 282 226 239 332 q 391 72 325 119 q 531 24 457 24 q 631 58 585 24 q 742 161 678 93 q 815 234 788 210 q 872 268 843 258 l 878 51 q 803 40 838 49 q 725 15 769 31 q 622 -14 667 -4 q 518 -24 578 -24 m 210 1097 q 245 1147 222 1122 q 304 1203 268 1171 q 381 1282 356 1250 q 408 1350 407 1314 l 572 1350 q 547 1272 572 1304 q 484 1218 521 1239 q 386 1169 447 1197 q 294 1126 329 1146 q 242 1081 260 1107 l 210 1097 z "},"Č":{"ha":922,"x_min":32,"x_max":894,"o":"m 518 -24 q 283 37 394 -24 q 101 215 171 97 q 32 497 32 333 q 101 772 32 660 q 288 941 171 885 q 549 997 406 997 q 628 992 592 997 q 721 975 664 986 q 824 960 790 960 q 894 975 863 960 l 894 729 q 818 756 849 729 q 750 835 788 782 q 672 924 708 893 q 575 954 635 954 q 395 895 474 954 q 274 732 317 836 q 235 496 232 628 q 282 226 239 332 q 391 72 325 119 q 531 24 457 24 q 631 58 585 24 q 742 161 678 93 q 815 234 788 210 q 872 268 843 258 l 878 51 q 803 40 838 49 q 725 15 769 31 q 622 -14 667 -4 q 518 -24 578 -24 m 719 1350 q 691 1288 719 1314 q 607 1226 663 1261 q 518 1163 549 1190 q 481 1097 488 1136 l 439 1097 q 402 1163 432 1136 q 315 1226 372 1190 q 232 1287 260 1260 q 204 1350 204 1314 l 365 1350 q 381 1286 365 1319 q 428 1197 396 1253 l 460 1142 q 492 1196 469 1160 q 540 1282 524 1246 q 557 1350 557 1318 l 719 1350 z "},"Ç":{"ha":922,"x_min":32,"x_max":894,"o":"m 575 954 q 395 895 474 954 q 274 732 317 836 q 235 496 232 628 q 282 226 239 332 q 391 72 325 119 q 531 24 457 24 q 631 58 585 24 q 742 161 678 93 q 815 234 788 210 q 872 268 843 258 l 878 51 q 803 40 838 49 q 725 15 769 31 q 622 -14 667 -4 q 518 -24 578 -24 q 457 -19 489 -24 l 442 -71 l 494 -71 q 582 -98 553 -71 q 611 -168 611 -125 q 528 -306 611 -268 q 286 -354 444 -344 l 286 -333 q 510 -183 510 -306 q 492 -125 510 -147 q 442 -103 474 -103 l 386 -103 l 413 -12 q 222 76 308 11 q 84 249 136 142 q 32 497 32 357 q 101 772 32 660 q 288 941 171 885 q 549 997 406 997 q 628 992 592 997 q 721 975 664 986 q 824 960 790 960 q 894 975 863 960 l 894 729 q 818 756 849 729 q 750 835 788 782 q 672 924 708 893 q 575 954 635 954 z "},"Ċ":{"ha":922,"x_min":32,"x_max":894,"o":"m 518 -24 q 283 37 394 -24 q 101 215 171 97 q 32 497 32 333 q 101 772 32 660 q 288 941 171 885 q 549 997 406 997 q 628 992 592 997 q 721 975 664 986 q 824 960 790 960 q 894 975 863 960 l 894 729 q 818 756 849 729 q 750 835 788 782 q 672 924 708 893 q 575 954 635 954 q 395 895 474 954 q 274 732 317 836 q 235 496 232 628 q 282 226 239 332 q 391 72 325 119 q 531 24 457 24 q 631 58 585 24 q 742 161 678 93 q 815 234 788 210 q 872 268 843 258 l 878 51 q 803 40 838 49 q 725 15 769 31 q 622 -14 667 -4 q 518 -24 578 -24 m 463 1147 q 388 1178 418 1147 q 358 1251 358 1208 q 388 1326 358 1296 q 463 1356 418 1356 q 536 1326 506 1356 q 567 1251 567 1296 q 536 1178 567 1208 q 463 1147 506 1147 z "},"D":{"ha":928,"x_min":39,"x_max":896,"o":"m 39 0 l 39 975 l 461 975 q 779 856 663 975 q 896 506 896 738 q 829 221 896 335 q 660 53 763 107 q 447 0 558 0 l 39 0 m 256 42 q 578 138 464 38 q 692 506 692 239 q 640 772 692 678 q 496 900 589 865 q 258 932 403 935 l 243 951 l 243 15 l 256 42 z "},"Ð":{"ha":928,"x_min":-31,"x_max":896,"o":"m 461 975 q 779 856 663 975 q 896 506 896 738 q 829 221 896 335 q 660 53 763 107 q 447 0 558 0 l 39 0 l 39 465 l -31 465 l -31 507 l 39 507 l 39 975 l 461 975 m 256 42 q 578 138 464 38 q 692 506 692 239 q 640 772 692 678 q 496 900 589 865 q 258 932 403 935 l 243 951 l 243 507 l 315 507 l 315 465 l 243 465 l 243 15 l 256 42 z "},"Ď":{"ha":928,"x_min":39,"x_max":896,"o":"m 39 0 l 39 975 l 461 975 q 779 856 663 975 q 896 506 896 738 q 829 221 896 335 q 660 53 763 107 q 447 0 558 0 l 39 0 m 256 42 q 578 138 464 38 q 692 506 692 239 q 640 772 692 678 q 496 900 589 865 q 258 932 403 935 l 243 951 l 243 15 l 256 42 m 722 1350 q 694 1288 722 1314 q 610 1226 665 1261 q 521 1163 551 1190 q 483 1097 490 1136 l 442 1097 q 405 1163 435 1136 q 318 1226 375 1190 q 235 1287 263 1260 q 207 1350 207 1314 l 368 1350 q 383 1286 368 1319 q 431 1197 399 1253 l 463 1142 q 494 1196 472 1160 q 543 1282 526 1246 q 560 1350 560 1318 l 722 1350 z "},"Đ":{"ha":928,"x_min":-31,"x_max":896,"o":"m 461 975 q 779 856 663 975 q 896 506 896 738 q 829 221 896 335 q 660 53 763 107 q 447 0 558 0 l 39 0 l 39 465 l -31 465 l -31 507 l 39 507 l 39 975 l 461 975 m 256 42 q 578 138 464 38 q 692 506 692 239 q 640 772 692 678 q 496 900 589 865 q 258 932 403 935 l 243 951 l 243 507 l 315 507 l 315 465 l 243 465 l 243 15 l 256 42 z "},"E":{"ha":836,"x_min":39,"x_max":806,"o":"m 39 0 l 39 975 l 243 975 q 479 965 307 975 q 561 961 507 964 q 650 958 615 958 q 785 975 739 958 l 785 764 l 778 764 q 708 778 740 764 q 621 826 675 793 q 473 902 540 875 q 304 932 406 929 l 243 933 l 243 569 l 432 569 q 552 588 504 569 q 622 667 600 606 l 636 667 l 636 426 l 622 426 q 553 510 600 492 q 432 528 506 528 l 243 528 l 243 42 q 406 70 335 46 q 569 140 478 94 q 681 190 636 174 q 769 207 725 207 l 806 206 l 806 0 q 619 26 728 26 q 410 13 549 26 q 243 0 292 1 l 39 0 z "},"É":{"ha":836,"x_min":39,"x_max":806,"o":"m 39 0 l 39 975 l 243 975 q 479 965 307 975 q 561 961 507 964 q 650 958 615 958 q 785 975 739 958 l 785 764 l 778 764 q 708 778 740 764 q 621 826 675 793 q 473 902 540 875 q 304 932 406 929 l 243 933 l 243 569 l 432 569 q 552 588 504 569 q 622 667 600 606 l 636 667 l 636 426 l 622 426 q 553 510 600 492 q 432 528 506 528 l 243 528 l 243 42 q 406 70 335 46 q 569 140 478 94 q 681 190 636 174 q 769 207 725 207 l 806 206 l 806 0 q 619 26 728 26 q 410 13 549 26 q 243 0 292 1 l 39 0 m 167 1097 q 202 1147 179 1122 q 261 1203 225 1171 q 338 1282 313 1250 q 365 1350 364 1314 l 529 1350 q 503 1272 529 1304 q 441 1218 478 1239 q 343 1169 404 1197 q 251 1126 286 1146 q 199 1081 217 1107 l 167 1097 z "},"Ě":{"ha":836,"x_min":39,"x_max":806,"o":"m 39 0 l 39 975 l 243 975 q 479 965 307 975 q 561 961 507 964 q 650 958 615 958 q 785 975 739 958 l 785 764 l 778 764 q 708 778 740 764 q 621 826 675 793 q 473 902 540 875 q 304 932 406 929 l 243 933 l 243 569 l 432 569 q 552 588 504 569 q 622 667 600 606 l 636 667 l 636 426 l 622 426 q 553 510 600 492 q 432 528 506 528 l 243 528 l 243 42 q 406 70 335 46 q 569 140 478 94 q 681 190 636 174 q 769 207 725 207 l 806 206 l 806 0 q 619 26 728 26 q 410 13 549 26 q 243 0 292 1 l 39 0 m 676 1350 q 648 1288 676 1314 q 564 1226 619 1261 q 475 1163 506 1190 q 438 1097 444 1136 l 396 1097 q 359 1163 389 1136 q 272 1226 329 1190 q 189 1287 217 1260 q 161 1350 161 1314 l 322 1350 q 338 1286 322 1319 q 385 1197 353 1253 l 417 1142 q 449 1196 426 1160 q 497 1282 481 1246 q 514 1350 514 1318 l 676 1350 z "},"Ê":{"ha":836,"x_min":39,"x_max":806,"o":"m 39 0 l 39 975 l 243 975 q 479 965 307 975 q 561 961 507 964 q 650 958 615 958 q 785 975 739 958 l 785 764 l 778 764 q 708 778 740 764 q 621 826 675 793 q 473 902 540 875 q 304 932 406 929 l 243 933 l 243 569 l 432 569 q 552 588 504 569 q 622 667 600 606 l 636 667 l 636 426 l 622 426 q 553 510 600 492 q 432 528 506 528 l 243 528 l 243 42 q 406 70 335 46 q 569 140 478 94 q 681 190 636 174 q 769 207 725 207 l 806 206 l 806 0 q 619 26 728 26 q 410 13 549 26 q 243 0 292 1 l 39 0 m 514 1097 q 497 1165 514 1129 q 449 1251 481 1201 q 417 1306 426 1288 l 385 1250 q 338 1161 353 1194 q 322 1097 322 1128 l 161 1097 q 189 1160 161 1133 q 272 1221 217 1188 q 359 1284 329 1257 q 396 1350 389 1311 l 438 1350 q 475 1284 444 1311 q 564 1221 506 1257 q 648 1160 619 1186 q 676 1097 676 1133 l 514 1097 z "},"Ë":{"ha":836,"x_min":39,"x_max":806,"o":"m 39 0 l 39 975 l 243 975 q 479 965 307 975 q 561 961 507 964 q 650 958 615 958 q 785 975 739 958 l 785 764 l 778 764 q 708 778 740 764 q 621 826 675 793 q 473 902 540 875 q 304 932 406 929 l 243 933 l 243 569 l 432 569 q 552 588 504 569 q 622 667 600 606 l 636 667 l 636 426 l 622 426 q 553 510 600 492 q 432 528 506 528 l 243 528 l 243 42 q 406 70 335 46 q 569 140 478 94 q 681 190 636 174 q 769 207 725 207 l 806 206 l 806 0 q 619 26 728 26 q 410 13 549 26 q 243 0 292 1 l 39 0 m 324 1147 q 276 1167 296 1147 q 256 1214 256 1186 q 276 1263 256 1243 q 324 1282 296 1282 q 371 1263 351 1282 q 390 1214 390 1243 q 371 1167 390 1186 q 324 1147 351 1147 m 514 1147 q 466 1167 486 1147 q 446 1214 446 1186 q 466 1263 446 1243 q 514 1282 486 1282 q 561 1263 542 1282 q 581 1214 581 1243 q 561 1167 581 1186 q 514 1147 542 1147 z "},"Ė":{"ha":836,"x_min":39,"x_max":806,"o":"m 39 0 l 39 975 l 243 975 q 479 965 307 975 q 561 961 507 964 q 650 958 615 958 q 785 975 739 958 l 785 764 l 778 764 q 708 778 740 764 q 621 826 675 793 q 473 902 540 875 q 304 932 406 929 l 243 933 l 243 569 l 432 569 q 552 588 504 569 q 622 667 600 606 l 636 667 l 636 426 l 622 426 q 553 510 600 492 q 432 528 506 528 l 243 528 l 243 42 q 406 70 335 46 q 569 140 478 94 q 681 190 636 174 q 769 207 725 207 l 806 206 l 806 0 q 619 26 728 26 q 410 13 549 26 q 243 0 292 1 l 39 0 m 418 1147 q 344 1178 374 1147 q 314 1251 314 1208 q 344 1326 314 1296 q 418 1356 374 1356 q 492 1326 461 1356 q 522 1251 522 1296 q 492 1178 522 1208 q 418 1147 461 1147 z "},"È":{"ha":836,"x_min":39,"x_max":806,"o":"m 39 0 l 39 975 l 243 975 q 479 965 307 975 q 561 961 507 964 q 650 958 615 958 q 785 975 739 958 l 785 764 l 778 764 q 708 778 740 764 q 621 826 675 793 q 473 902 540 875 q 304 932 406 929 l 243 933 l 243 569 l 432 569 q 552 588 504 569 q 622 667 600 606 l 636 667 l 636 426 l 622 426 q 553 510 600 492 q 432 528 506 528 l 243 528 l 243 42 q 406 70 335 46 q 569 140 478 94 q 681 190 636 174 q 769 207 725 207 l 806 206 l 806 0 q 619 26 728 26 q 410 13 549 26 q 243 0 292 1 l 39 0 m 572 1081 q 519 1126 554 1107 q 428 1169 485 1146 q 330 1218 367 1197 q 267 1272 293 1239 q 242 1350 242 1304 l 406 1350 q 433 1282 407 1314 q 510 1203 458 1250 q 569 1147 546 1171 q 604 1097 592 1122 l 572 1081 z "},"Ē":{"ha":836,"x_min":39,"x_max":806,"o":"m 39 0 l 39 975 l 243 975 q 479 965 307 975 q 561 961 507 964 q 650 958 615 958 q 785 975 739 958 l 785 764 l 778 764 q 708 778 740 764 q 621 826 675 793 q 473 902 540 875 q 304 932 406 929 l 243 933 l 243 569 l 432 569 q 552 588 504 569 q 622 667 600 606 l 636 667 l 636 426 l 622 426 q 553 510 600 492 q 432 528 506 528 l 243 528 l 243 42 q 406 70 335 46 q 569 140 478 94 q 681 190 636 174 q 769 207 725 207 l 806 206 l 806 0 q 619 26 728 26 q 410 13 549 26 q 243 0 292 1 l 39 0 m 650 1175 l 189 1175 l 189 1217 l 650 1217 l 650 1175 z "},"Ę":{"ha":836,"x_min":39,"x_max":806,"o":"m 806 0 q 796 3 800 3 l 796 0 q 676 -49 715 -8 q 638 -144 638 -89 q 662 -210 638 -186 q 722 -235 686 -235 q 789 -212 757 -235 l 796 -276 q 644 -332 724 -332 q 535 -292 579 -332 q 490 -183 490 -253 q 519 -90 490 -135 q 607 -15 549 -44 q 749 15 665 14 q 618 26 693 26 q 410 13 549 26 q 243 0 292 1 l 39 0 l 39 975 l 243 975 q 479 965 307 975 q 561 961 507 964 q 650 958 615 958 q 785 975 739 958 l 785 764 l 778 764 q 708 778 740 764 q 621 826 675 793 q 473 902 540 875 q 304 932 406 929 l 243 933 l 243 569 l 432 569 q 552 588 504 569 q 622 667 600 606 l 636 667 l 636 426 l 622 426 q 553 510 600 492 q 432 528 506 528 l 243 528 l 243 42 q 406 70 335 46 q 569 140 478 94 q 681 190 636 174 q 769 207 725 207 l 806 206 l 806 0 z "},"F":{"ha":779,"x_min":39,"x_max":749,"o":"m 39 0 l 39 975 l 243 975 q 465 963 322 975 q 604 954 565 954 q 749 975 682 954 l 749 761 l 742 761 q 684 774 714 761 q 603 817 654 788 q 431 900 511 869 q 243 933 351 931 l 243 569 l 321 569 q 534 590 458 569 q 619 663 610 611 l 633 663 l 633 431 l 619 431 q 538 509 610 490 q 321 528 467 528 l 243 528 l 243 0 l 39 0 z "},"G":{"ha":1014,"x_min":32,"x_max":968,"o":"m 518 -24 q 285 30 396 -24 q 103 198 174 83 q 32 486 32 313 q 90 760 32 646 q 260 936 149 875 q 526 997 371 997 q 617 991 574 997 q 724 974 661 985 q 867 956 819 956 q 967 975 926 956 l 967 719 q 872 746 914 718 q 775 831 831 774 q 668 924 714 893 q 558 956 622 956 q 390 890 463 956 q 276 716 317 825 q 236 481 236 607 q 281 245 236 346 q 404 90 325 144 q 583 36 483 36 q 680 46 636 36 q 776 72 724 56 l 776 313 q 760 415 776 374 q 704 481 744 457 l 704 510 l 968 510 l 968 32 q 865 28 913 35 q 754 7 818 22 q 637 -16 689 -8 q 518 -24 585 -24 z "},"Ğ":{"ha":1014,"x_min":32,"x_max":968,"o":"m 518 -24 q 285 30 396 -24 q 103 198 174 83 q 32 486 32 313 q 90 760 32 646 q 260 936 149 875 q 526 997 371 997 q 617 991 574 997 q 724 974 661 985 q 867 956 819 956 q 967 975 926 956 l 967 719 q 872 746 914 718 q 775 831 831 774 q 668 924 714 893 q 558 956 622 956 q 390 890 463 956 q 276 716 317 825 q 236 481 236 607 q 281 245 236 346 q 404 90 325 144 q 583 36 483 36 q 680 46 636 36 q 776 72 724 56 l 776 313 q 760 415 776 374 q 704 481 744 457 l 704 510 l 968 510 l 968 32 q 865 28 913 35 q 754 7 818 22 q 637 -16 689 -8 q 518 -24 585 -24 m 507 1117 q 381 1152 431 1117 q 308 1238 332 1188 q 281 1336 285 1288 l 319 1336 q 507 1240 361 1240 q 694 1336 651 1240 l 732 1336 q 704 1238 728 1288 q 631 1152 681 1188 q 507 1117 582 1117 z "},"Ģ":{"ha":1014,"x_min":32,"x_max":968,"o":"m 518 -24 q 285 30 396 -24 q 103 198 174 83 q 32 486 32 313 q 90 760 32 646 q 260 936 149 875 q 526 997 371 997 q 617 991 574 997 q 724 974 661 985 q 867 956 819 956 q 967 975 926 956 l 967 719 q 872 746 914 718 q 775 831 831 774 q 668 924 714 893 q 558 956 622 956 q 390 890 463 956 q 276 716 317 825 q 236 481 236 607 q 281 245 236 346 q 404 90 325 144 q 583 36 483 36 q 680 46 636 36 q 776 72 724 56 l 776 313 q 760 415 776 374 q 704 481 744 457 l 704 510 l 968 510 l 968 32 q 865 28 913 35 q 754 7 818 22 q 637 -16 689 -8 q 518 -24 585 -24 m 357 -433 q 432 -282 432 -362 q 413 -187 432 -243 q 405 -160 411 -182 q 399 -121 399 -139 l 603 -121 q 538 -312 603 -225 q 365 -443 474 -399 l 357 -433 z "},"Ġ":{"ha":1014,"x_min":32,"x_max":968,"o":"m 518 -24 q 285 30 396 -24 q 103 198 174 83 q 32 486 32 313 q 90 760 32 646 q 260 936 149 875 q 526 997 371 997 q 617 991 574 997 q 724 974 661 985 q 867 956 819 956 q 967 975 926 956 l 967 719 q 872 746 914 718 q 775 831 831 774 q 668 924 714 893 q 558 956 622 956 q 390 890 463 956 q 276 716 317 825 q 236 481 236 607 q 281 245 236 346 q 404 90 325 144 q 583 36 483 36 q 680 46 636 36 q 776 72 724 56 l 776 313 q 760 415 776 374 q 704 481 744 457 l 704 510 l 968 510 l 968 32 q 865 28 913 35 q 754 7 818 22 q 637 -16 689 -8 q 518 -24 585 -24 m 507 1147 q 433 1178 463 1147 q 403 1251 403 1208 q 433 1326 403 1296 q 507 1356 463 1356 q 581 1326 550 1356 q 611 1251 611 1296 q 581 1178 611 1208 q 507 1147 550 1147 z "},"H":{"ha":910,"x_min":39,"x_max":871,"o":"m 243 0 l 39 0 l 39 975 l 243 975 l 243 560 l 667 560 l 667 975 l 871 975 l 871 0 l 667 0 l 667 521 l 243 521 l 243 0 z "},"Ħ":{"ha":910,"x_min":39,"x_max":871,"o":"m 667 786 l 667 975 l 871 975 l 871 0 l 667 0 l 667 521 l 243 521 l 243 0 l 39 0 l 39 975 l 243 975 l 243 786 l 667 786 m 243 744 l 243 560 l 667 560 l 667 744 l 243 744 z "},"I":{"ha":282,"x_min":39,"x_max":243,"o":"m 243 0 l 39 0 l 39 975 l 243 975 l 243 0 z "},"Í":{"ha":282,"x_min":-111,"x_max":251,"o":"m 243 0 l 39 0 l 39 975 l 243 975 l 243 0 m -111 1097 q -76 1147 -99 1122 q -17 1203 -53 1171 q 60 1282 35 1250 q 88 1350 86 1314 l 251 1350 q 226 1272 251 1304 q 163 1218 200 1239 q 65 1169 126 1197 q -26 1126 8 1146 q -79 1081 -61 1107 l -111 1097 z "},"Î":{"ha":282,"x_min":-117,"x_max":399,"o":"m 243 0 l 39 0 l 39 975 l 243 975 l 243 0 m 236 1097 q 219 1165 236 1129 q 171 1251 203 1201 q 139 1306 149 1288 l 107 1250 q 60 1161 75 1194 q 44 1097 44 1128 l -117 1097 q -89 1160 -117 1133 q -6 1221 -61 1188 q 81 1284 51 1257 q 118 1350 111 1311 l 160 1350 q 197 1284 167 1311 q 286 1221 228 1257 q 370 1160 342 1186 q 399 1097 399 1133 l 236 1097 z "},"Ï":{"ha":282,"x_min":-22,"x_max":303,"o":"m 243 0 l 39 0 l 39 975 l 243 975 l 243 0 m 46 1147 q -2 1167 18 1147 q -22 1214 -22 1186 q -2 1263 -22 1243 q 46 1282 18 1282 q 93 1263 74 1282 q 113 1214 113 1243 q 93 1167 113 1186 q 46 1147 74 1147 m 236 1147 q 188 1167 208 1147 q 168 1214 168 1186 q 188 1263 168 1243 q 236 1282 208 1282 q 283 1263 264 1282 q 303 1214 303 1243 q 283 1167 303 1186 q 236 1147 264 1147 z "},"İ":{"ha":282,"x_min":38,"x_max":246,"o":"m 243 0 l 39 0 l 39 975 l 243 975 l 243 0 m 142 1147 q 67 1178 97 1147 q 38 1251 38 1208 q 67 1326 38 1296 q 142 1356 97 1356 q 215 1326 185 1356 q 246 1251 246 1296 q 215 1178 246 1208 q 142 1147 185 1147 z "},"Ì":{"ha":282,"x_min":-36,"x_max":326,"o":"m 243 0 l 39 0 l 39 975 l 243 975 l 243 0 m 294 1081 q 242 1126 276 1107 q 150 1169 207 1146 q 52 1218 89 1197 q -10 1272 15 1239 q -36 1350 -36 1304 l 128 1350 q 155 1282 129 1314 q 232 1203 181 1250 q 291 1147 268 1171 q 326 1097 314 1122 l 294 1081 z "},"Ī":{"ha":282,"x_min":-89,"x_max":372,"o":"m 243 0 l 39 0 l 39 975 l 243 975 l 243 0 m 372 1175 l -89 1175 l -89 1217 l 372 1217 l 372 1175 z "},"Į":{"ha":282,"x_min":-51,"x_max":254,"o":"m 254 -1 q 135 -50 174 -10 q 96 -146 96 -90 q 120 -212 96 -187 q 181 -236 144 -236 q 247 -214 215 -236 l 254 -278 q 103 -333 182 -333 q -7 -294 38 -333 q -51 -185 -51 -254 q -10 -74 -51 -126 q 108 0 31 -22 l 39 0 l 39 975 l 243 975 l 243 14 l 254 14 l 254 -1 z "},"J":{"ha":729,"x_min":-17,"x_max":685,"o":"m 325 -24 q 167 -7 264 -24 q 47 7 83 7 q -17 0 18 7 l -17 192 l -10 192 q 76 168 38 192 q 167 99 115 144 q 251 35 217 56 q 325 14 285 14 q 438 81 396 14 q 481 254 481 147 l 481 975 l 685 975 l 685 299 q 633 113 685 185 q 501 8 582 40 q 325 -24 419 -24 z "},"K":{"ha":876,"x_min":39,"x_max":929,"o":"m 39 0 l 39 975 l 243 975 l 243 351 l 564 693 q 613 773 599 731 q 635 875 626 815 q 645 936 640 915 q 660 975 650 957 l 879 975 l 539 615 l 639 615 l 929 0 l 725 0 l 469 543 l 243 306 l 243 0 l 39 0 z "},"Ķ":{"ha":876,"x_min":39,"x_max":929,"o":"m 39 0 l 39 975 l 243 975 l 243 351 l 564 693 q 613 773 599 731 q 635 875 626 815 q 645 936 640 915 q 660 975 650 957 l 879 975 l 539 615 l 639 615 l 929 0 l 725 0 l 469 543 l 243 306 l 243 0 l 39 0 m 289 -433 q 364 -282 364 -362 q 344 -187 364 -243 q 337 -160 343 -182 q 331 -121 331 -139 l 535 -121 q 470 -312 535 -225 q 297 -443 406 -399 l 289 -433 z "},"L":{"ha":736,"x_min":39,"x_max":719,"o":"m 39 0 l 39 975 l 243 975 l 243 42 l 322 42 q 462 69 404 42 q 589 146 519 96 q 662 193 633 178 q 719 208 690 208 l 719 0 l 39 0 z "},"Ĺ":{"ha":736,"x_min":39,"x_max":719,"o":"m 39 0 l 39 975 l 243 975 l 243 42 l 322 42 q 462 69 404 42 q 589 146 519 96 q 662 193 633 178 q 719 208 690 208 l 719 0 l 39 0 m 117 1097 q 152 1147 129 1122 q 211 1203 175 1171 q 288 1282 263 1250 q 315 1350 314 1314 l 479 1350 q 453 1272 479 1304 q 391 1218 428 1239 q 293 1169 354 1197 q 201 1126 236 1146 q 149 1081 167 1107 l 117 1097 z "},"Ľ":{"ha":889,"x_min":39,"x_max":861,"o":"m 39 0 l 39 975 l 243 975 l 243 42 l 322 42 q 462 69 404 42 q 589 146 519 96 q 662 193 633 178 q 719 208 690 208 l 719 0 l 39 0 m 635 663 q 708 814 708 736 q 690 908 708 849 q 683 935 689 914 q 676 975 676 957 l 861 975 q 804 783 861 868 q 642 653 747 697 l 635 663 z "},"Ļ":{"ha":736,"x_min":39,"x_max":719,"o":"m 39 0 l 39 975 l 243 975 l 243 42 l 322 42 q 462 69 404 42 q 589 146 519 96 q 662 193 633 178 q 719 208 690 208 l 719 0 l 39 0 m 218 -433 q 293 -282 293 -362 q 274 -187 293 -243 q 266 -160 272 -182 q 260 -121 260 -139 l 464 -121 q 399 -312 464 -225 q 226 -443 335 -399 l 218 -433 z "},"Ł":{"ha":736,"x_min":-25,"x_max":719,"o":"m 322 42 q 462 69 404 42 q 589 146 519 96 q 662 193 633 178 q 719 208 690 208 l 719 0 l 39 0 l 39 418 l -25 394 l -25 436 l 39 460 l 39 975 l 243 975 l 243 538 l 340 575 l 340 533 l 243 496 l 243 42 l 322 42 z "},"M":{"ha":1125,"x_min":8,"x_max":1108,"o":"m 8 1 q 72 174 40 61 q 107 363 103 288 l 139 975 l 300 975 l 581 106 l 867 975 l 1011 975 l 1108 0 l 906 0 l 832 740 l 588 0 l 415 0 l 172 765 l 149 363 q 214 0 142 167 l 8 1 z "},"N":{"ha":894,"x_min":43,"x_max":915,"o":"m 43 0 q 94 274 79 136 q 110 633 110 413 l 110 894 l 61 975 l 269 975 l 806 131 l 806 315 q 777 674 806 513 q 703 975 749 835 l 915 975 q 847 351 847 756 l 847 0 l 681 0 l 151 826 l 151 568 q 180 276 151 408 q 256 0 208 143 l 43 0 z "},"Ń":{"ha":894,"x_min":43,"x_max":915,"o":"m 43 0 q 94 274 79 136 q 110 633 110 413 l 110 894 l 61 975 l 269 975 l 806 131 l 806 315 q 777 674 806 513 q 703 975 749 835 l 915 975 q 847 351 847 756 l 847 0 l 681 0 l 151 826 l 151 568 q 180 276 151 408 q 256 0 208 143 l 43 0 m 217 1097 q 252 1147 229 1122 q 311 1203 275 1171 q 388 1282 363 1250 q 415 1350 414 1314 l 579 1350 q 553 1272 579 1304 q 491 1218 528 1239 q 393 1169 454 1197 q 301 1126 336 1146 q 249 1081 267 1107 l 217 1097 z "},"Ň":{"ha":894,"x_min":43,"x_max":915,"o":"m 43 0 q 94 274 79 136 q 110 633 110 413 l 110 894 l 61 975 l 269 975 l 806 131 l 806 315 q 777 674 806 513 q 703 975 749 835 l 915 975 q 847 351 847 756 l 847 0 l 681 0 l 151 826 l 151 568 q 180 276 151 408 q 256 0 208 143 l 43 0 m 726 1350 q 698 1288 726 1314 q 614 1226 669 1261 q 525 1163 556 1190 q 488 1097 494 1136 l 446 1097 q 409 1163 439 1136 q 322 1226 379 1190 q 239 1287 267 1260 q 211 1350 211 1314 l 372 1350 q 388 1286 372 1319 q 435 1197 403 1253 l 467 1142 q 499 1196 476 1160 q 547 1282 531 1246 q 564 1350 564 1318 l 726 1350 z "},"Ņ":{"ha":894,"x_min":43,"x_max":915,"o":"m 43 0 q 94 274 79 136 q 110 633 110 413 l 110 894 l 61 975 l 269 975 l 806 131 l 806 315 q 777 674 806 513 q 703 975 749 835 l 915 975 q 847 351 847 756 l 847 0 l 681 0 l 151 826 l 151 568 q 180 276 151 408 q 256 0 208 143 l 43 0 m 318 -433 q 393 -282 393 -362 q 374 -187 393 -243 q 366 -160 372 -182 q 360 -121 360 -139 l 564 -121 q 499 -312 564 -225 q 326 -443 435 -399 l 318 -433 z "},"Ŋ":{"ha":936,"x_min":43,"x_max":915,"o":"m 915 975 q 847 351 847 756 l 847 0 q 800 -212 847 -114 q 608 -310 753 -310 l 608 -133 q 760 -103 715 -133 q 806 0 806 -72 l 681 0 l 151 826 l 151 568 q 180 276 151 408 q 256 0 208 143 l 43 0 q 94 274 79 136 q 110 633 110 413 l 110 894 l 61 975 l 269 975 l 806 131 l 806 315 q 777 674 806 513 q 703 975 749 835 l 915 975 z "},"Ñ":{"ha":894,"x_min":43,"x_max":915,"o":"m 43 0 q 94 274 79 136 q 110 633 110 413 l 110 894 l 61 975 l 269 975 l 806 131 l 806 315 q 777 674 806 513 q 703 975 749 835 l 915 975 q 847 351 847 756 l 847 0 l 681 0 l 151 826 l 151 568 q 180 276 151 408 q 256 0 208 143 l 43 0 m 593 1143 q 523 1155 561 1143 q 428 1189 485 1167 q 349 1217 379 1208 q 299 1226 319 1226 q 249 1172 249 1226 l 228 1172 q 264 1285 228 1246 q 344 1324 300 1324 q 416 1311 376 1324 q 511 1275 456 1299 q 551 1260 519 1272 q 604 1242 582 1249 q 642 1236 626 1236 q 672 1247 661 1236 q 682 1285 682 1258 l 704 1285 q 672 1178 704 1213 q 593 1143 639 1143 z "},"O":{"ha":1038,"x_min":32,"x_max":1006,"o":"m 519 -22 q 253 46 364 -22 q 88 228 143 114 q 32 482 32 343 q 86 726 32 607 q 250 921 140 844 q 519 997 360 997 q 788 921 678 997 q 951 726 897 844 q 1006 482 1006 607 q 950 228 1006 343 q 785 46 894 114 q 519 -22 675 -22 m 519 19 q 683 90 619 19 q 774 265 746 160 q 801 482 801 371 q 774 699 801 590 q 682 882 746 808 q 519 956 618 956 q 349 882 413 956 q 261 701 286 808 q 236 482 236 594 q 267 266 236 372 q 361 90 297 160 q 519 19 425 19 z "},"Ó":{"ha":1038,"x_min":32,"x_max":1006,"o":"m 519 -22 q 253 46 364 -22 q 88 228 143 114 q 32 482 32 343 q 86 726 32 607 q 250 921 140 844 q 519 997 360 997 q 788 921 678 997 q 951 726 897 844 q 1006 482 1006 607 q 950 228 1006 343 q 785 46 894 114 q 519 -22 675 -22 m 519 19 q 683 90 619 19 q 774 265 746 160 q 801 482 801 371 q 774 699 801 590 q 682 882 746 808 q 519 956 618 956 q 349 882 413 956 q 261 701 286 808 q 236 482 236 594 q 267 266 236 372 q 361 90 297 160 q 519 19 425 19 m 267 1097 q 302 1147 279 1122 q 361 1203 325 1171 q 438 1282 413 1250 q 465 1350 464 1314 l 629 1350 q 603 1272 629 1304 q 541 1218 578 1239 q 443 1169 504 1197 q 351 1126 386 1146 q 299 1081 317 1107 l 267 1097 z "},"Ô":{"ha":1038,"x_min":32,"x_max":1006,"o":"m 519 -22 q 253 46 364 -22 q 88 228 143 114 q 32 482 32 343 q 86 726 32 607 q 250 921 140 844 q 519 997 360 997 q 788 921 678 997 q 951 726 897 844 q 1006 482 1006 607 q 950 228 1006 343 q 785 46 894 114 q 519 -22 675 -22 m 519 19 q 683 90 619 19 q 774 265 746 160 q 801 482 801 371 q 774 699 801 590 q 682 882 746 808 q 519 956 618 956 q 349 882 413 956 q 261 701 286 808 q 236 482 236 594 q 267 266 236 372 q 361 90 297 160 q 519 19 425 19 m 614 1097 q 597 1165 614 1129 q 549 1251 581 1201 q 517 1306 526 1288 l 485 1250 q 438 1161 453 1194 q 422 1097 422 1128 l 261 1097 q 289 1160 261 1133 q 372 1221 317 1188 q 459 1284 429 1257 q 496 1350 489 1311 l 538 1350 q 575 1284 544 1311 q 664 1221 606 1257 q 748 1160 719 1186 q 776 1097 776 1133 l 614 1097 z "},"Ö":{"ha":1038,"x_min":32,"x_max":1006,"o":"m 519 -22 q 253 46 364 -22 q 88 228 143 114 q 32 482 32 343 q 86 726 32 607 q 250 921 140 844 q 519 997 360 997 q 788 921 678 997 q 951 726 897 844 q 1006 482 1006 607 q 950 228 1006 343 q 785 46 894 114 q 519 -22 675 -22 m 519 19 q 683 90 619 19 q 774 265 746 160 q 801 482 801 371 q 774 699 801 590 q 682 882 746 808 q 519 956 618 956 q 349 882 413 956 q 261 701 286 808 q 236 482 236 594 q 267 266 236 372 q 361 90 297 160 q 519 19 425 19 m 424 1147 q 376 1167 396 1147 q 356 1214 356 1186 q 376 1263 356 1243 q 424 1282 396 1282 q 471 1263 451 1282 q 490 1214 490 1243 q 471 1167 490 1186 q 424 1147 451 1147 m 614 1147 q 566 1167 586 1147 q 546 1214 546 1186 q 566 1263 546 1243 q 614 1282 586 1282 q 661 1263 642 1282 q 681 1214 681 1243 q 661 1167 681 1186 q 614 1147 642 1147 z "},"Ò":{"ha":1038,"x_min":32,"x_max":1006,"o":"m 519 -22 q 253 46 364 -22 q 88 228 143 114 q 32 482 32 343 q 86 726 32 607 q 250 921 140 844 q 519 997 360 997 q 788 921 678 997 q 951 726 897 844 q 1006 482 1006 607 q 950 228 1006 343 q 785 46 894 114 q 519 -22 675 -22 m 519 19 q 683 90 619 19 q 774 265 746 160 q 801 482 801 371 q 774 699 801 590 q 682 882 746 808 q 519 956 618 956 q 349 882 413 956 q 261 701 286 808 q 236 482 236 594 q 267 266 236 372 q 361 90 297 160 q 519 19 425 19 m 672 1081 q 619 1126 654 1107 q 528 1169 585 1146 q 430 1218 467 1197 q 367 1272 393 1239 q 342 1350 342 1304 l 506 1350 q 533 1282 507 1314 q 610 1203 558 1250 q 669 1147 646 1171 q 704 1097 692 1122 l 672 1081 z "},"Ő":{"ha":1038,"x_min":32,"x_max":1006,"o":"m 519 -22 q 253 46 364 -22 q 88 228 143 114 q 32 482 32 343 q 86 726 32 607 q 250 921 140 844 q 519 997 360 997 q 788 921 678 997 q 951 726 897 844 q 1006 482 1006 607 q 950 228 1006 343 q 785 46 894 114 q 519 -22 675 -22 m 519 19 q 683 90 619 19 q 774 265 746 160 q 801 482 801 371 q 774 699 801 590 q 682 882 746 808 q 519 956 618 956 q 349 882 413 956 q 261 701 286 808 q 236 482 236 594 q 267 266 236 372 q 361 90 297 160 q 519 19 425 19 m 282 1097 q 317 1147 294 1122 q 376 1203 340 1171 q 453 1282 428 1250 q 481 1350 479 1314 l 644 1350 q 619 1272 644 1304 q 556 1218 593 1239 q 458 1169 519 1197 q 367 1126 401 1146 q 314 1081 332 1107 l 282 1097 m 492 1096 q 525 1143 504 1121 q 586 1203 546 1165 q 664 1282 639 1251 q 690 1349 689 1313 l 854 1349 q 828 1271 854 1303 q 766 1218 803 1239 q 669 1171 729 1197 q 578 1126 613 1146 q 524 1079 543 1106 l 492 1096 z "},"Ō":{"ha":1038,"x_min":32,"x_max":1006,"o":"m 519 -22 q 253 46 364 -22 q 88 228 143 114 q 32 482 32 343 q 86 726 32 607 q 250 921 140 844 q 519 997 360 997 q 788 921 678 997 q 951 726 897 844 q 1006 482 1006 607 q 950 228 1006 343 q 785 46 894 114 q 519 -22 675 -22 m 519 19 q 683 90 619 19 q 774 265 746 160 q 801 482 801 371 q 774 699 801 590 q 682 882 746 808 q 519 956 618 956 q 349 882 413 956 q 261 701 286 808 q 236 482 236 594 q 267 266 236 372 q 361 90 297 160 q 519 19 425 19 m 750 1175 l 289 1175 l 289 1217 l 750 1217 l 750 1175 z "},"Ø":{"ha":1038,"x_min":32,"x_max":1006,"o":"m 694 968 q 867 853 797 931 q 972 678 938 775 q 1006 482 1006 581 q 950 228 1006 343 q 785 46 894 114 q 519 -22 675 -22 q 415 -14 464 -22 l 378 -144 l 336 -144 l 376 -6 q 121 171 210 38 q 32 482 32 304 q 86 726 32 607 q 250 921 140 844 q 519 997 360 997 q 656 981 593 997 l 696 1119 l 738 1119 l 694 968 m 236 482 q 276 236 236 356 q 394 60 317 117 l 639 919 q 519 956 585 956 q 349 882 413 956 q 261 701 286 808 q 236 482 236 594 m 519 19 q 683 90 619 19 q 774 265 746 160 q 801 482 801 371 q 769 712 801 597 q 672 892 738 826 l 431 39 q 519 19 472 19 z "},"Õ":{"ha":1038,"x_min":32,"x_max":1006,"o":"m 519 -22 q 253 46 364 -22 q 88 228 143 114 q 32 482 32 343 q 86 726 32 607 q 250 921 140 844 q 519 997 360 997 q 788 921 678 997 q 951 726 897 844 q 1006 482 1006 607 q 950 228 1006 343 q 785 46 894 114 q 519 -22 675 -22 m 519 19 q 683 90 619 19 q 774 265 746 160 q 801 482 801 371 q 774 699 801 590 q 682 882 746 808 q 519 956 618 956 q 349 882 413 956 q 261 701 286 808 q 236 482 236 594 q 267 266 236 372 q 361 90 297 160 q 519 19 425 19 m 644 1143 q 574 1155 613 1143 q 479 1189 536 1167 q 401 1217 431 1208 q 350 1226 371 1226 q 300 1172 300 1226 l 279 1172 q 315 1285 279 1246 q 396 1324 351 1324 q 467 1311 428 1324 q 563 1275 507 1299 q 602 1260 571 1272 q 656 1242 633 1249 q 693 1236 678 1236 q 723 1247 713 1236 q 733 1285 733 1258 l 756 1285 q 723 1178 756 1213 q 644 1143 690 1143 z "},"Œ":{"ha":1353,"x_min":32,"x_max":1322,"o":"m 556 0 q 261 65 379 0 q 88 238 143 129 q 32 482 32 346 q 88 717 32 604 q 262 902 144 829 q 556 975 379 975 l 760 975 q 996 965 824 975 q 1078 961 1024 964 q 1167 958 1132 958 q 1301 975 1256 958 l 1301 764 l 1294 764 q 1224 778 1257 764 q 1138 826 1192 793 q 1044 880 1083 860 q 949 915 1006 900 q 821 932 892 931 l 760 933 l 760 569 l 949 569 q 1069 588 1021 569 q 1138 667 1117 606 l 1151 667 l 1151 426 l 1138 426 q 1093 494 1122 472 q 1031 522 1064 517 q 949 528 997 528 l 760 528 l 760 42 q 927 71 854 46 q 1086 139 1000 96 q 1210 192 1160 175 q 1315 210 1260 210 l 1322 210 l 1322 0 q 1129 29 1242 29 q 1000 22 1068 29 q 917 14 932 15 q 849 7 899 13 q 760 0 799 1 l 556 0 m 556 931 q 236 482 236 907 q 267 283 236 378 q 370 123 299 189 q 556 46 442 57 l 556 931 z "},"P":{"ha":804,"x_min":39,"x_max":793,"o":"m 39 0 l 39 975 l 429 975 q 628 937 546 975 q 751 831 710 899 q 793 676 793 764 q 750 512 793 585 q 635 397 707 439 q 481 356 564 356 q 352 383 413 356 q 249 464 292 410 l 243 464 l 243 0 l 39 0 m 400 436 q 508 469 463 436 q 578 554 554 501 q 603 668 603 607 q 572 797 603 736 q 481 895 542 857 q 331 933 419 933 l 243 933 l 243 511 q 317 456 276 475 q 400 436 358 436 z "},"Þ":{"ha":817,"x_min":39,"x_max":789,"o":"m 425 808 q 697 728 606 808 q 789 501 789 649 q 747 342 789 413 q 622 230 704 271 q 425 189 540 189 l 243 189 l 243 0 l 39 0 l 39 975 l 243 975 l 243 808 l 425 808 m 361 231 q 531 303 476 228 q 585 501 585 379 q 533 702 585 638 q 361 767 482 767 l 243 767 l 243 231 l 361 231 z "},"Q":{"ha":1038,"x_min":32,"x_max":1006,"o":"m 913 -282 q 798 -260 844 -282 q 724 -209 751 -239 q 665 -131 697 -179 q 599 -49 629 -75 q 519 -22 569 -22 q 253 46 364 -22 q 88 228 143 114 q 32 482 32 343 q 86 726 32 607 q 250 921 140 844 q 519 997 360 997 q 788 921 678 997 q 951 726 897 844 q 1006 482 1006 607 q 961 253 1006 358 q 829 76 917 147 q 617 -14 742 6 q 701 -47 643 -21 q 785 -81 750 -69 q 861 -92 819 -92 q 979 -69 919 -92 l 979 -276 q 913 -282 946 -282 m 519 19 q 683 90 619 19 q 774 265 746 160 q 801 482 801 371 q 774 699 801 590 q 682 882 746 808 q 519 956 618 956 q 349 882 413 956 q 261 701 286 808 q 236 482 236 594 q 267 266 236 372 q 361 90 297 160 q 519 19 425 19 z "},"R":{"ha":856,"x_min":39,"x_max":864,"o":"m 39 0 l 39 975 l 504 975 q 674 935 604 975 q 778 831 743 894 q 814 693 814 767 q 785 569 814 628 q 701 471 757 510 q 568 425 646 432 q 599 365 572 397 q 682 276 626 332 q 812 131 765 193 q 864 0 858 68 l 628 0 q 598 97 624 47 q 526 219 572 147 q 461 332 482 292 q 435 411 440 372 l 243 411 l 243 0 l 39 0 m 406 453 q 516 488 469 453 q 587 579 563 522 q 611 699 611 636 q 588 814 611 760 q 517 901 564 868 q 400 933 469 933 l 243 933 l 243 453 l 406 453 z "},"Ŕ":{"ha":856,"x_min":39,"x_max":864,"o":"m 39 0 l 39 975 l 504 975 q 674 935 604 975 q 778 831 743 894 q 814 693 814 767 q 785 569 814 628 q 701 471 757 510 q 568 425 646 432 q 599 365 572 397 q 682 276 626 332 q 812 131 765 193 q 864 0 858 68 l 628 0 q 598 97 624 47 q 526 219 572 147 q 461 332 482 292 q 435 411 440 372 l 243 411 l 243 0 l 39 0 m 406 453 q 516 488 469 453 q 587 579 563 522 q 611 699 611 636 q 588 814 611 760 q 517 901 564 868 q 400 933 469 933 l 243 933 l 243 453 l 406 453 m 176 1097 q 212 1147 189 1122 q 271 1203 235 1171 q 348 1282 322 1250 q 375 1350 374 1314 l 539 1350 q 513 1272 539 1304 q 451 1218 488 1239 q 353 1169 414 1197 q 261 1126 296 1146 q 208 1081 226 1107 l 176 1097 z "},"Ř":{"ha":856,"x_min":39,"x_max":864,"o":"m 39 0 l 39 975 l 504 975 q 674 935 604 975 q 778 831 743 894 q 814 693 814 767 q 785 569 814 628 q 701 471 757 510 q 568 425 646 432 q 599 365 572 397 q 682 276 626 332 q 812 131 765 193 q 864 0 858 68 l 628 0 q 598 97 624 47 q 526 219 572 147 q 461 332 482 292 q 435 411 440 372 l 243 411 l 243 0 l 39 0 m 406 453 q 516 488 469 453 q 587 579 563 522 q 611 699 611 636 q 588 814 611 760 q 517 901 564 868 q 400 933 469 933 l 243 933 l 243 453 l 406 453 m 686 1350 q 658 1288 686 1314 q 574 1226 629 1261 q 485 1163 515 1190 q 447 1097 454 1136 l 406 1097 q 369 1163 399 1136 q 282 1226 339 1190 q 199 1287 226 1260 q 171 1350 171 1314 l 332 1350 q 347 1286 332 1319 q 394 1197 363 1253 l 426 1142 q 458 1196 436 1160 q 507 1282 490 1246 q 524 1350 524 1318 l 686 1350 z "},"Ŗ":{"ha":856,"x_min":39,"x_max":864,"o":"m 39 0 l 39 975 l 504 975 q 674 935 604 975 q 778 831 743 894 q 814 693 814 767 q 785 569 814 628 q 701 471 757 510 q 568 425 646 432 q 599 365 572 397 q 682 276 626 332 q 812 131 765 193 q 864 0 858 68 l 628 0 q 598 97 624 47 q 526 219 572 147 q 461 332 482 292 q 435 411 440 372 l 243 411 l 243 0 l 39 0 m 406 453 q 516 488 469 453 q 587 579 563 522 q 611 699 611 636 q 588 814 611 760 q 517 901 564 868 q 400 933 469 933 l 243 933 l 243 453 l 406 453 m 278 -433 q 353 -282 353 -362 q 333 -187 353 -243 q 326 -160 332 -182 q 319 -121 319 -139 l 524 -121 q 459 -312 524 -225 q 286 -443 394 -399 l 278 -433 z "},"S":{"ha":835,"x_min":22,"x_max":810,"o":"m 415 -24 q 213 1 329 -24 q 97 17 131 17 q 32 -1 54 17 l 32 211 l 39 211 q 120 188 83 211 q 208 117 157 164 q 314 35 269 63 q 415 8 358 8 q 528 32 481 8 q 601 95 576 56 q 626 181 626 135 q 587 289 626 240 q 489 375 547 338 q 332 465 431 413 q 168 560 229 519 q 65 653 107 600 q 22 772 22 706 q 77 895 22 844 q 219 972 132 946 q 400 997 306 997 q 498 990 456 997 q 592 969 540 982 q 685 953 651 953 q 764 975 725 953 l 764 763 l 757 763 q 694 783 724 763 q 621 846 664 804 q 515 933 563 903 q 401 964 467 964 q 278 936 332 964 q 225 849 225 908 q 257 773 225 808 q 335 708 289 738 q 468 632 382 679 q 645 527 578 572 q 761 418 713 482 q 810 275 810 354 q 753 119 810 188 q 604 14 696 51 q 415 -24 513 -24 z "},"Ś":{"ha":835,"x_min":22,"x_max":810,"o":"m 415 -24 q 213 1 329 -24 q 97 17 131 17 q 32 -1 54 17 l 32 211 l 39 211 q 120 188 83 211 q 208 117 157 164 q 314 35 269 63 q 415 8 358 8 q 528 32 481 8 q 601 95 576 56 q 626 181 626 135 q 587 289 626 240 q 489 375 547 338 q 332 465 431 413 q 168 560 229 519 q 65 653 107 600 q 22 772 22 706 q 77 895 22 844 q 219 972 132 946 q 400 997 306 997 q 498 990 456 997 q 592 969 540 982 q 685 953 651 953 q 764 975 725 953 l 764 763 l 757 763 q 694 783 724 763 q 621 846 664 804 q 515 933 563 903 q 401 964 467 964 q 278 936 332 964 q 225 849 225 908 q 257 773 225 808 q 335 708 289 738 q 468 632 382 679 q 645 527 578 572 q 761 418 713 482 q 810 275 810 354 q 753 119 810 188 q 604 14 696 51 q 415 -24 513 -24 m 165 1097 q 201 1147 178 1122 q 260 1203 224 1171 q 337 1282 311 1250 q 364 1350 363 1314 l 528 1350 q 502 1272 528 1304 q 440 1218 476 1239 q 342 1169 403 1197 q 250 1126 285 1146 q 197 1081 215 1107 l 165 1097 z "},"Š":{"ha":835,"x_min":22,"x_max":810,"o":"m 415 -24 q 213 1 329 -24 q 97 17 131 17 q 32 -1 54 17 l 32 211 l 39 211 q 120 188 83 211 q 208 117 157 164 q 314 35 269 63 q 415 8 358 8 q 528 32 481 8 q 601 95 576 56 q 626 181 626 135 q 587 289 626 240 q 489 375 547 338 q 332 465 431 413 q 168 560 229 519 q 65 653 107 600 q 22 772 22 706 q 77 895 22 844 q 219 972 132 946 q 400 997 306 997 q 498 990 456 997 q 592 969 540 982 q 685 953 651 953 q 764 975 725 953 l 764 763 l 757 763 q 694 783 724 763 q 621 846 664 804 q 515 933 563 903 q 401 964 467 964 q 278 936 332 964 q 225 849 225 908 q 257 773 225 808 q 335 708 289 738 q 468 632 382 679 q 645 527 578 572 q 761 418 713 482 q 810 275 810 354 q 753 119 810 188 q 604 14 696 51 q 415 -24 513 -24 m 675 1350 q 647 1288 675 1314 q 563 1226 618 1261 q 474 1163 504 1190 q 436 1097 443 1136 l 394 1097 q 358 1163 388 1136 q 271 1226 328 1190 q 188 1287 215 1260 q 160 1350 160 1314 l 321 1350 q 336 1286 321 1319 q 383 1197 351 1253 l 415 1142 q 447 1196 425 1160 q 496 1282 479 1246 q 513 1350 513 1318 l 675 1350 z "},"Ş":{"ha":835,"x_min":22,"x_max":810,"o":"m 411 -24 l 397 -71 l 450 -71 q 538 -98 508 -71 q 567 -168 567 -125 q 483 -306 567 -268 q 242 -354 400 -344 l 242 -333 q 465 -183 465 -306 q 447 -125 465 -147 q 397 -103 429 -103 l 342 -103 l 365 -22 q 214 0 315 -18 q 97 17 138 17 q 32 -1 54 17 l 32 211 l 39 211 q 120 188 83 211 q 208 117 157 164 q 314 35 269 63 q 415 8 358 8 q 528 32 481 8 q 601 95 576 56 q 626 181 626 135 q 587 289 626 240 q 489 375 547 338 q 332 465 431 413 q 168 560 229 519 q 65 653 107 600 q 22 772 22 706 q 77 895 22 844 q 219 972 132 946 q 400 997 306 997 q 498 990 456 997 q 592 969 540 982 q 685 953 651 953 q 764 975 725 953 l 764 763 l 757 763 q 694 783 724 763 q 621 846 664 804 q 515 933 563 903 q 401 964 467 964 q 278 936 332 964 q 225 849 225 908 q 257 773 225 808 q 335 708 289 738 q 468 632 382 679 q 645 527 578 572 q 761 418 713 482 q 810 275 810 354 q 753 119 810 188 q 604 14 696 51 q 415 -24 513 -24 l 411 -24 z "},"Ș":{"ha":835,"x_min":22,"x_max":810,"o":"m 415 -24 q 213 1 329 -24 q 97 17 131 17 q 32 -1 54 17 l 32 211 l 39 211 q 120 188 83 211 q 208 117 157 164 q 314 35 269 63 q 415 8 358 8 q 528 32 481 8 q 601 95 576 56 q 626 181 626 135 q 587 289 626 240 q 489 375 547 338 q 332 465 431 413 q 168 560 229 519 q 65 653 107 600 q 22 772 22 706 q 77 895 22 844 q 219 972 132 946 q 400 997 306 997 q 498 990 456 997 q 592 969 540 982 q 685 953 651 953 q 764 975 725 953 l 764 763 l 757 763 q 694 783 724 763 q 621 846 664 804 q 515 933 563 903 q 401 964 467 964 q 278 936 332 964 q 225 849 225 908 q 257 773 225 808 q 335 708 289 738 q 468 632 382 679 q 645 527 578 572 q 761 418 713 482 q 810 275 810 354 q 753 119 810 188 q 604 14 696 51 q 415 -24 513 -24 m 267 -433 q 342 -282 342 -362 q 322 -187 342 -243 q 315 -160 321 -182 q 308 -121 308 -139 l 513 -121 q 448 -312 513 -225 q 275 -443 383 -399 l 267 -433 z "},"ẞ":{"ha":939,"x_min":31,"x_max":929,"o":"m 639 -22 q 477 23 550 -22 q 367 158 404 68 l 396 178 q 482 77 431 113 q 585 42 533 42 q 697 88 653 42 q 740 203 740 133 q 706 326 740 261 q 601 455 671 392 q 429 568 531 518 l 660 956 l 469 956 q 368 943 417 956 q 277 876 319 931 q 235 708 235 821 l 235 3 l 31 3 l 31 656 q 77 861 31 786 q 215 967 124 936 q 453 997 307 997 l 736 997 l 569 707 q 839 497 749 619 q 929 253 929 375 q 893 111 929 174 q 791 13 857 49 q 639 -22 725 -22 z "},"T":{"ha":783,"x_min":-64,"x_max":825,"o":"m 279 0 l 279 933 l 201 933 q 114 913 146 933 q 44 851 82 892 q 0 809 19 824 q -46 794 -19 794 l -64 794 l -54 975 l 817 975 l 825 794 l 807 794 q 765 808 785 794 q 714 851 744 822 q 640 913 672 892 q 561 933 607 933 l 483 933 l 483 0 l 279 0 z "},"Ŧ":{"ha":783,"x_min":-64,"x_max":825,"o":"m 483 933 l 483 507 l 565 507 l 565 465 l 483 465 l 483 0 l 279 0 l 279 465 l 219 465 l 219 507 l 279 507 l 279 933 l 201 933 q 114 913 146 933 q 44 851 82 892 q 0 809 19 824 q -46 794 -19 794 l -64 794 l -54 975 l 817 975 l 825 794 l 807 794 q 765 808 785 794 q 714 851 744 822 q 640 913 672 892 q 561 933 607 933 l 483 933 z "},"Ť":{"ha":783,"x_min":-64,"x_max":825,"o":"m 279 0 l 279 933 l 201 933 q 114 913 146 933 q 44 851 82 892 q 0 809 19 824 q -46 794 -19 794 l -64 794 l -54 975 l 817 975 l 825 794 l 807 794 q 765 808 785 794 q 714 851 744 822 q 640 913 672 892 q 561 933 607 933 l 483 933 l 483 0 l 279 0 m 650 1350 q 622 1288 650 1314 q 538 1226 593 1261 q 449 1163 479 1190 q 411 1097 418 1136 l 369 1097 q 333 1163 363 1136 q 246 1226 303 1190 q 163 1287 190 1260 q 135 1350 135 1314 l 296 1350 q 311 1286 296 1319 q 358 1197 326 1253 l 390 1142 q 422 1196 400 1160 q 471 1282 454 1246 q 488 1350 488 1318 l 650 1350 z "},"Ţ":{"ha":783,"x_min":-64,"x_max":825,"o":"m 279 0 l 279 933 l 201 933 q 114 913 146 933 q 44 851 82 892 q 0 809 19 824 q -46 794 -19 794 l -64 794 l -54 975 l 817 975 l 825 794 l 807 794 q 765 808 785 794 q 714 851 744 822 q 640 913 672 892 q 561 933 607 933 l 483 933 l 483 0 l 279 0 m 217 -333 q 440 -183 440 -306 q 422 -125 440 -147 q 372 -103 404 -103 l 317 -103 l 347 0 l 393 0 l 372 -71 l 425 -71 q 513 -98 483 -71 q 542 -168 542 -125 q 458 -306 542 -268 q 217 -354 375 -344 l 217 -333 z "},"Ț":{"ha":783,"x_min":-64,"x_max":825,"o":"m 279 0 l 279 933 l 201 933 q 114 913 146 933 q 44 851 82 892 q 0 809 19 824 q -46 794 -19 794 l -64 794 l -54 975 l 817 975 l 825 794 l 807 794 q 765 808 785 794 q 714 851 744 822 q 640 913 672 892 q 561 933 607 933 l 483 933 l 483 0 l 279 0 m 242 -433 q 317 -282 317 -362 q 297 -187 317 -243 q 290 -160 296 -182 q 283 -121 283 -139 l 488 -121 q 423 -312 488 -225 q 250 -443 358 -399 l 242 -433 z "},"U":{"ha":921,"x_min":39,"x_max":874,"o":"m 460 -21 q 242 28 338 -21 q 93 173 147 76 q 39 410 39 269 l 39 975 l 244 975 l 244 265 q 303 82 244 143 q 460 21 363 21 q 613 82 556 21 q 669 265 669 143 l 669 975 l 874 975 l 874 410 q 821 173 874 269 q 674 28 768 76 q 460 -21 581 -21 z "},"Ú":{"ha":921,"x_min":39,"x_max":874,"o":"m 460 -21 q 242 28 338 -21 q 93 173 147 76 q 39 410 39 269 l 39 975 l 244 975 l 244 265 q 303 82 244 143 q 460 21 363 21 q 613 82 556 21 q 669 265 669 143 l 669 975 l 874 975 l 874 410 q 821 173 874 269 q 674 28 768 76 q 460 -21 581 -21 m 208 1097 q 244 1147 221 1122 q 303 1203 267 1171 q 380 1282 354 1250 q 407 1350 406 1314 l 571 1350 q 545 1272 571 1304 q 483 1218 519 1239 q 385 1169 446 1197 q 293 1126 328 1146 q 240 1081 258 1107 l 208 1097 z "},"Û":{"ha":921,"x_min":39,"x_max":874,"o":"m 460 -21 q 242 28 338 -21 q 93 173 147 76 q 39 410 39 269 l 39 975 l 244 975 l 244 265 q 303 82 244 143 q 460 21 363 21 q 613 82 556 21 q 669 265 669 143 l 669 975 l 874 975 l 874 410 q 821 173 874 269 q 674 28 768 76 q 460 -21 581 -21 m 556 1097 q 539 1165 556 1129 q 490 1251 522 1201 q 458 1306 468 1288 l 426 1250 q 379 1161 394 1194 q 364 1097 364 1128 l 203 1097 q 231 1160 203 1133 q 314 1221 258 1188 q 401 1284 371 1257 q 438 1350 431 1311 l 479 1350 q 517 1284 486 1311 q 606 1221 547 1257 q 690 1160 661 1186 q 718 1097 718 1133 l 556 1097 z "},"Ü":{"ha":921,"x_min":39,"x_max":874,"o":"m 460 -21 q 242 28 338 -21 q 93 173 147 76 q 39 410 39 269 l 39 975 l 244 975 l 244 265 q 303 82 244 143 q 460 21 363 21 q 613 82 556 21 q 669 265 669 143 l 669 975 l 874 975 l 874 410 q 821 173 874 269 q 674 28 768 76 q 460 -21 581 -21 m 365 1147 q 317 1167 338 1147 q 297 1214 297 1186 q 317 1263 297 1243 q 365 1282 338 1282 q 413 1263 393 1282 q 432 1214 432 1243 q 413 1167 432 1186 q 365 1147 393 1147 m 556 1147 q 508 1167 528 1147 q 488 1214 488 1186 q 508 1263 488 1243 q 556 1282 528 1282 q 603 1263 583 1282 q 622 1214 622 1243 q 603 1167 622 1186 q 556 1147 583 1147 z "},"Ù":{"ha":921,"x_min":39,"x_max":874,"o":"m 460 -21 q 242 28 338 -21 q 93 173 147 76 q 39 410 39 269 l 39 975 l 244 975 l 244 265 q 303 82 244 143 q 460 21 363 21 q 613 82 556 21 q 669 265 669 143 l 669 975 l 874 975 l 874 410 q 821 173 874 269 q 674 28 768 76 q 460 -21 581 -21 m 614 1081 q 561 1126 596 1107 q 469 1169 526 1146 q 372 1218 408 1197 q 309 1272 335 1239 q 283 1350 283 1304 l 447 1350 q 474 1282 449 1314 q 551 1203 500 1250 q 610 1147 588 1171 q 646 1097 633 1122 l 614 1081 z "},"Ű":{"ha":921,"x_min":39,"x_max":874,"o":"m 460 -21 q 242 28 338 -21 q 93 173 147 76 q 39 410 39 269 l 39 975 l 244 975 l 244 265 q 303 82 244 143 q 460 21 363 21 q 613 82 556 21 q 669 265 669 143 l 669 975 l 874 975 l 874 410 q 821 173 874 269 q 674 28 768 76 q 460 -21 581 -21 m 224 1097 q 259 1147 236 1122 q 318 1203 282 1171 q 395 1282 369 1250 q 422 1350 421 1314 l 586 1350 q 560 1272 586 1304 q 498 1218 535 1239 q 400 1169 461 1197 q 308 1126 343 1146 q 256 1081 274 1107 l 224 1097 m 433 1096 q 467 1143 446 1121 q 528 1203 488 1165 q 606 1282 581 1251 q 632 1349 631 1313 l 796 1349 q 770 1271 796 1303 q 708 1218 744 1239 q 611 1171 671 1197 q 519 1126 554 1146 q 465 1079 485 1106 l 433 1096 z "},"Ū":{"ha":921,"x_min":39,"x_max":874,"o":"m 460 -21 q 242 28 338 -21 q 93 173 147 76 q 39 410 39 269 l 39 975 l 244 975 l 244 265 q 303 82 244 143 q 460 21 363 21 q 613 82 556 21 q 669 265 669 143 l 669 975 l 874 975 l 874 410 q 821 173 874 269 q 674 28 768 76 q 460 -21 581 -21 m 692 1175 l 231 1175 l 231 1217 l 692 1217 l 692 1175 z "},"Ų":{"ha":921,"x_min":39,"x_max":874,"o":"m 669 975 l 874 975 l 874 410 q 778 111 874 221 q 524 -17 683 1 q 449 -69 474 -35 q 425 -149 425 -104 q 449 -215 425 -190 q 510 -239 474 -239 q 576 -217 544 -239 l 583 -281 q 432 -336 511 -336 q 322 -297 367 -336 q 278 -187 278 -257 q 309 -91 278 -137 q 399 -18 340 -44 q 137 110 235 0 q 39 410 39 219 l 39 975 l 244 975 l 244 265 q 303 82 244 143 q 460 21 363 21 q 613 82 556 21 q 669 265 669 143 l 669 975 z "},"Ů":{"ha":921,"x_min":39,"x_max":874,"o":"m 460 -21 q 242 28 338 -21 q 93 173 147 76 q 39 410 39 269 l 39 975 l 244 975 l 244 265 q 303 82 244 143 q 460 21 363 21 q 613 82 556 21 q 669 265 669 143 l 669 975 l 874 975 l 874 410 q 821 173 874 269 q 674 28 768 76 q 460 -21 581 -21 m 457 1088 q 367 1124 404 1088 q 331 1214 331 1161 q 367 1303 331 1267 q 457 1340 404 1340 q 547 1303 510 1340 q 583 1214 583 1267 q 547 1124 583 1161 q 457 1088 510 1088 m 457 1158 q 497 1174 481 1158 q 513 1214 513 1190 q 497 1253 513 1238 q 457 1269 481 1269 q 417 1253 433 1269 q 401 1214 401 1238 q 417 1174 401 1190 q 457 1158 433 1158 z "},"V":{"ha":750,"x_min":-65,"x_max":807,"o":"m 807 975 l 668 568 l 472 0 l 269 0 l -65 975 l 139 975 l 451 67 l 576 426 q 621 703 621 554 q 604 903 621 779 q 596 975 596 964 l 807 975 z "},"W":{"ha":1218,"x_min":-94,"x_max":1304,"o":"m 1304 975 l 1165 568 l 969 0 l 767 0 l 604 472 l 442 0 l 239 0 l -94 975 l 108 975 l 421 65 l 583 535 l 432 975 l 636 975 l 949 67 l 1072 426 q 1118 703 1118 558 q 1100 903 1118 792 q 1092 975 1092 964 l 1304 975 z "},"Ẃ":{"ha":1218,"x_min":-94,"x_max":1304,"o":"m 1304 975 l 1165 568 l 969 0 l 767 0 l 604 472 l 442 0 l 239 0 l -94 975 l 108 975 l 421 65 l 583 535 l 432 975 l 636 975 l 949 67 l 1072 426 q 1118 703 1118 558 q 1100 903 1118 792 q 1092 975 1092 964 l 1304 975 m 358 1097 q 394 1147 371 1122 q 453 1203 417 1171 q 530 1282 504 1250 q 557 1350 556 1314 l 721 1350 q 695 1272 721 1304 q 633 1218 669 1239 q 535 1169 596 1197 q 443 1126 478 1146 q 390 1081 408 1107 l 358 1097 z "},"Ŵ":{"ha":1218,"x_min":-94,"x_max":1304,"o":"m 1304 975 l 1165 568 l 969 0 l 767 0 l 604 472 l 442 0 l 239 0 l -94 975 l 108 975 l 421 65 l 583 535 l 432 975 l 636 975 l 949 67 l 1072 426 q 1118 703 1118 558 q 1100 903 1118 792 q 1092 975 1092 964 l 1304 975 m 706 1097 q 689 1165 706 1129 q 640 1251 672 1201 q 608 1306 618 1288 l 576 1250 q 529 1161 544 1194 q 514 1097 514 1128 l 353 1097 q 381 1160 353 1133 q 464 1221 408 1188 q 551 1284 521 1257 q 588 1350 581 1311 l 629 1350 q 667 1284 636 1311 q 756 1221 697 1257 q 840 1160 811 1186 q 868 1097 868 1133 l 706 1097 z "},"Ẅ":{"ha":1218,"x_min":-94,"x_max":1304,"o":"m 1304 975 l 1165 568 l 969 0 l 767 0 l 604 472 l 442 0 l 239 0 l -94 975 l 108 975 l 421 65 l 583 535 l 432 975 l 636 975 l 949 67 l 1072 426 q 1118 703 1118 558 q 1100 903 1118 792 q 1092 975 1092 964 l 1304 975 m 515 1147 q 467 1167 488 1147 q 447 1214 447 1186 q 467 1263 447 1243 q 515 1282 488 1282 q 563 1263 543 1282 q 582 1214 582 1243 q 563 1167 582 1186 q 515 1147 543 1147 m 706 1147 q 658 1167 678 1147 q 638 1214 638 1186 q 658 1263 638 1243 q 706 1282 678 1282 q 753 1263 733 1282 q 772 1214 772 1243 q 753 1167 772 1186 q 706 1147 733 1147 z "},"Ẁ":{"ha":1218,"x_min":-94,"x_max":1304,"o":"m 1304 975 l 1165 568 l 969 0 l 767 0 l 604 472 l 442 0 l 239 0 l -94 975 l 108 975 l 421 65 l 583 535 l 432 975 l 636 975 l 949 67 l 1072 426 q 1118 703 1118 558 q 1100 903 1118 792 q 1092 975 1092 964 l 1304 975 m 764 1081 q 711 1126 746 1107 q 619 1169 676 1146 q 522 1218 558 1197 q 459 1272 485 1239 q 433 1350 433 1304 l 597 1350 q 624 1282 599 1314 q 701 1203 650 1250 q 760 1147 738 1171 q 796 1097 783 1122 l 764 1081 z "},"X":{"ha":785,"x_min":-100,"x_max":885,"o":"m -100 0 l 307 458 l -67 975 l 138 975 l 449 546 l 526 632 q 617 756 588 700 q 656 853 647 813 q 667 943 664 893 q 668 975 667 965 l 885 975 l 468 518 l 842 0 l 638 0 l 326 429 l 247 340 q 167 219 194 282 q 134 120 140 157 q 117 0 128 83 l -100 0 z "},"Y":{"ha":650,"x_min":-108,"x_max":726,"o":"m 203 0 l 203 431 l -108 975 l 96 975 l 389 469 l 468 603 q 529 832 529 707 q 525 911 529 840 q 522 975 522 958 l 726 975 l 407 431 l 407 0 l 203 0 z "},"Ý":{"ha":650,"x_min":-108,"x_max":726,"o":"m 203 0 l 203 431 l -108 975 l 96 975 l 389 469 l 468 603 q 529 832 529 707 q 525 911 529 840 q 522 975 522 958 l 726 975 l 407 431 l 407 0 l 203 0 m 74 1097 q 109 1147 86 1122 q 168 1203 132 1171 q 245 1282 219 1250 q 272 1350 271 1314 l 436 1350 q 410 1272 436 1304 q 348 1218 385 1239 q 250 1169 311 1197 q 158 1126 193 1146 q 106 1081 124 1107 l 74 1097 z "},"Ŷ":{"ha":650,"x_min":-108,"x_max":726,"o":"m 203 0 l 203 431 l -108 975 l 96 975 l 389 469 l 468 603 q 529 832 529 707 q 525 911 529 840 q 522 975 522 958 l 726 975 l 407 431 l 407 0 l 203 0 m 421 1097 q 404 1165 421 1129 q 356 1251 388 1201 q 324 1306 333 1288 l 292 1250 q 244 1161 260 1194 q 229 1097 229 1128 l 68 1097 q 96 1160 68 1133 q 179 1221 124 1188 q 266 1284 236 1257 q 303 1350 296 1311 l 344 1350 q 382 1284 351 1311 q 471 1221 413 1257 q 555 1160 526 1186 q 583 1097 583 1133 l 421 1097 z "},"Ÿ":{"ha":650,"x_min":-108,"x_max":726,"o":"m 203 0 l 203 431 l -108 975 l 96 975 l 389 469 l 468 603 q 529 832 529 707 q 525 911 529 840 q 522 975 522 958 l 726 975 l 407 431 l 407 0 l 203 0 m 231 1147 q 183 1167 203 1147 q 163 1214 163 1186 q 183 1263 163 1243 q 231 1282 203 1282 q 278 1263 258 1282 q 297 1214 297 1243 q 278 1167 297 1186 q 231 1147 258 1147 m 421 1147 q 373 1167 393 1147 q 353 1214 353 1186 q 373 1263 353 1243 q 421 1282 393 1282 q 468 1263 449 1282 q 488 1214 488 1243 q 468 1167 488 1186 q 421 1147 449 1147 z "},"Ỳ":{"ha":650,"x_min":-108,"x_max":726,"o":"m 203 0 l 203 431 l -108 975 l 96 975 l 389 469 l 468 603 q 529 832 529 707 q 525 911 529 840 q 522 975 522 958 l 726 975 l 407 431 l 407 0 l 203 0 m 479 1081 q 426 1126 461 1107 q 335 1169 392 1146 q 237 1218 274 1197 q 174 1272 200 1239 q 149 1350 149 1304 l 313 1350 q 340 1282 314 1314 q 417 1203 365 1250 q 476 1147 453 1171 q 511 1097 499 1122 l 479 1081 z "},"Z":{"ha":958,"x_min":7,"x_max":938,"o":"m 7 0 l 676 933 l 624 933 q 444 909 524 933 q 261 838 364 885 q 128 783 181 800 q 21 765 76 765 l 21 975 q 224 944 101 944 q 443 961 299 944 q 633 975 579 975 l 922 975 l 258 42 l 339 42 q 514 65 438 42 q 692 133 590 89 q 824 187 769 169 q 938 204 879 204 l 938 0 q 739 28 854 28 q 526 14 665 28 q 339 0 396 0 l 7 0 z "},"Ź":{"ha":958,"x_min":7,"x_max":938,"o":"m 7 0 l 676 933 l 624 933 q 444 909 524 933 q 261 838 364 885 q 128 783 181 800 q 21 765 76 765 l 21 975 q 224 944 101 944 q 443 961 299 944 q 633 975 579 975 l 922 975 l 258 42 l 339 42 q 514 65 438 42 q 692 133 590 89 q 824 187 769 169 q 938 204 879 204 l 938 0 q 739 28 854 28 q 526 14 665 28 q 339 0 396 0 l 7 0 m 228 1097 q 263 1147 240 1122 q 322 1203 286 1171 q 399 1282 374 1250 q 426 1350 425 1314 l 590 1350 q 565 1272 590 1304 q 502 1218 539 1239 q 404 1169 465 1197 q 313 1126 347 1146 q 260 1081 278 1107 l 228 1097 z "},"Ž":{"ha":958,"x_min":7,"x_max":938,"o":"m 7 0 l 676 933 l 624 933 q 444 909 524 933 q 261 838 364 885 q 128 783 181 800 q 21 765 76 765 l 21 975 q 224 944 101 944 q 443 961 299 944 q 633 975 579 975 l 922 975 l 258 42 l 339 42 q 514 65 438 42 q 692 133 590 89 q 824 187 769 169 q 938 204 879 204 l 938 0 q 739 28 854 28 q 526 14 665 28 q 339 0 396 0 l 7 0 m 738 1350 q 709 1288 738 1314 q 625 1226 681 1261 q 536 1163 567 1190 q 499 1097 506 1136 l 457 1097 q 420 1163 450 1136 q 333 1226 390 1190 q 250 1287 278 1260 q 222 1350 222 1314 l 383 1350 q 399 1286 383 1319 q 446 1197 414 1253 l 478 1142 q 510 1196 488 1160 q 558 1282 542 1246 q 575 1350 575 1318 l 738 1350 z "},"Ż":{"ha":958,"x_min":7,"x_max":938,"o":"m 7 0 l 676 933 l 624 933 q 444 909 524 933 q 261 838 364 885 q 128 783 181 800 q 21 765 76 765 l 21 975 q 224 944 101 944 q 443 961 299 944 q 633 975 579 975 l 922 975 l 258 42 l 339 42 q 514 65 438 42 q 692 133 590 89 q 824 187 769 169 q 938 204 879 204 l 938 0 q 739 28 854 28 q 526 14 665 28 q 339 0 396 0 l 7 0 m 479 1147 q 405 1178 435 1147 q 375 1251 375 1208 q 405 1326 375 1296 q 479 1356 435 1356 q 553 1326 522 1356 q 583 1251 583 1296 q 553 1178 583 1208 q 479 1147 522 1147 z "},"":{"ha":1006,"x_min":-37,"x_max":1031,"o":"m 1031 0 l 817 0 q 786 407 817 232 l 433 407 l 279 0 l 86 0 l 290 526 q 407 582 367 536 q 447 685 447 628 q 432 745 447 718 q 390 782 417 772 l 449 933 l 413 933 q 253 901 317 933 q 159 817 189 868 q 129 710 129 765 q 161 608 129 650 q 244 567 193 567 q 292 588 274 567 q 310 636 310 608 q 281 706 310 674 q 197 749 253 738 l 201 758 q 219 756 215 756 q 244 760 232 756 q 261 765 257 764 q 315 778 292 778 q 382 751 353 778 q 411 675 411 724 q 358 581 411 619 q 214 542 304 542 q 78 568 135 542 q -8 638 21 594 q -37 732 -37 682 q 3 849 -37 793 q 126 940 44 904 q 325 975 208 975 l 615 975 l 1031 0 m 450 449 l 779 449 q 743 571 764 515 l 613 876 l 450 449 z "},"":{"ha":1376,"x_min":39,"x_max":1346,"o":"m 1124 499 q 1288 425 1231 489 q 1346 265 1346 361 q 1310 140 1346 201 q 1200 40 1274 79 q 1021 0 1126 0 l 538 0 l 538 933 l 489 933 q 329 901 393 933 q 235 817 265 868 q 206 710 206 765 q 238 608 206 650 q 321 567 269 567 q 368 588 350 567 q 386 636 386 608 q 358 706 386 674 q 274 749 329 738 l 278 758 q 296 756 292 756 q 321 760 308 756 q 338 765 333 764 q 392 778 368 778 q 458 751 429 778 q 488 675 488 724 q 434 581 488 619 q 290 542 381 542 q 154 568 211 542 q 68 638 97 594 q 39 732 39 682 q 80 849 39 793 q 203 940 121 904 q 401 975 285 975 l 989 975 q 1153 941 1088 975 q 1251 851 1219 907 q 1282 732 1282 796 q 1238 589 1282 654 q 1124 506 1194 524 l 1124 499 m 740 933 l 740 519 l 900 519 q 1006 549 961 519 q 1072 627 1050 579 q 1094 729 1094 675 q 1044 873 1094 813 q 900 933 993 933 l 740 933 m 906 42 q 1033 74 979 42 q 1115 157 1088 106 q 1143 265 1143 208 q 1083 419 1143 360 q 924 478 1024 478 l 740 478 l 740 42 l 906 42 z "},"":{"ha":926,"x_min":32,"x_max":1933,"o":"m 1631 -515 q 1497 -500 1560 -515 q 1340 -456 1433 -485 q 1250 -428 1286 -437 q 1186 -418 1214 -418 q 1113 -458 1136 -418 l 1101 -457 q 1144 -328 1106 -379 q 1268 -276 1183 -276 q 1342 -301 1310 -276 q 1421 -376 1374 -325 q 1510 -460 1472 -433 q 1597 -487 1547 -487 q 1711 -441 1671 -487 q 1751 -328 1751 -394 q 1729 -237 1751 -281 q 1664 -166 1707 -193 q 1561 -139 1621 -139 q 1444 -151 1506 -139 q 1271 -193 1382 -164 q 1041 -247 1132 -229 q 854 -264 950 -264 q 413 -167 599 -264 q 129 95 226 -69 q 32 461 32 260 q 96 758 32 638 q 275 938 160 878 q 547 997 390 997 q 715 976 614 997 q 817 961 785 961 q 893 981 860 961 l 893 722 q 823 748 853 722 q 753 826 793 774 q 663 922 703 890 q 563 954 622 954 q 398 889 469 954 q 287 715 326 824 q 247 482 247 607 q 325 153 247 310 q 567 -105 403 -4 q 978 -206 732 -206 q 1130 -188 1050 -206 q 1329 -136 1210 -171 q 1522 -85 1444 -103 q 1669 -68 1600 -68 q 1866 -124 1799 -68 q 1933 -265 1933 -181 q 1894 -387 1933 -329 q 1786 -480 1856 -444 q 1631 -515 1717 -515 z "},"":{"ha":1397,"x_min":39,"x_max":1365,"o":"m 607 -107 q 405 -75 496 -107 q 260 20 314 -43 q 207 174 207 83 q 243 305 207 251 q 338 385 279 358 q 464 413 397 413 q 585 388 528 413 q 679 315 643 363 q 715 203 715 268 q 708 154 715 171 q 686 118 701 138 q 669 90 675 103 q 658 60 663 78 l 643 60 q 601 211 649 157 q 479 265 553 265 q 375 229 418 265 q 332 128 332 193 q 408 -10 332 39 q 603 -58 485 -58 q 863 4 733 -58 q 1079 195 993 67 q 1165 510 1165 324 q 1063 826 1165 719 q 790 933 960 933 l 750 933 l 750 285 l 725 285 q 702 356 725 318 q 638 421 679 393 q 546 453 597 449 l 546 933 l 489 933 q 329 901 393 933 q 235 817 265 868 q 206 710 206 765 q 238 608 206 650 q 321 567 269 567 q 368 588 350 567 q 386 636 386 608 q 358 706 386 674 q 274 749 329 738 l 278 758 q 296 756 292 756 q 321 760 308 756 q 338 765 333 764 q 392 778 368 778 q 458 751 429 778 q 488 675 488 724 q 434 581 488 619 q 290 542 381 542 q 154 568 211 542 q 68 638 97 594 q 39 732 39 682 q 80 849 39 793 q 203 940 121 904 q 401 975 285 975 l 874 975 q 1128 924 1017 975 q 1302 773 1239 874 q 1365 529 1365 672 q 1250 186 1365 331 q 959 -33 1135 42 q 607 -107 783 -107 z "},"":{"ha":1356,"x_min":39,"x_max":1325,"o":"m 558 0 l 558 933 l 489 933 q 329 901 393 933 q 235 817 265 868 q 206 710 206 765 q 238 608 206 650 q 321 567 269 567 q 368 588 350 567 q 386 636 386 608 q 358 706 386 674 q 274 749 329 738 l 278 758 q 296 756 292 756 q 321 760 308 756 q 338 765 333 764 q 392 778 368 778 q 458 751 429 778 q 488 675 488 724 q 434 581 488 619 q 290 542 381 542 q 154 568 211 542 q 68 638 97 594 q 39 732 39 682 q 80 849 39 793 q 203 940 121 904 q 401 975 285 975 l 763 975 q 999 965 826 975 q 1081 961 1026 964 q 1169 958 1135 958 q 1304 975 1258 958 l 1304 764 l 1297 764 q 1227 778 1260 764 q 1140 826 1194 793 q 1047 880 1086 860 q 951 915 1008 900 q 824 932 894 931 l 763 933 l 763 569 l 951 569 q 1072 588 1024 569 q 1140 667 1119 606 l 1154 667 l 1154 426 l 1140 426 q 1096 494 1125 472 q 1033 522 1067 517 q 951 528 1000 528 l 763 528 l 763 42 q 930 71 857 46 q 1089 139 1003 96 q 1213 192 1163 175 q 1318 210 1263 210 l 1325 210 l 1325 0 q 1132 29 1244 29 q 1003 22 1071 29 q 919 14 935 15 q 851 7 901 13 q 763 0 801 1 l 558 0 z "},"":{"ha":1299,"x_min":39,"x_max":1268,"o":"m 558 0 l 558 933 l 489 933 q 329 901 393 933 q 235 817 265 868 q 206 710 206 765 q 238 608 206 650 q 321 567 269 567 q 368 588 350 567 q 386 636 386 608 q 358 706 386 674 q 274 749 329 738 l 278 758 q 296 756 292 756 q 321 760 308 756 q 338 765 333 764 q 392 778 368 778 q 458 751 429 778 q 488 675 488 724 q 434 581 488 619 q 290 542 381 542 q 154 568 211 542 q 68 638 97 594 q 39 732 39 682 q 80 849 39 793 q 203 940 121 904 q 401 975 285 975 l 763 975 q 985 963 842 975 q 1124 954 1085 954 q 1268 975 1201 954 l 1268 761 l 1261 761 q 1203 774 1233 761 q 1122 817 1174 788 q 951 900 1031 869 q 763 933 871 931 l 763 569 l 840 569 q 1053 590 978 569 q 1139 663 1129 611 l 1153 663 l 1153 431 l 1139 431 q 1058 509 1129 490 q 840 528 986 528 l 763 528 l 763 0 l 558 0 z "},"":{"ha":1456,"x_min":39,"x_max":1979,"o":"m 1663 -465 q 1418 -407 1528 -465 q 1246 -242 1308 -349 q 1185 0 1183 -136 l 1185 521 l 760 521 l 760 0 l 557 0 l 557 933 l 489 933 q 329 901 393 933 q 235 817 265 868 q 206 710 206 765 q 238 608 206 650 q 321 567 269 567 q 368 588 350 567 q 386 636 386 608 q 358 706 386 674 q 274 749 329 738 l 278 758 q 296 756 292 756 q 321 760 308 756 q 338 765 333 764 q 392 778 368 778 q 458 751 429 778 q 488 675 488 724 q 434 581 488 619 q 290 542 381 542 q 154 568 211 542 q 68 638 97 594 q 39 732 39 682 q 80 849 39 793 q 203 940 121 904 q 401 975 285 975 l 760 975 l 760 560 l 1185 560 l 1185 975 l 1388 975 l 1388 0 q 1442 -318 1390 -206 q 1628 -431 1493 -431 q 1741 -390 1690 -431 q 1822 -292 1792 -350 q 1851 -186 1851 -233 q 1835 -135 1851 -154 q 1789 -117 1819 -117 q 1741 -138 1757 -117 q 1708 -203 1725 -160 q 1664 -285 1688 -257 q 1590 -312 1640 -312 q 1533 -293 1556 -312 q 1503 -247 1511 -274 q 1497 -199 1494 -221 l 1507 -199 q 1546 -211 1528 -211 q 1583 -200 1565 -211 q 1629 -164 1600 -189 q 1703 -110 1669 -129 q 1781 -92 1736 -92 q 1928 -133 1878 -92 q 1979 -236 1979 -174 q 1941 -343 1979 -290 q 1831 -431 1903 -396 q 1663 -465 1758 -465 z "},"":{"ha":861,"x_min":39,"x_max":835,"o":"m 631 740 q 576 1058 628 946 q 390 1171 525 1171 q 277 1131 328 1171 q 197 1032 226 1090 q 167 926 167 974 q 183 876 167 894 q 229 857 199 857 q 277 878 261 857 q 310 943 293 900 q 354 1025 331 997 q 428 1053 378 1053 q 485 1033 463 1053 q 515 988 507 1014 q 521 939 524 961 l 511 939 q 472 951 490 951 q 435 940 453 951 q 389 904 418 929 q 315 851 349 869 q 238 832 282 832 q 90 873 140 832 q 39 976 39 914 q 77 1083 39 1031 q 188 1171 115 1136 q 356 1206 260 1206 q 600 1147 490 1206 q 772 983 710 1089 q 833 740 835 876 l 833 0 l 631 0 l 631 740 z "},"":{"ha":824,"x_min":-17,"x_max":779,"o":"m 300 -231 q 132 -196 204 -231 q 22 -108 60 -161 q -17 -1 -17 -56 q 34 102 -17 61 q 182 143 85 143 q 260 124 226 143 q 333 71 293 106 q 380 35 363 46 q 417 24 397 24 q 456 36 435 24 l 465 36 q 460 -12 468 14 q 429 -58 451 -39 q 372 -78 407 -78 q 299 -50 322 -78 q 254 32 275 -22 q 222 97 238 75 q 174 118 206 118 q 127 99 143 118 q 111 49 111 81 q 141 -57 111 1 q 222 -156 171 -115 q 335 -196 272 -196 q 521 -83 469 -196 q 575 235 572 29 l 575 788 q 517 769 550 788 q 433 714 485 750 q 342 654 375 674 q 279 635 308 635 q 253 642 267 635 l 253 801 q 333 782 288 782 q 410 792 369 782 q 457 803 450 801 q 575 824 532 824 l 778 824 l 778 235 q 717 -8 779 99 q 544 -172 654 -114 q 300 -231 435 -231 z "},"":{"ha":933,"x_min":39,"x_max":2156,"o":"m 1629 -532 q 1312 -485 1490 -532 q 939 -278 1133 -437 q 626 185 744 -118 l 476 571 l 243 429 l 243 0 l 39 0 l 39 975 l 243 975 l 243 461 l 471 601 q 722 847 638 704 q 807 1132 807 990 q 769 1303 807 1226 q 661 1424 732 1379 q 493 1468 590 1468 q 385 1437 429 1468 q 321 1357 342 1406 q 300 1256 300 1308 q 328 1151 300 1194 q 403 1108 357 1108 q 467 1135 440 1108 q 528 1217 494 1163 q 581 1290 558 1265 q 633 1314 603 1314 q 685 1295 663 1314 q 711 1243 708 1276 l 701 1240 q 653 1267 676 1267 q 614 1251 633 1267 q 567 1201 594 1235 q 472 1113 515 1144 q 364 1082 428 1082 q 268 1104 315 1082 q 190 1169 221 1126 q 158 1274 158 1213 q 202 1391 158 1339 q 324 1472 246 1443 q 501 1500 403 1500 q 733 1454 622 1500 q 912 1323 843 1408 q 981 1124 981 1238 q 876 867 981 986 q 582 635 771 749 l 525 600 l 675 585 l 839 165 q 1206 -347 983 -203 q 1665 -490 1428 -490 q 1863 -453 1783 -490 q 1981 -362 1943 -417 q 2019 -256 2019 -308 q 1996 -186 2019 -214 q 1933 -158 1972 -158 q 1850 -183 1885 -158 q 1772 -257 1815 -208 q 1692 -333 1728 -307 q 1606 -358 1657 -358 q 1481 -305 1529 -358 q 1429 -176 1433 -251 l 1440 -175 q 1533 -232 1471 -232 q 1617 -217 1571 -232 q 1735 -175 1664 -203 q 1860 -132 1815 -146 q 1942 -118 1904 -118 q 2096 -151 2036 -118 q 2156 -257 2156 -183 q 2105 -385 2156 -322 q 1936 -490 2054 -447 q 1629 -532 1818 -532 z "},"":{"ha":336,"x_min":38,"x_max":833,"o":"m 518 -465 q 274 -407 383 -465 q 101 -242 164 -349 q 39 0 38 -136 l 39 975 l 243 975 l 243 0 q 297 -317 244 -204 q 483 -431 349 -431 q 596 -390 544 -431 q 676 -292 647 -350 q 706 -186 706 -233 q 690 -135 706 -154 q 644 -117 675 -117 q 597 -138 613 -117 q 564 -203 581 -160 q 519 -285 543 -257 q 446 -312 496 -312 q 389 -293 411 -312 q 358 -247 367 -274 q 353 -199 350 -221 l 363 -199 q 401 -211 383 -211 q 440 -199 421 -211 q 485 -164 458 -187 q 558 -110 525 -129 q 635 -92 590 -92 q 783 -133 732 -92 q 833 -236 833 -174 q 795 -343 833 -290 q 685 -431 757 -396 q 518 -465 613 -465 z "},"":{"ha":1613,"x_min":8,"x_max":2357,"o":"m 1960 -475 q 1520 -322 1639 -475 q 1385 0 1401 -168 l 1311 740 l 1067 0 l 896 0 l 651 767 l 629 363 q 694 1 622 168 l 483 3 q 550 170 518 61 q 586 363 582 279 l 615 894 q 493 1122 576 1046 q 318 1197 410 1197 q 200 1163 251 1197 q 120 1069 149 1128 q 92 944 92 1011 q 127 823 92 869 q 215 776 163 776 q 305 821 271 776 q 342 944 339 865 l 356 944 q 358 906 354 922 q 372 865 363 890 q 390 786 390 824 q 341 674 390 718 q 210 631 292 631 q 114 656 160 631 q 38 736 68 681 q 8 879 8 792 q 55 1060 8 976 q 190 1195 101 1144 q 396 1246 278 1246 q 643 1174 544 1246 q 779 975 742 1103 l 1060 106 l 1346 975 l 1492 975 l 1588 0 q 1647 -224 1600 -124 q 1775 -384 1694 -325 q 1963 -443 1856 -443 q 2119 -404 2056 -443 q 2214 -306 2183 -365 q 2244 -186 2244 -247 q 2225 -117 2244 -142 q 2175 -93 2206 -93 q 2118 -118 2140 -93 q 2067 -197 2096 -143 q 2001 -295 2033 -261 q 1913 -329 1969 -329 q 1835 -297 1860 -329 q 1804 -222 1810 -264 l 1814 -219 q 1868 -251 1840 -251 q 1915 -234 1892 -251 q 1978 -179 1939 -217 q 2083 -92 2035 -124 q 2193 -61 2132 -61 q 2310 -101 2263 -61 q 2357 -211 2357 -142 q 2313 -335 2357 -274 q 2178 -435 2268 -396 q 1960 -475 2089 -475 z "},"":{"ha":1331,"x_min":43,"x_max":1351,"o":"m 474 0 q 523 283 501 133 q 544 506 544 432 l 544 896 l 479 933 q 327 897 388 931 q 238 814 267 864 q 210 710 210 764 q 242 608 210 650 q 325 567 274 567 q 371 588 353 567 q 389 636 389 608 q 361 706 389 674 q 276 749 333 738 l 281 758 q 299 756 294 756 q 324 760 311 756 q 340 765 336 764 q 394 778 371 778 q 462 751 432 778 q 492 675 492 724 q 438 581 492 619 q 293 542 385 542 q 157 568 214 542 q 72 638 100 594 q 43 732 43 681 q 84 849 43 793 q 207 940 125 904 q 404 975 289 975 l 704 975 l 1239 131 l 1239 411 q 1209 641 1239 492 q 1136 975 1179 790 l 1351 975 q 1300 771 1319 896 q 1281 526 1281 646 l 1281 0 l 1114 0 l 586 826 l 586 561 q 619 299 586 465 q 689 0 653 132 l 474 0 z "},"":{"ha":1403,"x_min":32,"x_max":1371,"o":"m 671 1060 q 1073 969 915 1060 q 1301 747 1231 879 q 1371 482 1371 614 q 1316 228 1371 343 q 1151 46 1261 114 q 883 -22 1042 -22 q 596 56 711 -22 q 431 264 481 133 q 228 315 319 268 q 85 442 138 361 q 32 624 32 522 q 102 835 32 735 q 316 997 172 935 q 671 1060 460 1060 m 883 15 q 1102 155 1038 15 q 1167 483 1167 294 q 1126 726 1167 606 q 976 935 1086 847 q 671 1022 865 1022 q 433 963 533 1022 q 282 808 333 903 q 231 611 231 713 q 277 438 231 515 q 411 325 324 360 q 394 469 394 394 q 453 697 394 592 q 626 867 511 803 q 904 932 742 932 l 904 897 q 670 776 739 897 q 601 482 601 656 q 619 306 601 392 q 772 367 718 314 q 825 488 825 421 q 788 585 825 547 q 675 619 751 622 l 675 642 q 715 647 700 642 q 751 663 731 651 q 784 677 769 672 q 819 682 799 682 q 941 638 893 682 q 989 525 989 594 q 953 415 989 471 q 835 319 917 360 q 626 275 753 279 q 719 87 656 158 q 883 15 782 15 z "},"":{"ha":1292,"x_min":39,"x_max":1281,"o":"m 917 975 q 1115 937 1033 975 q 1239 831 1197 899 q 1281 676 1281 764 q 1238 512 1281 585 q 1123 397 1194 439 q 968 356 1051 356 q 840 383 900 356 q 736 464 779 410 l 731 464 l 731 0 l 528 0 l 528 940 q 328 897 406 932 q 217 811 251 861 q 183 707 183 761 q 201 630 183 667 q 247 571 218 593 q 310 549 276 549 q 369 569 343 549 q 396 625 396 590 q 354 705 396 671 q 249 749 313 739 l 253 764 q 317 769 275 761 q 368 776 342 776 q 435 748 406 776 q 464 650 464 719 q 405 535 464 579 q 264 492 346 492 q 103 547 168 492 q 39 696 39 601 q 87 829 39 765 q 238 934 135 893 q 496 975 342 975 l 917 975 m 888 436 q 996 469 950 436 q 1066 554 1042 501 q 1090 668 1090 607 q 1060 797 1090 736 q 969 895 1031 857 q 818 933 907 933 l 731 933 l 731 511 q 805 456 764 475 q 888 436 846 436 z "},"":{"ha":1388,"x_min":32,"x_max":1707,"o":"m 1508 -165 q 1707 -133 1611 -165 l 1707 -346 q 1565 -358 1628 -358 q 1376 -328 1458 -358 q 1239 -257 1294 -299 q 1115 -150 1183 -215 q 1015 -62 1056 -92 q 925 -22 974 -32 l 925 -21 q 883 -22 911 -22 q 596 56 711 -22 q 431 264 481 133 q 228 315 319 268 q 85 442 138 361 q 32 624 32 522 q 102 835 32 735 q 316 997 172 935 q 671 1060 460 1060 q 1073 969 915 1060 q 1301 747 1231 879 q 1371 482 1371 614 q 1331 263 1371 364 q 1212 90 1292 161 q 1017 -8 1132 18 q 1092 -35 1051 -18 q 1171 -71 1132 -51 q 1345 -141 1269 -117 q 1508 -165 1421 -165 m 626 275 q 719 87 656 158 q 883 15 782 15 q 1102 155 1038 15 q 1167 483 1167 294 q 1126 726 1167 606 q 976 935 1086 847 q 671 1022 865 1022 q 433 963 533 1022 q 282 808 333 903 q 231 611 231 713 q 277 438 231 515 q 411 325 324 360 q 394 469 394 394 q 453 697 394 592 q 626 867 511 803 q 904 932 742 932 l 904 897 q 670 776 739 897 q 601 482 601 656 q 619 306 601 392 q 772 367 718 314 q 825 488 825 421 q 788 585 825 547 q 675 619 751 622 l 675 642 q 715 647 700 642 q 751 663 731 651 q 784 677 769 672 q 819 682 799 682 q 941 638 893 682 q 989 525 989 594 q 953 415 989 471 q 835 319 917 360 q 626 275 753 279 z "},"":{"ha":1393,"x_min":39,"x_max":2110,"o":"m 1758 -494 q 1497 -413 1610 -494 q 1308 -218 1383 -332 q 1136 78 1232 -104 q 1018 288 1067 210 q 915 411 969 367 l 743 411 l 743 0 l 539 0 l 539 933 l 489 933 q 329 901 393 933 q 235 817 265 868 q 206 710 206 765 q 238 608 206 650 q 321 567 269 567 q 368 588 350 567 q 386 636 386 608 q 358 706 386 674 q 274 749 329 738 l 278 758 q 296 756 292 756 q 321 760 308 756 q 338 765 333 764 q 392 778 368 778 q 458 751 429 778 q 488 675 488 724 q 434 581 488 619 q 290 542 381 542 q 154 568 211 542 q 68 638 97 594 q 39 732 39 682 q 80 849 39 793 q 203 940 121 904 q 401 975 285 975 l 1011 975 q 1174 937 1107 975 q 1276 837 1242 899 q 1310 703 1310 775 q 1278 569 1310 632 q 1190 464 1246 506 q 1061 414 1133 422 q 1198 297 1138 371 q 1301 143 1258 224 q 1404 -67 1344 63 q 1508 -276 1465 -200 q 1608 -402 1550 -351 q 1740 -453 1665 -453 q 1865 -415 1810 -453 q 1952 -320 1921 -376 q 1983 -212 1983 -264 q 1963 -146 1983 -169 q 1904 -122 1943 -122 q 1853 -144 1872 -122 q 1808 -211 1833 -167 q 1753 -292 1779 -265 q 1681 -319 1726 -319 q 1594 -282 1629 -319 q 1558 -193 1558 -244 q 1572 -136 1558 -164 l 1583 -135 q 1613 -189 1588 -171 q 1668 -207 1638 -207 q 1713 -194 1693 -207 q 1763 -156 1733 -182 q 1837 -100 1801 -119 q 1925 -81 1872 -81 q 2056 -129 2001 -81 q 2110 -258 2110 -178 q 2072 -369 2110 -315 q 1954 -459 2033 -424 q 1758 -494 1875 -494 m 922 453 q 1027 489 983 453 q 1094 582 1071 525 q 1117 701 1117 639 q 1073 865 1117 797 q 914 933 1029 933 l 743 933 l 743 453 l 922 453 z "},"":{"ha":826,"x_min":-76,"x_max":800,"o":"m 382 -165 q 134 -118 238 -165 q -23 3 31 -71 q -76 151 -76 76 q -64 224 -76 194 q -34 270 -51 253 q 15 311 -17 288 q 63 349 44 332 q 96 392 82 367 l 121 389 q 99 236 99 314 q 133 55 99 138 q 232 -77 167 -28 q 385 -126 297 -126 q 500 -99 449 -126 q 581 -25 551 -71 q 610 74 610 21 q 607 101 610 82 q 555 215 597 161 q 456 313 513 268 q 304 422 400 357 q 142 540 201 493 q 42 646 83 588 q 1 771 1 704 q 55 894 1 843 q 193 972 108 946 q 371 997 278 997 q 469 990 426 997 q 563 969 511 982 q 656 953 622 953 q 735 975 696 953 l 735 763 l 728 763 q 667 782 694 763 q 592 846 639 801 q 487 933 535 903 q 372 964 439 964 q 250 934 304 964 q 196 844 196 904 q 258 731 196 788 q 449 589 321 674 q 625 464 557 517 q 743 345 693 411 q 799 207 793 279 q 800 175 800 196 q 740 -6 800 71 q 583 -124 679 -83 q 382 -165 486 -165 z "},"":{"ha":644,"x_min":-103,"x_max":1231,"o":"m 833 -499 q 526 -424 658 -499 q 324 -223 394 -350 q 253 58 253 -96 l 253 933 l 129 933 q 51 922 76 933 q 0 889 25 911 q -36 864 -19 872 q -85 856 -53 856 l -103 856 l -81 974 l 456 974 q 778 1014 649 974 q 969 1122 907 1054 q 1032 1274 1032 1190 q 987 1395 1032 1353 q 881 1438 942 1438 q 779 1401 822 1438 q 736 1304 736 1365 q 758 1239 736 1264 q 815 1214 781 1214 q 871 1231 843 1214 q 918 1283 899 1249 l 929 1278 q 869 1181 893 1214 q 811 1128 846 1149 q 726 1108 776 1108 q 610 1151 654 1108 q 567 1260 567 1194 q 611 1378 567 1329 q 727 1453 656 1428 q 881 1478 799 1478 q 1049 1449 969 1478 q 1178 1365 1129 1421 q 1228 1232 1228 1310 q 1122 1062 1228 1129 q 842 963 1017 994 q 456 932 668 932 l 456 136 q 512 -215 456 -82 q 655 -403 568 -347 q 839 -460 742 -460 q 990 -404 932 -460 q 1049 -267 1049 -349 q 1019 -174 1049 -212 q 940 -136 990 -136 q 845 -179 882 -136 q 808 -296 808 -222 q 810 -329 808 -317 l 796 -328 q 718 -282 747 -310 q 689 -218 689 -254 q 750 -129 689 -165 q 924 -93 811 -93 q 1092 -118 1022 -93 q 1196 -184 1161 -143 q 1231 -274 1231 -225 q 1185 -382 1231 -331 q 1049 -466 1139 -433 q 833 -499 958 -499 z "},"":{"ha":924,"x_min":-431,"x_max":888,"o":"m 474 -21 q 257 28 351 -21 q 108 174 163 76 q 54 410 54 271 l 54 883 q 1 1177 54 1088 q -154 1267 -51 1267 q -284 1221 -239 1267 q -329 1114 -329 1175 q -299 1028 -329 1061 q -222 994 -269 994 q -131 1027 -171 994 q -92 1133 -92 1060 l -81 1133 q -65 1067 -81 1103 q -53 1028 -57 1044 q -49 988 -49 1011 q -93 877 -49 924 q -215 831 -137 831 q -332 860 -283 831 q -406 938 -381 889 q -431 1043 -431 986 q -397 1170 -431 1110 q -299 1269 -364 1231 q -142 1307 -233 1307 q 42 1265 -49 1307 q 195 1128 133 1224 q 257 883 257 1033 l 258 883 l 258 265 q 317 82 258 143 q 474 21 376 21 q 627 82 569 21 q 685 265 685 143 l 685 975 l 888 975 l 888 410 q 835 173 888 269 q 688 28 782 76 q 474 -21 594 -21 z "},"":{"ha":664,"x_min":-829,"x_max":751,"o":"m 751 975 l 613 568 l 417 0 l 214 0 l -83 975 q -152 1158 -118 1089 q -249 1270 -186 1226 q -418 1314 -312 1314 q -552 1275 -499 1314 q -631 1176 -606 1236 q -657 1050 -657 1115 q -630 935 -657 982 q -558 888 -603 888 q -499 915 -519 888 q -457 1001 -479 943 q -415 1089 -436 1057 q -356 1131 -394 1121 q -335 1133 -342 1133 q -273 1109 -300 1133 q -243 1036 -246 1085 l -253 1033 q -304 1043 -281 1043 q -361 1024 -339 1043 q -412 963 -383 1004 q -473 890 -444 915 q -550 858 -501 864 q -600 854 -576 854 q -723 883 -671 854 q -802 960 -775 913 q -829 1063 -829 1007 q -783 1202 -829 1135 q -645 1313 -737 1269 q -418 1356 -553 1356 q 121 975 7 1356 l 397 65 l 521 426 q 565 704 565 560 q 549 903 565 779 q 540 975 540 964 l 751 975 z "},"":{"ha":1193,"x_min":-878,"x_max":1285,"o":"m 1285 975 l 1146 568 l 950 0 l 747 0 l 585 456 l 438 0 l 221 0 l -132 975 q -208 1163 -176 1100 q -301 1269 -239 1225 q -467 1314 -362 1314 q -601 1275 -547 1314 q -680 1176 -654 1236 q -706 1050 -706 1115 q -678 935 -706 982 q -607 888 -651 888 q -529 921 -554 888 q -483 1018 -504 954 q -458 1081 -468 1058 q -430 1118 -449 1103 q -382 1133 -411 1133 q -321 1109 -349 1133 q -292 1036 -293 1085 l -301 1033 q -340 1044 -322 1044 q -383 1028 -364 1044 q -428 975 -401 1011 q -481 913 -457 938 q -544 871 -506 889 q -635 853 -582 853 q -767 881 -712 853 q -850 958 -822 910 q -878 1063 -878 1006 q -832 1202 -878 1135 q -694 1313 -786 1269 q -467 1356 -601 1356 q -124 1258 -251 1356 q 72 975 4 1160 l 410 47 l 419 47 l 567 506 l 404 975 l 608 975 l 929 68 l 1054 426 q 1099 703 1099 554 q 1082 903 1099 779 q 1074 975 1074 964 l 1285 975 z "},"":{"ha":742,"x_min":-621,"x_max":853,"o":"m -131 0 l 272 456 l 26 792 q -109 922 -39 883 q -254 961 -179 961 q -370 923 -324 961 q -438 824 -417 885 q -460 699 -460 764 q -433 574 -460 624 q -356 525 -406 525 q -297 555 -315 525 q -260 646 -278 585 q -235 715 -246 690 q -205 758 -225 740 q -153 775 -185 775 q -82 747 -108 775 q -46 683 -56 718 l -56 682 q -93 696 -75 696 q -130 679 -112 696 q -172 629 -147 663 q -228 563 -203 589 q -292 518 -253 538 q -383 499 -331 499 q -512 528 -458 499 q -594 605 -567 557 q -621 711 -621 653 q -579 849 -621 782 q -454 957 -537 915 q -254 999 -371 999 q 18 953 -121 999 q 253 771 157 908 l 414 550 l 529 678 q 639 813 606 761 q 679 895 672 864 q 686 975 686 926 l 853 975 l 436 518 l 810 0 l 607 0 l 297 421 l 193 303 q 36 0 36 128 l -131 0 z "},"":{"ha":886,"x_min":-283,"x_max":903,"o":"m 675 953 q 539 977 600 963 q 388 1017 478 992 q 241 1055 297 1043 q 124 1067 185 1067 q -4 1022 47 1067 q -79 906 -56 976 q -103 763 -103 836 q -79 629 -103 685 q -18 574 -56 574 q 35 604 15 574 q 76 694 56 635 q 131 809 103 769 q 214 849 160 849 q 289 823 257 849 q 324 744 321 797 q 324 708 326 729 l 315 704 q 269 722 296 722 q 215 703 243 722 q 146 644 188 683 q 58 573 94 597 q -19 549 21 549 q -164 581 -104 549 q -253 667 -224 614 q -283 785 -283 721 q -239 938 -283 864 q -108 1060 -194 1013 q 96 1108 -22 1108 q 250 1091 168 1108 q 453 1040 332 1074 q 666 988 582 1006 q 828 971 750 971 q 889 975 860 971 l 215 42 l 304 42 q 472 57 397 42 q 599 92 547 72 q 721 146 651 113 q 822 190 782 176 q 903 204 861 204 l 903 0 q 722 28 824 28 q 612 22 674 28 q 531 15 550 17 q 304 0 399 0 l -25 0 l 675 953 z "},"":{"ha":1151,"x_min":-37,"x_max":1193,"o":"m 249 0 l 407 410 l 325 410 q 126 445 208 410 q 3 536 44 481 q -37 653 -37 592 q -8 747 -37 703 q 78 817 21 790 q 214 843 135 843 q 358 805 304 843 q 411 710 411 767 q 382 634 411 661 q 315 607 353 607 q 261 618 292 607 q 218 628 238 628 q 201 626 207 628 l 197 636 q 281 680 253 647 q 310 749 310 713 q 292 798 310 778 q 244 818 274 818 q 161 776 193 818 q 129 676 129 735 q 158 569 129 621 q 251 485 188 518 q 410 451 314 451 l 417 432 l 626 975 l 778 975 l 1193 0 l 979 0 q 974 208 979 121 q 947 407 969 294 l 596 407 l 442 0 l 249 0 m 940 449 q 897 590 919 539 l 775 876 l 613 449 l 940 449 z "},"":{"ha":1381,"x_min":39,"x_max":1351,"o":"m 779 -96 q 512 -57 621 -96 q 349 47 403 -18 q 294 194 294 113 q 324 305 294 256 q 407 383 354 354 q 525 411 460 411 q 678 365 614 411 q 742 238 742 318 q 692 89 742 168 l 675 89 q 692 163 692 129 q 656 249 692 217 q 571 281 619 281 q 494 251 526 281 q 463 168 463 222 q 504 47 463 97 q 615 -30 546 -4 q 764 -56 683 -56 q 948 -19 860 -56 q 1092 90 1036 18 q 1147 265 1147 163 q 1088 419 1147 360 q 929 478 1028 478 l 746 478 l 746 350 q 664 430 724 403 q 542 451 604 457 l 542 933 l 489 933 q 329 901 393 933 q 235 817 265 868 q 206 710 206 765 q 238 608 206 650 q 321 567 269 567 q 368 588 350 567 q 386 636 386 608 q 358 706 386 674 q 274 749 329 738 l 278 758 q 296 756 292 756 q 321 760 308 756 q 338 765 333 764 q 392 778 368 778 q 458 751 429 778 q 488 675 488 724 q 434 581 488 619 q 290 542 381 542 q 154 568 211 542 q 68 638 97 594 q 39 732 39 682 q 80 849 39 793 q 203 940 121 904 q 401 975 285 975 l 994 975 q 1158 942 1093 975 q 1254 854 1224 908 q 1285 736 1285 800 q 1241 590 1285 657 q 1129 506 1197 524 l 1129 499 q 1295 424 1239 488 q 1351 265 1351 361 q 1275 81 1351 164 q 1067 -49 1199 -1 q 779 -96 936 -96 m 904 519 q 1011 549 967 519 q 1078 627 1056 579 q 1100 729 1100 675 q 1049 873 1100 813 q 906 933 999 933 l 746 933 l 746 519 l 904 519 z "},"":{"ha":1411,"x_min":39,"x_max":1371,"o":"m 540 0 l 540 933 l 489 933 q 329 901 393 933 q 235 817 265 868 q 206 710 206 765 q 238 608 206 650 q 321 567 269 567 q 368 588 350 567 q 386 636 386 608 q 358 706 386 674 q 274 749 329 738 l 278 758 q 296 756 292 756 q 321 760 308 756 q 338 765 333 764 q 392 778 368 778 q 458 751 429 778 q 488 675 488 724 q 434 581 488 619 q 290 542 381 542 q 154 568 211 542 q 68 638 97 594 q 39 732 39 682 q 80 849 39 793 q 203 940 121 904 q 401 975 285 975 l 743 975 l 743 560 l 1168 560 l 1168 975 l 1371 975 l 1371 0 l 1168 0 l 1168 521 l 743 521 l 743 0 l 540 0 z "},"":{"ha":793,"x_min":39,"x_max":753,"o":"m 550 0 l 550 933 l 489 933 q 329 901 393 933 q 235 817 265 868 q 206 710 206 765 q 238 608 206 650 q 321 567 269 567 q 368 588 350 567 q 386 636 386 608 q 358 706 386 674 q 274 749 329 738 l 278 758 q 296 756 292 756 q 321 760 308 756 q 338 765 333 764 q 392 778 368 778 q 458 751 429 778 q 488 675 488 724 q 434 581 488 619 q 290 542 381 542 q 154 568 211 542 q 68 638 97 594 q 39 732 39 682 q 80 849 39 793 q 203 940 121 904 q 401 975 285 975 l 753 975 l 753 0 l 550 0 z "},"":{"ha":764,"x_min":10,"x_max":718,"o":"m 360 -24 q 201 -7 296 -24 q 82 7 118 7 q 18 0 53 7 l 18 192 l 25 192 q 111 168 72 192 q 201 99 150 144 q 285 35 251 56 q 360 14 319 14 q 473 81 431 14 q 515 254 515 147 l 515 933 l 458 933 q 299 901 363 933 q 206 817 235 868 q 176 710 176 765 q 208 608 176 650 q 292 567 239 567 q 338 588 319 567 q 356 636 356 608 q 328 706 356 674 q 243 749 300 738 l 247 758 q 265 756 261 756 q 290 760 278 756 q 307 765 303 764 q 361 778 338 778 q 428 751 399 778 q 457 675 457 724 q 404 581 457 619 q 260 542 351 542 q 124 568 181 542 q 38 638 67 594 q 10 732 10 681 q 51 849 10 793 q 173 940 92 904 q 371 975 254 975 l 718 975 l 718 299 q 667 113 718 185 q 535 8 615 40 q 360 -24 454 -24 z "},"":{"ha":1407,"x_min":39,"x_max":2664,"o":"m 2136 -532 q 1819 -485 1997 -532 q 1447 -278 1640 -437 q 1135 185 1253 -118 l 985 571 l 751 429 l 751 0 l 547 0 l 547 933 l 489 933 q 329 901 393 933 q 235 817 265 868 q 206 710 206 765 q 238 608 206 650 q 321 567 269 567 q 368 588 350 567 q 386 636 386 608 q 358 706 386 674 q 274 749 329 738 l 278 758 q 296 756 292 756 q 321 760 308 756 q 338 765 333 764 q 392 778 368 778 q 458 751 429 778 q 488 675 488 724 q 434 581 488 619 q 290 542 381 542 q 154 568 211 542 q 68 638 97 594 q 39 732 39 682 q 80 849 39 793 q 203 940 121 904 q 401 975 285 975 l 751 975 l 751 461 l 979 601 q 1229 847 1144 704 q 1314 1132 1314 990 q 1276 1303 1314 1226 q 1168 1424 1239 1379 q 1001 1468 1097 1468 q 893 1437 936 1468 q 829 1357 850 1406 q 808 1256 808 1308 q 837 1151 808 1194 q 911 1108 865 1108 q 975 1135 949 1108 q 1033 1215 1001 1163 q 1088 1290 1067 1267 q 1142 1314 1110 1314 q 1193 1295 1171 1314 q 1219 1243 1215 1276 l 1210 1240 q 1161 1267 1183 1267 q 1122 1251 1142 1267 q 1075 1201 1103 1235 q 980 1113 1024 1144 q 872 1082 936 1082 q 776 1104 824 1082 q 698 1169 729 1126 q 667 1274 667 1213 q 710 1391 667 1339 q 832 1472 754 1443 q 1010 1500 910 1500 q 1241 1454 1131 1500 q 1420 1323 1351 1408 q 1489 1124 1489 1238 q 1383 867 1489 986 q 1089 635 1278 749 l 1033 600 l 1182 585 l 1347 165 q 1714 -347 1492 -203 q 2172 -490 1936 -490 q 2372 -453 2292 -490 q 2489 -362 2451 -417 q 2526 -256 2526 -308 q 2503 -186 2526 -214 q 2442 -158 2481 -158 q 2359 -183 2393 -158 q 2281 -257 2325 -207 q 2199 -333 2233 -308 q 2114 -358 2164 -358 q 1988 -305 2036 -358 q 1936 -176 1940 -251 l 1947 -175 q 2042 -232 1978 -232 q 2122 -218 2078 -232 q 2242 -176 2167 -204 q 2362 -133 2313 -149 q 2450 -118 2411 -118 q 2604 -151 2544 -118 q 2664 -257 2664 -183 q 2613 -385 2664 -322 q 2443 -490 2561 -447 q 2136 -532 2325 -532 z "},"":{"ha":1242,"x_min":39,"x_max":1225,"o":"m 546 0 l 546 933 l 489 933 q 329 901 393 933 q 235 817 265 868 q 206 710 206 765 q 238 608 206 650 q 321 567 269 567 q 368 588 350 567 q 386 636 386 608 q 358 706 386 674 q 274 749 329 738 l 278 758 q 296 756 292 756 q 321 760 308 756 q 338 765 333 764 q 392 778 368 778 q 458 751 429 778 q 488 675 488 724 q 434 581 488 619 q 290 542 381 542 q 154 568 211 542 q 68 638 97 594 q 39 732 39 682 q 80 849 39 793 q 203 940 121 904 q 401 975 285 975 l 749 975 l 749 42 l 828 42 q 968 69 910 42 q 1093 146 1026 96 q 1167 194 1140 179 q 1225 208 1194 208 l 1225 0 l 546 0 z "},"":{"ha":1660,"x_min":8,"x_max":2331,"o":"m 1969 -510 q 1690 -451 1814 -510 q 1489 -277 1565 -392 q 1397 0 1413 -162 l 1321 761 l 1069 0 l 907 0 l 656 789 l 622 210 q 516 -150 608 -26 q 278 -274 424 -274 q 149 -237 211 -274 q 47 -128 86 -200 q 8 42 8 -57 q 42 185 8 126 q 126 272 75 243 q 229 300 178 300 q 339 265 293 300 q 385 165 385 229 q 376 108 385 131 q 353 58 368 86 q 328 4 333 24 l 317 4 q 268 126 314 82 q 158 171 222 171 q 67 136 101 171 q 32 33 32 101 q 87 -101 32 -51 q 224 -150 142 -150 q 387 -99 306 -150 q 524 56 468 -49 q 590 313 581 160 l 631 975 l 792 975 l 1072 106 l 1358 975 l 1503 975 l 1600 0 q 1666 -244 1613 -135 q 1799 -416 1719 -354 q 1969 -478 1879 -478 q 2125 -442 2058 -478 q 2228 -349 2192 -407 q 2264 -224 2264 -290 q 2240 -133 2264 -171 q 2176 -96 2215 -96 q 2128 -122 2144 -96 q 2090 -201 2111 -147 q 2056 -281 2072 -250 q 2010 -334 2040 -312 q 1933 -356 1979 -356 q 1849 -319 1881 -356 q 1817 -229 1817 -282 q 1824 -183 1817 -208 l 1835 -182 q 1897 -235 1858 -235 q 1954 -217 1931 -235 q 2011 -160 1978 -199 q 2081 -94 2049 -117 q 2160 -71 2113 -71 q 2238 -88 2199 -71 q 2303 -146 2276 -106 q 2331 -251 2331 -186 q 2288 -374 2331 -314 q 2162 -472 2244 -433 q 1969 -510 2079 -510 z "},"":{"ha":1411,"x_min":43,"x_max":1868,"o":"m 325 -197 q 187 -166 251 -197 q 83 -76 122 -135 q 43 61 43 -17 q 69 160 43 118 q 139 224 96 201 q 228 246 182 246 q 306 228 269 246 q 365 174 342 210 l 363 147 q 325 153 347 153 q 244 123 276 153 q 211 40 211 93 q 256 -43 211 -10 q 365 -76 301 -76 q 490 -37 431 -76 q 588 92 549 3 q 626 319 626 181 l 626 894 l 578 975 l 786 975 l 1322 131 l 1322 1050 q 1367 1259 1322 1174 q 1483 1386 1413 1344 q 1632 1428 1554 1428 q 1749 1401 1696 1428 q 1835 1322 1803 1374 q 1868 1197 1868 1269 q 1839 1091 1868 1136 q 1764 1022 1810 1046 q 1668 997 1718 997 q 1578 1020 1619 997 q 1511 1088 1536 1043 l 1514 1114 q 1551 1108 1529 1108 q 1636 1138 1603 1108 q 1669 1214 1669 1167 q 1638 1286 1669 1257 q 1563 1315 1607 1315 q 1469 1276 1514 1315 q 1394 1147 1424 1236 q 1364 919 1364 1058 l 1364 0 l 1197 0 l 668 826 l 668 224 q 619 -12 668 83 q 492 -152 569 -107 q 325 -197 414 -197 z "},"":{"ha":1339,"x_min":42,"x_max":1328,"o":"m 363 -174 q 186 -140 258 -174 q 78 -53 114 -107 q 42 60 42 1 q 67 152 42 110 q 144 220 93 194 q 268 246 196 246 q 408 209 351 246 q 465 117 465 172 q 451 79 465 94 q 411 49 438 64 q 376 24 389 35 q 356 -1 363 14 l 339 0 q 369 135 369 94 q 352 186 369 169 q 306 203 335 203 q 235 153 264 203 q 207 40 207 103 q 243 -98 207 -47 q 342 -149 279 -149 q 456 -105 403 -149 q 542 22 510 -61 q 575 215 575 106 l 575 933 l 500 933 q 340 901 404 933 q 247 817 276 868 q 218 710 218 765 q 249 608 218 650 q 333 567 281 567 q 379 588 361 567 q 397 636 397 608 q 369 706 397 674 q 285 749 342 738 l 289 758 q 307 756 303 756 q 332 760 319 756 q 349 765 344 764 q 403 778 379 778 q 469 751 440 778 q 499 675 499 724 q 446 581 499 619 q 301 542 393 542 q 165 568 222 542 q 80 638 108 594 q 51 732 51 681 q 92 849 51 793 q 215 940 133 904 q 413 975 296 975 l 964 975 q 1235 899 1142 975 q 1328 696 1328 824 q 1274 509 1328 589 q 1140 388 1221 429 q 979 347 1060 347 q 850 391 894 347 q 806 503 806 435 q 834 598 806 556 q 899 640 863 640 q 956 624 935 640 q 999 581 976 608 q 1013 562 1006 571 q 1028 551 1021 553 l 1028 543 l 1000 549 q 978 550 992 550 q 885 521 917 550 q 853 457 853 492 q 873 408 853 428 q 924 389 893 389 q 1015 418 969 389 q 1093 514 1061 447 q 1125 686 1125 581 q 1067 868 1125 803 q 874 933 1010 933 l 778 933 l 778 315 q 731 78 778 190 q 591 -104 685 -35 q 363 -174 497 -174 z "},"":{"ha":1375,"x_min":39,"x_max":1383,"o":"m 558 0 l 558 933 l 489 933 q 329 901 393 933 q 235 817 265 868 q 206 710 206 765 q 238 608 206 650 q 321 567 269 567 q 368 588 350 567 q 386 636 386 608 q 358 706 386 674 q 274 749 329 738 l 278 758 q 296 756 292 756 q 321 760 308 756 q 338 765 333 764 q 392 778 368 778 q 458 751 429 778 q 488 675 488 724 q 434 581 488 619 q 290 542 381 542 q 154 568 211 542 q 68 638 97 594 q 39 732 39 682 q 80 849 39 793 q 203 940 121 904 q 401 975 285 975 l 1024 975 q 1193 935 1124 975 q 1298 831 1263 894 q 1333 693 1333 767 q 1305 569 1333 628 q 1221 471 1276 510 q 1088 425 1165 432 q 1119 365 1092 397 q 1201 276 1146 332 q 1331 131 1285 193 q 1383 0 1378 68 l 1147 0 q 1117 97 1143 47 q 1046 219 1092 147 q 981 332 1001 292 q 954 411 960 372 l 763 411 l 763 0 l 558 0 m 925 453 q 1035 488 989 453 q 1106 579 1082 522 q 1131 699 1131 636 q 1107 814 1131 760 q 1036 901 1083 868 q 919 933 989 933 l 763 933 l 763 453 l 925 453 z "},"":{"ha":988,"x_min":-64,"x_max":1031,"o":"m 485 0 l 485 933 l 386 933 q 226 901 290 933 q 133 817 163 868 q 103 710 103 765 q 135 608 103 650 q 218 567 167 567 q 265 588 247 567 q 283 636 283 608 q 255 706 283 674 q 171 749 226 738 l 175 758 q 193 756 189 756 q 218 760 206 756 q 235 765 231 764 q 289 778 265 778 q 356 751 326 778 q 385 675 385 724 q 331 581 385 619 q 188 542 278 542 q 51 568 108 542 q -35 638 -6 594 q -64 732 -64 682 q -23 849 -64 793 q 100 940 18 904 q 299 975 182 975 l 1021 975 l 1031 794 l 1013 794 q 970 808 990 794 q 919 851 950 822 q 845 913 878 892 q 767 933 813 933 l 688 933 l 688 0 l 485 0 z "},"":{"ha":1418,"x_min":39,"x_max":1757,"o":"m 972 -21 q 756 28 850 -21 q 607 173 661 76 q 553 410 553 269 l 553 975 q 521 1124 553 1058 q 431 1227 489 1190 q 300 1264 374 1264 q 192 1240 240 1264 q 115 1175 143 1215 q 86 1086 86 1135 q 116 1001 86 1036 q 194 965 146 965 q 308 1017 263 965 q 351 1151 353 1069 l 365 1151 q 377 1108 369 1125 q 401 1065 385 1092 q 424 1027 417 1044 q 431 986 431 1010 q 408 913 431 949 q 344 856 386 878 q 246 833 301 833 q 93 896 147 833 q 39 1049 39 958 q 85 1197 39 1132 q 208 1297 131 1261 q 379 1333 286 1333 q 565 1294 479 1333 q 704 1174 651 1256 q 757 975 757 1093 l 757 265 q 816 82 757 143 q 972 21 875 21 q 1126 82 1068 21 q 1183 265 1183 143 l 1183 975 q 1232 1130 1183 1065 q 1356 1227 1281 1194 q 1514 1260 1432 1260 q 1688 1209 1618 1260 q 1757 1075 1757 1158 q 1713 962 1757 1010 q 1592 914 1668 914 q 1501 947 1536 914 q 1465 1029 1465 979 q 1470 1063 1465 1047 q 1485 1099 1475 1078 q 1503 1154 1501 1132 l 1510 1154 q 1508 1131 1508 1146 q 1533 1058 1508 1085 q 1594 1032 1558 1032 q 1655 1058 1631 1033 q 1679 1119 1679 1082 q 1648 1195 1679 1163 q 1564 1228 1617 1228 q 1479 1201 1519 1228 q 1413 1118 1439 1175 q 1386 975 1386 1061 l 1386 410 q 1333 173 1386 269 q 1187 28 1281 76 q 972 -21 1093 -21 z "},"":{"ha":1275,"x_min":-100,"x_max":2243,"o":"m 1850 -506 q 1490 -386 1656 -506 q 1165 -39 1324 -267 l 818 421 l 714 303 q 557 0 560 131 l 390 0 l 794 456 l 549 792 q 413 922 482 883 q 267 961 343 961 q 151 923 197 961 q 84 824 106 885 q 63 699 63 764 q 89 574 63 624 q 165 525 115 525 q 224 555 206 525 q 261 646 243 585 q 302 742 281 710 q 369 775 324 775 q 440 747 414 775 q 476 683 467 718 l 465 682 q 428 696 446 696 q 391 680 408 696 q 350 629 374 664 q 294 563 319 589 q 231 518 269 538 q 139 499 192 499 q 10 528 64 499 q -72 605 -44 557 q -100 711 -100 653 q -58 849 -100 782 q 67 957 -17 915 q 267 999 150 999 q 539 953 400 999 q 774 771 678 908 l 935 550 l 1051 678 q 1160 813 1126 761 q 1200 895 1193 864 q 1207 975 1207 926 l 1375 975 l 958 518 l 1368 -39 q 1642 -351 1517 -239 q 1888 -462 1767 -462 q 2001 -431 1951 -462 q 2078 -349 2051 -399 q 2106 -247 2106 -299 q 2082 -172 2106 -203 q 2017 -142 2058 -142 q 1960 -160 1982 -142 q 1911 -217 1938 -179 q 1845 -287 1876 -262 q 1760 -311 1814 -311 q 1667 -275 1704 -311 q 1629 -186 1629 -239 q 1636 -143 1629 -168 l 1647 -142 q 1725 -182 1686 -182 q 1763 -175 1743 -182 q 1814 -154 1782 -168 q 1906 -118 1864 -131 q 2003 -106 1949 -106 q 2178 -144 2113 -106 q 2243 -269 2243 -183 q 2203 -381 2243 -328 q 2076 -470 2164 -435 q 1850 -506 1988 -506 z "},"":{"ha":1069,"x_min":-108,"x_max":1144,"o":"m 403 -332 q 204 -295 286 -332 q 81 -200 122 -258 q 40 -78 40 -142 q 71 27 40 -21 q 160 104 101 75 q 301 133 219 133 q 399 119 347 133 q 489 74 451 106 q 526 -7 526 43 q 510 -65 526 -44 q 463 -110 494 -86 q 443 -125 458 -114 q 419 -150 428 -136 l 408 -142 q 413 -86 413 -112 q 396 12 413 -31 q 353 77 379 54 q 299 100 326 100 q 226 60 251 100 q 200 -43 200 19 q 226 -183 200 -124 q 296 -274 251 -243 q 396 -306 340 -306 q 513 -271 461 -306 q 594 -178 565 -236 q 622 -51 622 -119 l 622 431 l 321 964 l 318 951 q 169 913 228 950 q 85 820 111 875 q 58 710 58 765 q 90 608 58 650 q 174 567 122 567 q 221 588 203 567 q 239 636 239 608 q 210 706 239 674 q 126 749 182 738 l 131 758 q 149 756 144 756 q 174 760 161 756 q 190 765 186 764 q 244 778 221 778 q 311 751 282 778 q 340 675 340 724 q 287 581 340 619 q 143 542 233 542 q 7 568 64 542 q -79 638 -50 594 q -108 732 -108 682 q -67 849 -108 793 q 56 940 -26 904 q 254 975 138 975 l 514 975 l 807 469 l 886 603 q 934 717 921 661 q 947 832 947 774 q 944 910 947 863 q 942 941 944 921 q 942 975 940 961 l 1144 975 l 825 431 l 825 0 q 781 -159 825 -83 q 641 -283 736 -235 q 403 -332 546 -332 z "},"":{"ha":1188,"x_min":1,"x_max":1443,"o":"m 1226 -478 q 1142 -453 1176 -478 q 1064 -379 1107 -428 q 1004 -322 1028 -340 q 951 -303 981 -303 q 900 -318 926 -303 l 890 -318 q 922 -251 890 -282 q 1006 -219 953 -219 q 1089 -240 1058 -219 q 1133 -290 1119 -261 q 1161 -365 1147 -319 q 1190 -437 1175 -414 q 1236 -460 1206 -460 q 1297 -429 1272 -460 q 1322 -358 1322 -399 q 1293 -285 1322 -318 q 1203 -240 1264 -253 q 1012 -85 1163 -151 q 556 -18 861 -18 l 253 -17 l 951 943 q 808 963 874 946 q 658 1011 742 981 q 523 1053 575 1040 q 413 1067 471 1067 q 279 1019 333 1067 q 199 900 225 972 q 172 753 172 828 q 199 625 172 676 q 271 574 225 574 q 321 600 304 574 q 356 681 338 626 q 385 756 372 729 q 424 803 399 783 q 492 824 450 824 q 574 794 539 824 q 614 707 608 764 l 604 704 q 554 718 578 718 q 492 699 519 718 q 424 639 464 679 q 347 572 381 594 q 269 549 314 549 q 123 580 183 549 q 32 663 63 611 q 1 776 1 714 q 50 933 1 857 q 193 1058 99 1010 q 418 1107 288 1107 q 581 1091 511 1107 q 750 1043 651 1075 q 929 991 850 1008 q 1115 974 1008 974 q 1178 975 1156 974 l 493 26 l 592 26 l 788 28 q 1122 9 983 28 q 1352 -73 1261 -10 q 1443 -260 1443 -136 q 1403 -388 1443 -339 q 1313 -458 1364 -437 q 1226 -478 1263 -478 z "},"":{"ha":938,"x_min":39,"x_max":1461,"o":"m 1146 -465 q 901 -407 1011 -465 q 728 -242 792 -349 q 667 0 665 -136 l 667 521 l 243 521 l 243 0 l 39 0 l 39 975 l 243 975 l 243 560 l 667 560 l 667 975 l 871 975 l 871 0 q 924 -317 872 -204 q 1111 -431 976 -431 q 1224 -390 1172 -431 q 1304 -292 1275 -350 q 1333 -186 1333 -233 q 1318 -135 1333 -154 q 1272 -117 1303 -117 q 1224 -138 1240 -117 q 1192 -203 1208 -160 q 1147 -285 1171 -257 q 1074 -312 1124 -312 q 1017 -293 1039 -312 q 986 -247 994 -274 q 981 -199 978 -221 l 990 -199 q 1029 -211 1011 -211 q 1067 -199 1049 -211 q 1113 -164 1086 -187 q 1186 -110 1154 -129 q 1263 -92 1218 -92 q 1410 -133 1360 -92 q 1461 -236 1461 -174 q 1423 -343 1461 -290 q 1313 -431 1385 -396 q 1146 -465 1240 -465 z "},"":{"ha":794,"x_min":39,"x_max":1346,"o":"m 1031 -465 q 786 -407 896 -465 q 613 -242 676 -349 q 551 0 550 -136 l 551 933 l 489 933 q 329 901 393 933 q 235 817 265 868 q 206 710 206 765 q 238 608 206 650 q 321 567 269 567 q 368 588 350 567 q 386 636 386 608 q 358 706 386 674 q 274 749 329 738 l 278 758 q 296 756 292 756 q 321 760 308 756 q 338 765 333 764 q 392 778 368 778 q 458 751 429 778 q 488 675 488 724 q 434 581 488 619 q 290 542 381 542 q 154 568 211 542 q 68 638 97 594 q 39 732 39 682 q 80 849 39 793 q 203 940 121 904 q 401 975 285 975 l 756 975 l 756 0 q 809 -317 757 -204 q 996 -431 861 -431 q 1108 -390 1057 -431 q 1189 -292 1160 -350 q 1218 -186 1218 -233 q 1203 -135 1218 -154 q 1157 -117 1188 -117 q 1109 -138 1125 -117 q 1076 -203 1093 -160 q 1032 -285 1056 -257 q 958 -312 1008 -312 q 901 -293 924 -312 q 871 -247 879 -274 q 865 -199 863 -221 l 875 -199 q 914 -211 896 -211 q 952 -199 933 -211 q 997 -164 971 -187 q 1071 -110 1039 -129 q 1147 -92 1103 -92 q 1295 -133 1244 -92 q 1346 -236 1346 -174 q 1308 -343 1346 -290 q 1197 -431 1269 -396 q 1031 -465 1125 -465 z "},"":{"ha":1631,"x_min":8,"x_max":2403,"o":"m 1985 -494 q 1714 -437 1839 -494 q 1506 -260 1589 -379 q 1407 35 1424 -142 l 1339 733 l 1096 0 l 922 0 l 681 758 l 651 260 q 539 -141 635 -8 q 293 -274 443 -274 q 151 -236 217 -274 q 47 -131 86 -199 q 8 25 8 -62 q 38 153 8 99 q 117 237 68 208 q 224 265 167 265 q 327 233 283 265 q 371 143 371 200 q 360 69 371 108 q 349 4 349 31 l 331 4 q 282 127 328 83 q 174 171 236 171 q 83 140 115 171 q 51 64 51 110 q 79 -22 51 21 q 160 -91 107 -64 q 288 -118 214 -118 q 433 -71 363 -118 q 551 76 503 -24 q 608 321 600 175 l 643 933 l 576 933 q 417 901 481 933 q 323 817 353 868 q 293 710 293 765 q 326 613 293 650 q 406 575 358 575 q 454 592 435 575 q 474 636 474 610 q 445 706 474 674 q 361 749 417 738 l 365 758 q 383 756 379 756 q 408 760 396 756 q 425 765 421 764 q 479 778 456 778 q 546 751 517 778 q 575 675 575 724 q 522 581 575 619 q 378 542 468 542 q 242 568 299 542 q 156 638 185 594 q 126 732 126 682 q 167 849 126 793 q 290 940 208 904 q 489 975 372 975 l 806 975 l 1086 106 l 1372 975 l 1518 975 l 1614 0 q 1680 -237 1626 -135 q 1813 -397 1733 -340 q 1985 -453 1893 -453 q 2131 -412 2067 -453 q 2232 -308 2196 -371 q 2268 -185 2268 -246 q 2251 -121 2268 -146 q 2206 -96 2235 -96 q 2157 -118 2175 -96 q 2114 -192 2139 -140 q 2050 -292 2082 -257 q 1958 -328 2018 -328 q 1865 -291 1899 -328 q 1832 -201 1832 -254 q 1839 -156 1832 -181 l 1850 -154 q 1918 -186 1881 -186 q 1963 -175 1939 -186 q 2024 -142 1986 -164 q 2123 -90 2079 -108 q 2219 -71 2167 -71 q 2296 -83 2254 -71 q 2370 -131 2338 -96 q 2403 -228 2403 -167 q 2347 -361 2403 -300 q 2194 -458 2290 -422 q 1985 -494 2099 -494 z "},"":{"ha":1439,"x_min":71,"x_max":1894,"o":"m 1660 1456 q 1777 1428 1724 1456 q 1863 1349 1831 1401 q 1894 1225 1894 1297 q 1866 1119 1894 1164 q 1791 1049 1838 1074 q 1694 1025 1744 1025 q 1605 1048 1646 1025 q 1539 1115 1564 1071 l 1540 1142 q 1578 1136 1557 1136 q 1663 1165 1629 1136 q 1696 1242 1696 1194 q 1665 1314 1696 1285 q 1590 1343 1633 1343 q 1496 1303 1542 1343 q 1420 1175 1450 1264 q 1390 947 1390 1086 l 1390 0 l 1224 0 l 696 826 l 696 224 q 647 -12 696 83 q 519 -152 597 -107 q 353 -197 440 -197 q 214 -166 279 -197 q 110 -76 149 -135 q 71 61 71 -17 q 97 160 71 118 q 167 224 124 201 q 256 246 210 246 q 333 228 297 246 q 392 174 369 210 l 390 147 q 353 153 375 153 q 271 123 303 153 q 239 40 239 93 q 284 -43 239 -10 q 393 -76 329 -76 q 517 -37 458 -76 q 615 92 576 3 q 654 319 654 181 l 654 894 l 631 933 l 585 933 q 425 901 489 933 q 331 817 361 868 q 301 710 301 765 q 333 608 301 650 q 417 567 365 567 q 463 588 444 567 q 481 636 481 608 q 453 706 481 674 q 368 749 425 738 l 372 758 q 390 756 386 756 q 415 760 403 756 q 432 765 428 764 q 486 778 463 778 q 553 751 524 778 q 583 675 583 724 q 530 581 583 619 q 385 542 476 542 q 249 568 306 542 q 163 638 192 594 q 135 732 135 681 q 176 849 135 793 q 299 940 217 904 q 496 975 381 975 l 814 975 l 1349 131 l 1349 1078 q 1394 1287 1349 1201 q 1510 1414 1439 1372 q 1660 1456 1582 1456 z "},"":{"ha":1267,"x_min":39,"x_max":1256,"o":"m 310 -254 q 170 -224 232 -254 q 74 -138 108 -193 q 39 -12 39 -83 q 80 124 39 67 q 204 182 121 182 q 320 155 279 182 q 361 86 361 128 q 354 47 361 63 q 333 11 347 31 q 312 -24 319 -8 q 303 -61 304 -39 l 296 -61 q 297 -39 297 -53 q 272 45 297 14 q 201 76 246 76 q 127 42 158 76 q 96 -46 96 7 q 140 -151 96 -107 q 254 -196 185 -196 q 378 -153 322 -196 q 467 -22 433 -111 q 501 206 501 68 l 501 975 l 892 975 q 1163 899 1069 975 q 1256 696 1256 824 q 1202 509 1256 589 q 1067 388 1149 429 q 907 347 986 347 q 781 386 824 347 q 739 486 739 425 q 772 583 739 540 q 853 625 804 625 q 903 610 885 625 q 938 569 921 594 q 964 542 953 544 l 964 533 q 932 536 942 536 q 845 511 881 536 q 810 449 810 486 q 830 406 810 422 q 883 389 850 389 q 960 418 921 389 q 1025 514 999 447 q 1051 686 1051 581 q 995 872 1051 811 q 800 933 939 933 l 706 933 l 706 211 q 649 -46 706 60 q 501 -203 592 -151 q 310 -254 410 -254 z "},"":{"ha":1375,"x_min":39,"x_max":2346,"o":"m 1818 -469 q 1217 -230 1433 -469 q 919 411 1001 10 l 763 411 l 763 0 l 558 0 l 558 933 l 489 933 q 329 901 393 933 q 235 817 265 868 q 206 710 206 765 q 238 608 206 650 q 321 567 269 567 q 368 588 350 567 q 386 636 386 608 q 358 706 386 674 q 274 749 329 738 l 278 758 q 296 756 292 756 q 321 760 308 756 q 338 765 333 764 q 392 778 368 778 q 458 751 429 778 q 488 675 488 724 q 434 581 488 619 q 290 542 381 542 q 154 568 211 542 q 68 638 97 594 q 39 732 39 682 q 80 849 39 793 q 203 940 121 904 q 401 975 285 975 l 1024 975 q 1193 935 1124 975 q 1298 831 1263 894 q 1333 693 1333 767 q 1272 515 1333 592 q 1096 417 1211 439 q 1261 -17 1151 175 q 1523 -318 1371 -208 q 1854 -428 1675 -428 q 2053 -392 1974 -428 q 2171 -301 2133 -356 q 2208 -194 2208 -247 q 2185 -124 2208 -151 q 2124 -96 2163 -96 q 2041 -120 2075 -96 q 1963 -196 2007 -144 q 1881 -272 1915 -247 q 1796 -297 1846 -297 q 1670 -243 1718 -297 q 1618 -114 1622 -189 l 1629 -112 q 1724 -169 1658 -169 q 1804 -156 1760 -169 q 1924 -114 1849 -142 q 2044 -71 1994 -86 q 2132 -56 2093 -56 q 2286 -88 2226 -56 q 2346 -194 2346 -121 q 2294 -322 2346 -260 q 2125 -427 2243 -385 q 1818 -469 2007 -469 m 908 453 q 1031 488 981 453 q 1106 578 1081 522 q 1131 699 1131 635 q 1107 814 1131 760 q 1036 901 1083 868 q 919 933 989 933 l 763 933 l 763 453 l 908 453 z "},"":{"ha":1194,"x_min":1,"x_max":1597,"o":"m 1383 -393 q 1244 -357 1313 -393 q 1069 -244 1176 -321 q 881 -120 965 -169 q 685 -35 797 -71 q 442 0 574 0 l 269 0 l 956 943 q 809 963 876 944 q 651 1013 742 981 q 522 1053 572 1040 q 421 1067 472 1067 q 275 1019 331 1067 q 196 898 219 971 q 172 746 172 825 q 201 625 172 672 q 281 578 231 578 q 332 605 314 578 q 368 685 350 632 q 399 758 385 731 q 440 806 414 786 q 506 825 465 825 q 580 795 549 825 q 622 708 611 765 l 613 706 q 558 719 585 719 q 501 701 526 719 q 439 642 476 682 q 363 572 397 596 q 279 547 328 547 q 125 578 188 547 q 32 663 63 610 q 1 779 1 715 q 50 935 1 860 q 195 1059 99 1011 q 426 1107 292 1107 q 594 1090 521 1107 q 761 1042 667 1074 q 940 991 863 1008 q 1122 974 1017 974 q 1185 975 1163 974 l 513 46 q 784 15 656 43 q 1009 -51 913 -14 q 1226 -142 1106 -87 q 1378 -204 1329 -186 q 1467 -222 1426 -222 q 1545 -199 1521 -222 q 1574 -122 1569 -175 l 1597 -122 q 1532 -320 1585 -247 q 1383 -393 1479 -393 z "},"":{"ha":1267,"x_min":39,"x_max":1256,"o":"m 892 975 q 1163 899 1069 975 q 1256 696 1256 824 q 1202 509 1256 589 q 1067 388 1149 429 q 907 347 986 347 q 781 386 824 347 q 739 486 739 425 q 772 583 739 540 q 853 625 804 625 q 903 610 885 625 q 938 569 921 594 q 964 542 953 544 l 964 533 q 932 536 942 536 q 845 511 881 536 q 810 449 810 486 q 830 406 810 422 q 883 389 850 389 q 960 418 921 389 q 1025 514 999 447 q 1051 686 1051 581 q 995 872 1051 811 q 800 933 939 933 l 706 933 l 706 211 q 649 -46 706 60 q 501 -203 592 -151 q 310 -254 410 -254 q 170 -224 232 -254 q 74 -138 108 -193 q 39 -12 39 -83 q 80 124 39 67 q 204 182 121 182 q 320 155 279 182 q 361 86 361 128 q 354 47 361 63 q 333 11 347 31 q 312 -24 319 -8 q 303 -61 304 -39 l 296 -61 q 297 -39 297 -53 q 272 45 297 14 q 201 76 246 76 q 127 42 158 76 q 96 -46 96 7 q 140 -151 96 -107 q 254 -196 185 -196 q 378 -153 322 -196 q 467 -22 433 -111 q 501 206 501 68 l 501 943 l 465 943 q 343 918 392 943 q 272 854 294 893 q 250 772 250 815 q 274 695 250 726 q 338 664 299 664 q 374 679 360 664 q 388 715 388 694 q 366 769 388 744 q 301 801 344 793 l 306 810 q 319 807 317 807 q 351 815 329 807 q 392 825 378 825 q 443 804 421 825 q 465 746 465 783 q 424 674 465 703 q 314 644 383 644 q 173 687 224 644 q 122 789 122 729 q 153 878 122 836 q 247 948 185 921 q 399 975 310 975 l 892 975 z "},"a":{"ha":842,"x_min":39,"x_max":803,"o":"m 517 825 q 719 768 636 825 q 803 578 803 711 l 803 0 l 599 0 l 599 107 q 483 12 553 47 q 340 -24 414 -24 q 193 4 263 -24 q 81 85 124 32 q 39 211 39 139 q 77 340 39 285 q 171 435 115 396 q 321 529 226 475 q 483 635 424 589 q 574 744 543 682 q 492 793 543 793 q 411 768 447 793 q 324 692 375 743 q 235 616 271 640 q 157 592 200 592 l 157 794 q 219 788 183 788 q 357 806 272 788 q 517 825 457 825 m 599 633 q 589 708 599 678 q 519 612 560 653 q 414 519 478 571 q 321 436 354 471 q 265 353 288 401 q 243 243 243 306 q 290 94 243 147 q 407 42 336 42 q 511 71 460 42 q 599 156 563 100 l 599 633 z "},"á":{"ha":842,"x_min":39,"x_max":803,"o":"m 517 825 q 719 768 636 825 q 803 578 803 711 l 803 0 l 599 0 l 599 107 q 483 12 553 47 q 340 -24 414 -24 q 193 4 263 -24 q 81 85 124 32 q 39 211 39 139 q 77 340 39 285 q 171 435 115 396 q 321 529 226 475 q 483 635 424 589 q 574 744 543 682 q 492 793 543 793 q 411 768 447 793 q 324 692 375 743 q 235 616 271 640 q 157 592 200 592 l 157 794 q 219 788 183 788 q 357 806 272 788 q 517 825 457 825 m 599 633 q 589 708 599 678 q 519 612 560 653 q 414 519 478 571 q 321 436 354 471 q 265 353 288 401 q 243 243 243 306 q 290 94 243 147 q 407 42 336 42 q 511 71 460 42 q 599 156 563 100 l 599 633 m 169 925 q 205 974 182 950 q 264 1031 228 999 q 341 1110 315 1078 q 368 1178 367 1142 l 532 1178 q 506 1099 532 1132 q 444 1046 481 1067 q 346 997 407 1025 q 254 954 289 974 q 201 908 219 935 l 169 925 z "},"ă":{"ha":842,"x_min":39,"x_max":803,"o":"m 517 825 q 719 768 636 825 q 803 578 803 711 l 803 0 l 599 0 l 599 107 q 483 12 553 47 q 340 -24 414 -24 q 193 4 263 -24 q 81 85 124 32 q 39 211 39 139 q 77 340 39 285 q 171 435 115 396 q 321 529 226 475 q 483 635 424 589 q 574 744 543 682 q 492 793 543 793 q 411 768 447 793 q 324 692 375 743 q 235 616 271 640 q 157 592 200 592 l 157 794 q 219 788 183 788 q 357 806 272 788 q 517 825 457 825 m 599 633 q 589 708 599 678 q 519 612 560 653 q 414 519 478 571 q 321 436 354 471 q 265 353 288 401 q 243 243 243 306 q 290 94 243 147 q 407 42 336 42 q 511 71 460 42 q 599 156 563 100 l 599 633 m 421 944 q 295 980 344 944 q 222 1065 246 1015 q 194 1164 199 1115 l 233 1164 q 421 1068 275 1068 q 608 1164 565 1068 l 646 1164 q 618 1065 642 1115 q 545 980 594 1015 q 421 944 496 944 z "},"â":{"ha":842,"x_min":39,"x_max":803,"o":"m 517 825 q 719 768 636 825 q 803 578 803 711 l 803 0 l 599 0 l 599 107 q 483 12 553 47 q 340 -24 414 -24 q 193 4 263 -24 q 81 85 124 32 q 39 211 39 139 q 77 340 39 285 q 171 435 115 396 q 321 529 226 475 q 483 635 424 589 q 574 744 543 682 q 492 793 543 793 q 411 768 447 793 q 324 692 375 743 q 235 616 271 640 q 157 592 200 592 l 157 794 q 219 788 183 788 q 357 806 272 788 q 517 825 457 825 m 599 633 q 589 708 599 678 q 519 612 560 653 q 414 519 478 571 q 321 436 354 471 q 265 353 288 401 q 243 243 243 306 q 290 94 243 147 q 407 42 336 42 q 511 71 460 42 q 599 156 563 100 l 599 633 m 517 925 q 500 993 517 957 q 451 1079 483 1029 q 419 1133 429 1115 l 388 1078 q 340 989 356 1022 q 325 925 325 956 l 164 925 q 192 988 164 961 q 275 1049 219 1015 q 362 1112 332 1085 q 399 1178 392 1139 l 440 1178 q 478 1112 447 1139 q 567 1049 508 1085 q 651 988 622 1014 q 679 925 679 961 l 517 925 z "},"ä":{"ha":842,"x_min":39,"x_max":803,"o":"m 517 825 q 719 768 636 825 q 803 578 803 711 l 803 0 l 599 0 l 599 107 q 483 12 553 47 q 340 -24 414 -24 q 193 4 263 -24 q 81 85 124 32 q 39 211 39 139 q 77 340 39 285 q 171 435 115 396 q 321 529 226 475 q 483 635 424 589 q 574 744 543 682 q 492 793 543 793 q 411 768 447 793 q 324 692 375 743 q 235 616 271 640 q 157 592 200 592 l 157 794 q 219 788 183 788 q 357 806 272 788 q 517 825 457 825 m 599 633 q 589 708 599 678 q 519 612 560 653 q 414 519 478 571 q 321 436 354 471 q 265 353 288 401 q 243 243 243 306 q 290 94 243 147 q 407 42 336 42 q 511 71 460 42 q 599 156 563 100 l 599 633 m 326 975 q 278 994 299 975 q 258 1042 258 1014 q 278 1090 258 1071 q 326 1110 299 1110 q 374 1090 354 1110 q 393 1042 393 1071 q 374 994 393 1014 q 326 975 354 975 m 517 975 q 469 994 489 975 q 449 1042 449 1014 q 469 1090 449 1071 q 517 1110 489 1110 q 564 1090 544 1110 q 583 1042 583 1071 q 564 994 583 1014 q 517 975 544 975 z "},"à":{"ha":842,"x_min":39,"x_max":803,"o":"m 517 825 q 719 768 636 825 q 803 578 803 711 l 803 0 l 599 0 l 599 107 q 483 12 553 47 q 340 -24 414 -24 q 193 4 263 -24 q 81 85 124 32 q 39 211 39 139 q 77 340 39 285 q 171 435 115 396 q 321 529 226 475 q 483 635 424 589 q 574 744 543 682 q 492 793 543 793 q 411 768 447 793 q 324 692 375 743 q 235 616 271 640 q 157 592 200 592 l 157 794 q 219 788 183 788 q 357 806 272 788 q 517 825 457 825 m 599 633 q 589 708 599 678 q 519 612 560 653 q 414 519 478 571 q 321 436 354 471 q 265 353 288 401 q 243 243 243 306 q 290 94 243 147 q 407 42 336 42 q 511 71 460 42 q 599 156 563 100 l 599 633 m 575 908 q 522 954 557 935 q 431 997 488 974 q 333 1046 369 1025 q 270 1099 296 1067 q 244 1178 244 1132 l 408 1178 q 435 1110 410 1142 q 513 1031 461 1078 q 572 974 549 999 q 607 925 594 950 l 575 908 z "},"ā":{"ha":842,"x_min":39,"x_max":803,"o":"m 517 825 q 719 768 636 825 q 803 578 803 711 l 803 0 l 599 0 l 599 107 q 483 12 553 47 q 340 -24 414 -24 q 193 4 263 -24 q 81 85 124 32 q 39 211 39 139 q 77 340 39 285 q 171 435 115 396 q 321 529 226 475 q 483 635 424 589 q 574 744 543 682 q 492 793 543 793 q 411 768 447 793 q 324 692 375 743 q 235 616 271 640 q 157 592 200 592 l 157 794 q 219 788 183 788 q 357 806 272 788 q 517 825 457 825 m 599 633 q 589 708 599 678 q 519 612 560 653 q 414 519 478 571 q 321 436 354 471 q 265 353 288 401 q 243 243 243 306 q 290 94 243 147 q 407 42 336 42 q 511 71 460 42 q 599 156 563 100 l 599 633 m 653 1003 l 192 1003 l 192 1044 l 653 1044 l 653 1003 z "},"ą":{"ha":842,"x_min":39,"x_max":803,"o":"m 803 0 l 758 0 l 758 -1 q 639 -50 678 -10 q 600 -146 600 -90 q 624 -212 600 -187 q 685 -236 649 -236 q 751 -214 719 -236 l 758 -278 q 607 -333 686 -333 q 497 -294 542 -333 q 453 -185 453 -254 q 494 -74 453 -126 q 613 0 535 -22 l 599 0 l 599 107 q 483 12 553 47 q 340 -24 414 -24 q 193 4 263 -24 q 81 85 124 32 q 39 211 39 139 q 77 340 39 285 q 171 435 115 396 q 321 529 226 475 q 483 635 424 589 q 574 744 543 682 q 492 793 543 793 q 411 768 447 793 q 324 692 375 743 q 235 616 271 640 q 157 592 200 592 l 157 794 q 219 788 183 788 q 357 806 272 788 q 517 825 457 825 q 719 768 636 825 q 803 578 803 711 l 803 0 m 599 633 q 589 708 599 678 q 519 612 560 653 q 414 519 478 571 q 321 436 354 471 q 265 353 288 401 q 243 243 243 306 q 290 94 243 147 q 407 42 336 42 q 511 71 460 42 q 599 156 563 100 l 599 633 z "},"å":{"ha":842,"x_min":39,"x_max":803,"o":"m 517 825 q 719 768 636 825 q 803 578 803 711 l 803 0 l 599 0 l 599 107 q 483 12 553 47 q 340 -24 414 -24 q 193 4 263 -24 q 81 85 124 32 q 39 211 39 139 q 77 340 39 285 q 171 435 115 396 q 321 529 226 475 q 483 635 424 589 q 574 744 543 682 q 492 793 543 793 q 411 768 447 793 q 324 692 375 743 q 235 616 271 640 q 157 592 200 592 l 157 794 q 219 788 183 788 q 357 806 272 788 q 517 825 457 825 m 599 633 q 589 708 599 678 q 519 612 560 653 q 414 519 478 571 q 321 436 354 471 q 265 353 288 401 q 243 243 243 306 q 290 94 243 147 q 407 42 336 42 q 511 71 460 42 q 599 156 563 100 l 599 633 m 418 915 q 328 952 365 915 q 292 1042 292 989 q 328 1131 292 1094 q 418 1168 365 1168 q 508 1131 471 1168 q 544 1042 544 1094 q 508 952 544 989 q 418 915 471 915 m 418 986 q 458 1002 442 986 q 474 1042 474 1018 q 458 1081 474 1065 q 418 1097 442 1097 q 378 1081 394 1097 q 363 1042 363 1065 q 378 1002 363 1018 q 418 986 394 986 z "},"ã":{"ha":842,"x_min":39,"x_max":803,"o":"m 517 825 q 719 768 636 825 q 803 578 803 711 l 803 0 l 599 0 l 599 107 q 483 12 553 47 q 340 -24 414 -24 q 193 4 263 -24 q 81 85 124 32 q 39 211 39 139 q 77 340 39 285 q 171 435 115 396 q 321 529 226 475 q 483 635 424 589 q 574 744 543 682 q 492 793 543 793 q 411 768 447 793 q 324 692 375 743 q 235 616 271 640 q 157 592 200 592 l 157 794 q 219 788 183 788 q 357 806 272 788 q 517 825 457 825 m 599 633 q 589 708 599 678 q 519 612 560 653 q 414 519 478 571 q 321 436 354 471 q 265 353 288 401 q 243 243 243 306 q 290 94 243 147 q 407 42 336 42 q 511 71 460 42 q 599 156 563 100 l 599 633 m 547 971 q 477 983 515 971 q 382 1017 439 994 q 303 1045 333 1036 q 253 1054 274 1054 q 203 1000 203 1054 l 182 1000 q 218 1113 182 1074 q 299 1151 254 1151 q 370 1139 331 1151 q 465 1103 410 1126 q 505 1088 474 1100 q 558 1070 536 1076 q 596 1064 581 1064 q 626 1075 615 1064 q 636 1113 636 1086 l 658 1113 q 626 1006 658 1040 q 547 971 593 971 z "},"æ":{"ha":1464,"x_min":39,"x_max":1433,"o":"m 1433 103 q 1329 60 1401 94 q 1189 0 1253 21 q 1044 -21 1125 -21 q 819 35 928 -21 q 650 200 710 92 q 340 -24 535 -24 q 192 4 261 -24 q 81 85 124 32 q 39 211 39 139 q 73 333 39 281 q 157 420 107 385 q 296 506 207 456 q 421 581 372 549 q 513 658 469 613 q 581 760 557 703 q 492 801 558 801 q 397 769 432 801 q 322 675 361 738 q 265 601 289 625 q 203 576 240 576 l 203 779 q 294 794 224 779 q 408 817 356 808 q 517 825 461 825 q 753 738 683 825 q 1074 825 881 825 q 1265 794 1186 825 q 1385 712 1344 763 q 1425 601 1425 661 q 1372 460 1425 517 q 1242 377 1319 403 q 1086 354 1164 351 l 1046 356 q 938 336 978 356 q 872 267 897 317 l 850 332 q 893 378 863 367 q 986 390 924 390 l 1063 389 q 1181 446 1142 389 q 1221 601 1221 503 q 1182 733 1221 683 q 1063 782 1143 782 q 934 737 993 782 q 840 609 875 692 q 804 419 804 526 q 852 210 804 301 q 974 71 900 119 q 1118 22 1047 22 q 1189 41 1157 22 q 1244 87 1221 60 q 1301 161 1267 114 q 1361 239 1336 210 q 1418 288 1386 268 l 1433 103 m 243 243 q 290 108 243 156 q 404 60 336 60 q 535 107 472 60 q 632 240 599 154 q 599 419 599 322 l 599 661 q 593 729 599 703 q 520 622 563 668 q 413 519 478 576 q 322 434 356 469 q 265 351 288 399 q 243 243 243 304 z "},"b":{"ha":890,"x_min":60,"x_max":863,"o":"m 493 -24 q 416 -13 453 -24 q 326 17 379 -3 q 249 43 281 35 q 186 51 218 51 q 129 40 154 51 q 76 0 104 28 l 60 0 l 60 975 l 264 975 l 264 578 l 268 578 q 395 765 325 704 q 554 826 465 826 q 707 777 636 826 q 820 637 778 728 q 863 426 863 546 q 820 194 863 296 q 694 34 778 92 q 493 -24 611 -24 m 450 28 q 606 130 554 28 q 658 426 658 232 q 616 663 658 585 q 494 742 574 742 q 372 674 432 742 q 264 476 313 606 l 264 93 q 450 28 369 28 z "},"c":{"ha":768,"x_min":28,"x_max":742,"o":"m 447 -22 q 239 33 335 -22 q 85 190 143 89 q 28 418 28 290 q 82 656 28 565 q 220 785 136 747 q 404 824 304 824 q 478 817 444 824 q 556 796 513 810 q 622 778 594 783 q 682 772 649 772 q 735 776 706 772 l 735 578 l 710 578 q 650 600 672 578 q 600 668 628 622 q 535 753 568 724 q 442 782 501 782 q 342 737 389 782 q 265 608 294 692 q 236 418 236 525 q 265 219 236 310 q 347 74 294 128 q 467 19 400 19 q 550 49 517 19 q 625 135 583 78 q 685 206 661 183 q 742 228 708 228 l 742 26 q 706 32 726 32 q 645 22 678 32 q 607 10 613 11 q 525 -14 561 -6 q 447 -22 489 -22 z "},"ć":{"ha":768,"x_min":28,"x_max":742,"o":"m 447 -22 q 239 33 335 -22 q 85 190 143 89 q 28 418 28 290 q 82 656 28 565 q 220 785 136 747 q 404 824 304 824 q 478 817 444 824 q 556 796 513 810 q 622 778 594 783 q 682 772 649 772 q 735 776 706 772 l 735 578 l 710 578 q 650 600 672 578 q 600 668 628 622 q 535 753 568 724 q 442 782 501 782 q 342 737 389 782 q 265 608 294 692 q 236 418 236 525 q 265 219 236 310 q 347 74 294 128 q 467 19 400 19 q 550 49 517 19 q 625 135 583 78 q 685 206 661 183 q 742 228 708 228 l 742 26 q 706 32 726 32 q 645 22 678 32 q 607 10 613 11 q 525 -14 561 -6 q 447 -22 489 -22 m 132 925 q 167 974 144 950 q 226 1031 190 999 q 303 1110 278 1078 q 331 1178 329 1142 l 494 1178 q 469 1099 494 1132 q 406 1046 443 1067 q 308 997 369 1025 q 217 954 251 974 q 164 908 182 935 l 132 925 z "},"č":{"ha":768,"x_min":28,"x_max":742,"o":"m 447 -22 q 239 33 335 -22 q 85 190 143 89 q 28 418 28 290 q 82 656 28 565 q 220 785 136 747 q 404 824 304 824 q 478 817 444 824 q 556 796 513 810 q 622 778 594 783 q 682 772 649 772 q 735 776 706 772 l 735 578 l 710 578 q 650 600 672 578 q 600 668 628 622 q 535 753 568 724 q 442 782 501 782 q 342 737 389 782 q 265 608 294 692 q 236 418 236 525 q 265 219 236 310 q 347 74 294 128 q 467 19 400 19 q 550 49 517 19 q 625 135 583 78 q 685 206 661 183 q 742 228 708 228 l 742 26 q 706 32 726 32 q 645 22 678 32 q 607 10 613 11 q 525 -14 561 -6 q 447 -22 489 -22 m 642 1178 q 613 1115 642 1142 q 529 1054 585 1089 q 440 991 471 1018 q 403 925 410 964 l 361 925 q 324 991 354 964 q 238 1054 294 1018 q 154 1115 182 1088 q 126 1178 126 1142 l 288 1178 q 303 1114 288 1147 q 350 1025 318 1081 l 382 969 q 414 1024 392 988 q 463 1110 446 1074 q 479 1178 479 1146 l 642 1178 z "},"ç":{"ha":768,"x_min":28,"x_max":742,"o":"m 467 19 q 550 49 517 19 q 625 135 583 78 q 685 206 661 183 q 742 228 708 228 l 742 26 q 706 32 726 32 q 645 22 678 32 q 607 10 613 11 q 525 -14 561 -6 q 447 -22 489 -22 q 379 -17 408 -22 l 364 -71 l 417 -71 q 504 -98 475 -71 q 533 -168 533 -125 q 450 -306 533 -268 q 208 -354 367 -344 l 208 -333 q 432 -183 432 -306 q 414 -125 432 -147 q 364 -103 396 -103 l 308 -103 l 336 -7 q 178 76 249 17 q 68 224 108 136 q 28 418 28 313 q 82 656 28 565 q 220 785 136 747 q 404 824 304 824 q 478 817 444 824 q 556 796 513 810 q 622 778 594 783 q 682 772 649 772 q 735 776 706 772 l 735 578 l 710 578 q 650 600 672 578 q 600 668 628 622 q 535 753 568 724 q 442 782 501 782 q 342 737 389 782 q 265 608 294 692 q 236 418 236 525 q 265 219 236 310 q 347 74 294 128 q 467 19 400 19 z "},"ċ":{"ha":768,"x_min":28,"x_max":742,"o":"m 447 -22 q 239 33 335 -22 q 85 190 143 89 q 28 418 28 290 q 82 656 28 565 q 220 785 136 747 q 404 824 304 824 q 478 817 444 824 q 556 796 513 810 q 622 778 594 783 q 682 772 649 772 q 735 776 706 772 l 735 578 l 710 578 q 650 600 672 578 q 600 668 628 622 q 535 753 568 724 q 442 782 501 782 q 342 737 389 782 q 265 608 294 692 q 236 418 236 525 q 265 219 236 310 q 347 74 294 128 q 467 19 400 19 q 550 49 517 19 q 625 135 583 78 q 685 206 661 183 q 742 228 708 228 l 742 26 q 706 32 726 32 q 645 22 678 32 q 607 10 613 11 q 525 -14 561 -6 q 447 -22 489 -22 m 383 975 q 309 1006 339 975 q 279 1079 279 1036 q 309 1153 279 1124 q 383 1183 339 1183 q 457 1153 426 1183 q 488 1079 488 1124 q 457 1006 488 1036 q 383 975 426 975 z "},"d":{"ha":876,"x_min":28,"x_max":824,"o":"m 342 -22 q 189 27 261 -22 q 72 169 117 76 q 28 386 28 263 q 78 626 28 526 q 217 776 129 725 q 413 826 304 826 q 619 782 514 826 l 619 975 l 824 975 l 824 0 l 621 1 l 621 217 l 617 217 q 502 38 576 99 q 342 -22 428 -22 m 417 101 q 504 129 461 101 q 578 210 547 157 q 621 339 610 264 l 619 739 q 486 772 553 772 q 358 732 415 772 q 267 608 301 692 q 232 397 232 524 q 258 234 232 301 q 325 134 283 167 q 417 101 367 101 z "},"ð":{"ha":922,"x_min":28,"x_max":894,"o":"m 542 1074 q 803 777 713 944 q 894 447 894 610 q 846 206 894 314 q 698 34 797 97 q 453 -29 599 -29 q 225 21 321 -29 q 78 165 129 71 q 28 386 28 258 q 80 626 28 528 q 226 776 132 725 q 443 826 319 826 q 636 788 540 826 q 483 1038 585 928 l 357 960 l 332 990 l 454 1067 q 322 1171 393 1125 l 338 1196 q 506 1099 431 1151 l 638 1182 l 663 1149 l 542 1074 m 453 15 q 581 76 526 15 q 663 237 635 138 q 690 447 690 336 q 651 740 690 607 l 651 738 q 475 783 558 783 q 349 741 404 783 q 263 615 294 699 q 232 414 232 532 q 292 115 232 215 q 453 15 351 15 z "},"ď":{"ha":1183,"x_min":28,"x_max":1165,"o":"m 342 -22 q 189 27 261 -22 q 72 169 117 76 q 28 386 28 263 q 78 626 28 526 q 217 776 129 725 q 413 826 304 826 q 619 782 514 826 l 619 975 l 824 975 l 824 0 l 621 1 l 621 217 l 617 217 q 502 38 576 99 q 342 -22 428 -22 m 417 101 q 504 129 461 101 q 578 210 547 157 q 621 339 610 264 l 619 739 q 486 772 553 772 q 358 732 415 772 q 267 608 301 692 q 232 397 232 524 q 258 234 232 301 q 325 134 283 167 q 417 101 367 101 m 939 663 q 1013 814 1013 736 q 994 908 1013 849 q 987 935 993 914 q 981 975 981 957 l 1165 975 q 1108 783 1165 868 q 946 653 1051 697 l 939 663 z "},"đ":{"ha":876,"x_min":28,"x_max":824,"o":"m 619 975 l 824 975 l 824 0 l 621 1 l 621 217 l 617 217 q 502 38 576 99 q 342 -22 428 -22 q 189 27 261 -22 q 72 169 117 76 q 28 386 28 263 q 78 626 28 526 q 217 776 129 725 q 413 826 304 826 q 619 782 514 826 l 619 975 m 417 101 q 504 129 461 101 q 578 210 547 157 q 621 339 610 264 l 619 700 l 451 700 l 451 742 l 614 742 q 486 772 550 772 q 358 732 415 772 q 267 608 301 692 q 232 397 232 524 q 258 234 232 301 q 325 134 283 167 q 417 101 367 101 z "},"e":{"ha":882,"x_min":28,"x_max":853,"o":"m 468 -24 q 253 27 354 -24 q 90 179 153 78 q 28 426 28 281 q 89 648 28 558 q 257 781 150 738 q 501 825 364 825 q 693 794 614 825 q 813 712 772 763 q 853 601 853 661 q 801 462 853 517 q 671 381 749 407 q 514 354 593 356 q 412 347 449 353 q 347 324 375 342 q 300 267 319 306 l 278 332 q 308 370 288 358 q 356 385 328 382 q 444 389 385 388 l 479 389 q 607 445 565 390 q 649 601 649 500 q 610 733 649 683 q 490 782 571 782 q 362 737 421 782 q 267 609 303 692 q 232 419 232 526 q 279 206 232 297 q 397 67 326 115 q 529 19 467 19 q 617 47 582 19 q 696 129 653 75 q 770 208 738 182 q 851 235 803 235 l 851 31 q 786 42 819 42 q 733 35 760 42 q 667 15 707 29 q 568 -13 613 -3 q 468 -24 524 -24 z "},"é":{"ha":882,"x_min":28,"x_max":853,"o":"m 468 -24 q 253 27 354 -24 q 90 179 153 78 q 28 426 28 281 q 89 648 28 558 q 257 781 150 738 q 501 825 364 825 q 693 794 614 825 q 813 712 772 763 q 853 601 853 661 q 801 462 853 517 q 671 381 749 407 q 514 354 593 356 q 412 347 449 353 q 347 324 375 342 q 300 267 319 306 l 278 332 q 308 370 288 358 q 356 385 328 382 q 444 389 385 388 l 479 389 q 607 445 565 390 q 649 601 649 500 q 610 733 649 683 q 490 782 571 782 q 362 737 421 782 q 267 609 303 692 q 232 419 232 526 q 279 206 232 297 q 397 67 326 115 q 529 19 467 19 q 617 47 582 19 q 696 129 653 75 q 770 208 738 182 q 851 235 803 235 l 851 31 q 786 42 819 42 q 733 35 760 42 q 667 15 707 29 q 568 -13 613 -3 q 468 -24 524 -24 m 190 925 q 226 974 203 950 q 285 1031 249 999 q 362 1110 336 1078 q 389 1178 388 1142 l 553 1178 q 527 1099 553 1132 q 465 1046 501 1067 q 367 997 428 1025 q 275 954 310 974 q 222 908 240 935 l 190 925 z "},"ě":{"ha":882,"x_min":28,"x_max":853,"o":"m 468 -24 q 253 27 354 -24 q 90 179 153 78 q 28 426 28 281 q 89 648 28 558 q 257 781 150 738 q 501 825 364 825 q 693 794 614 825 q 813 712 772 763 q 853 601 853 661 q 801 462 853 517 q 671 381 749 407 q 514 354 593 356 q 412 347 449 353 q 347 324 375 342 q 300 267 319 306 l 278 332 q 308 370 288 358 q 356 385 328 382 q 444 389 385 388 l 479 389 q 607 445 565 390 q 649 601 649 500 q 610 733 649 683 q 490 782 571 782 q 362 737 421 782 q 267 609 303 692 q 232 419 232 526 q 279 206 232 297 q 397 67 326 115 q 529 19 467 19 q 617 47 582 19 q 696 129 653 75 q 770 208 738 182 q 851 235 803 235 l 851 31 q 786 42 819 42 q 733 35 760 42 q 667 15 707 29 q 568 -13 613 -3 q 468 -24 524 -24 m 700 1178 q 672 1115 700 1142 q 588 1054 643 1089 q 499 991 529 1018 q 461 925 468 964 l 419 925 q 383 991 413 964 q 296 1054 353 1018 q 213 1115 240 1088 q 185 1178 185 1142 l 346 1178 q 361 1114 346 1147 q 408 1025 376 1081 l 440 969 q 472 1024 450 988 q 521 1110 504 1074 q 538 1178 538 1146 l 700 1178 z "},"ê":{"ha":882,"x_min":28,"x_max":853,"o":"m 468 -24 q 253 27 354 -24 q 90 179 153 78 q 28 426 28 281 q 89 648 28 558 q 257 781 150 738 q 501 825 364 825 q 693 794 614 825 q 813 712 772 763 q 853 601 853 661 q 801 462 853 517 q 671 381 749 407 q 514 354 593 356 q 412 347 449 353 q 347 324 375 342 q 300 267 319 306 l 278 332 q 308 370 288 358 q 356 385 328 382 q 444 389 385 388 l 479 389 q 607 445 565 390 q 649 601 649 500 q 610 733 649 683 q 490 782 571 782 q 362 737 421 782 q 267 609 303 692 q 232 419 232 526 q 279 206 232 297 q 397 67 326 115 q 529 19 467 19 q 617 47 582 19 q 696 129 653 75 q 770 208 738 182 q 851 235 803 235 l 851 31 q 786 42 819 42 q 733 35 760 42 q 667 15 707 29 q 568 -13 613 -3 q 468 -24 524 -24 m 538 925 q 521 993 538 957 q 472 1079 504 1029 q 440 1133 450 1115 l 408 1078 q 361 989 376 1022 q 346 925 346 956 l 185 925 q 213 988 185 961 q 296 1049 240 1015 q 383 1112 353 1085 q 419 1178 413 1139 l 461 1178 q 499 1112 468 1139 q 588 1049 529 1085 q 672 988 643 1014 q 700 925 700 961 l 538 925 z "},"ë":{"ha":882,"x_min":28,"x_max":853,"o":"m 468 -24 q 253 27 354 -24 q 90 179 153 78 q 28 426 28 281 q 89 648 28 558 q 257 781 150 738 q 501 825 364 825 q 693 794 614 825 q 813 712 772 763 q 853 601 853 661 q 801 462 853 517 q 671 381 749 407 q 514 354 593 356 q 412 347 449 353 q 347 324 375 342 q 300 267 319 306 l 278 332 q 308 370 288 358 q 356 385 328 382 q 444 389 385 388 l 479 389 q 607 445 565 390 q 649 601 649 500 q 610 733 649 683 q 490 782 571 782 q 362 737 421 782 q 267 609 303 692 q 232 419 232 526 q 279 206 232 297 q 397 67 326 115 q 529 19 467 19 q 617 47 582 19 q 696 129 653 75 q 770 208 738 182 q 851 235 803 235 l 851 31 q 786 42 819 42 q 733 35 760 42 q 667 15 707 29 q 568 -13 613 -3 q 468 -24 524 -24 m 347 975 q 299 994 319 975 q 279 1042 279 1014 q 299 1090 279 1071 q 347 1110 319 1110 q 394 1090 375 1110 q 414 1042 414 1071 q 394 994 414 1014 q 347 975 375 975 m 538 975 q 490 994 510 975 q 469 1042 469 1014 q 490 1090 469 1071 q 538 1110 510 1110 q 585 1090 565 1110 q 604 1042 604 1071 q 585 994 604 1014 q 538 975 565 975 z "},"ė":{"ha":882,"x_min":28,"x_max":853,"o":"m 468 -24 q 253 27 354 -24 q 90 179 153 78 q 28 426 28 281 q 89 648 28 558 q 257 781 150 738 q 501 825 364 825 q 693 794 614 825 q 813 712 772 763 q 853 601 853 661 q 801 462 853 517 q 671 381 749 407 q 514 354 593 356 q 412 347 449 353 q 347 324 375 342 q 300 267 319 306 l 278 332 q 308 370 288 358 q 356 385 328 382 q 444 389 385 388 l 479 389 q 607 445 565 390 q 649 601 649 500 q 610 733 649 683 q 490 782 571 782 q 362 737 421 782 q 267 609 303 692 q 232 419 232 526 q 279 206 232 297 q 397 67 326 115 q 529 19 467 19 q 617 47 582 19 q 696 129 653 75 q 770 208 738 182 q 851 235 803 235 l 851 31 q 786 42 819 42 q 733 35 760 42 q 667 15 707 29 q 568 -13 613 -3 q 468 -24 524 -24 m 442 975 q 367 1006 397 975 q 338 1079 338 1036 q 367 1153 338 1124 q 442 1183 397 1183 q 515 1153 485 1183 q 546 1079 546 1124 q 515 1006 546 1036 q 442 975 485 975 z "},"è":{"ha":882,"x_min":28,"x_max":853,"o":"m 468 -24 q 253 27 354 -24 q 90 179 153 78 q 28 426 28 281 q 89 648 28 558 q 257 781 150 738 q 501 825 364 825 q 693 794 614 825 q 813 712 772 763 q 853 601 853 661 q 801 462 853 517 q 671 381 749 407 q 514 354 593 356 q 412 347 449 353 q 347 324 375 342 q 300 267 319 306 l 278 332 q 308 370 288 358 q 356 385 328 382 q 444 389 385 388 l 479 389 q 607 445 565 390 q 649 601 649 500 q 610 733 649 683 q 490 782 571 782 q 362 737 421 782 q 267 609 303 692 q 232 419 232 526 q 279 206 232 297 q 397 67 326 115 q 529 19 467 19 q 617 47 582 19 q 696 129 653 75 q 770 208 738 182 q 851 235 803 235 l 851 31 q 786 42 819 42 q 733 35 760 42 q 667 15 707 29 q 568 -13 613 -3 q 468 -24 524 -24 m 596 908 q 543 954 578 935 q 451 997 508 974 q 353 1046 390 1025 q 291 1099 317 1067 q 265 1178 265 1132 l 429 1178 q 456 1110 431 1142 q 533 1031 482 1078 q 592 974 569 999 q 628 925 615 950 l 596 908 z "},"ē":{"ha":882,"x_min":28,"x_max":853,"o":"m 468 -24 q 253 27 354 -24 q 90 179 153 78 q 28 426 28 281 q 89 648 28 558 q 257 781 150 738 q 501 825 364 825 q 693 794 614 825 q 813 712 772 763 q 853 601 853 661 q 801 462 853 517 q 671 381 749 407 q 514 354 593 356 q 412 347 449 353 q 347 324 375 342 q 300 267 319 306 l 278 332 q 308 370 288 358 q 356 385 328 382 q 444 389 385 388 l 479 389 q 607 445 565 390 q 649 601 649 500 q 610 733 649 683 q 490 782 571 782 q 362 737 421 782 q 267 609 303 692 q 232 419 232 526 q 279 206 232 297 q 397 67 326 115 q 529 19 467 19 q 617 47 582 19 q 696 129 653 75 q 770 208 738 182 q 851 235 803 235 l 851 31 q 786 42 819 42 q 733 35 760 42 q 667 15 707 29 q 568 -13 613 -3 q 468 -24 524 -24 m 672 1003 l 211 1003 l 211 1044 l 672 1044 l 672 1003 z "},"ę":{"ha":882,"x_min":28,"x_max":853,"o":"m 468 -24 q 253 27 354 -24 q 90 179 153 78 q 28 426 28 281 q 89 648 28 558 q 257 781 150 738 q 501 825 364 825 q 693 794 614 825 q 813 712 772 763 q 853 601 853 661 q 801 462 853 517 q 671 381 749 407 q 514 354 593 356 q 412 347 449 353 q 347 324 375 342 q 300 267 319 306 l 278 332 q 308 370 288 358 q 356 385 328 382 q 444 389 385 388 l 479 389 q 607 445 565 390 q 649 601 649 500 q 610 733 649 683 q 490 782 571 782 q 362 737 421 782 q 267 609 303 692 q 232 419 232 526 q 279 206 232 297 q 397 67 326 115 q 529 19 467 19 q 617 47 582 19 q 696 129 653 75 q 770 208 738 182 q 851 235 803 235 l 851 31 q 786 42 819 42 q 733 35 760 42 q 667 15 707 29 q 568 -13 613 -3 q 468 -24 524 -24 m 643 -333 q 533 -294 578 -333 q 489 -185 489 -254 q 519 -90 489 -135 q 608 -15 549 -44 q 754 14 668 14 l 794 14 l 794 -1 q 675 -50 714 -10 q 636 -146 636 -90 q 660 -212 636 -187 q 721 -236 685 -236 q 788 -214 756 -236 l 794 -278 q 643 -333 722 -333 z "},"f":{"ha":446,"x_min":-19,"x_max":515,"o":"m 119 0 l 119 761 l -19 761 l -19 803 l 119 803 q 40 904 67 850 q 14 1010 14 958 q 63 1127 14 1081 q 194 1174 111 1174 q 251 1167 225 1174 q 314 1150 278 1161 q 401 1131 372 1131 q 499 1167 449 1131 l 515 1167 l 515 954 l 500 954 q 424 974 457 953 q 343 1043 392 996 q 264 1110 297 1088 q 189 1132 231 1132 q 129 1076 129 1132 q 185 940 129 1021 q 321 803 240 860 l 490 803 l 490 761 l 324 761 l 324 0 l 119 0 z "},"g":{"ha":894,"x_min":28,"x_max":878,"o":"m 354 138 q 299 116 318 132 q 279 81 279 100 q 317 31 279 51 q 429 10 354 10 q 526 18 471 10 q 638 28 585 28 q 808 -15 753 28 q 863 -119 863 -57 q 800 -243 863 -194 q 645 -314 738 -292 q 463 -336 553 -336 q 386 -330 424 -336 q 285 -310 349 -324 q 191 -291 226 -297 q 121 -285 156 -285 q 36 -299 74 -285 l 29 -299 l 29 -89 l 36 -89 q 112 -110 75 -89 q 206 -176 149 -132 q 337 -265 279 -235 q 468 -296 394 -296 q 565 -275 522 -296 q 630 -219 607 -254 q 653 -147 653 -185 q 585 -52 653 -81 q 411 -28 517 -24 q 365 -29 396 -29 q 210 -8 274 -29 q 146 58 146 13 q 187 122 146 97 q 286 150 228 147 q 96 266 164 183 q 28 469 28 349 q 78 662 28 582 q 217 783 129 742 q 413 824 304 824 q 572 800 496 824 q 683 865 639 799 q 744 1017 726 932 l 878 917 q 785 824 846 864 q 636 786 724 785 q 807 667 746 747 q 868 472 868 586 q 762 217 868 307 q 460 128 656 128 q 354 138 401 128 m 236 450 q 292 301 251 365 q 390 201 333 236 q 506 167 447 167 q 631 231 588 167 q 674 392 674 294 q 664 488 674 443 q 606 640 649 574 q 506 743 564 707 q 389 779 449 779 q 267 715 308 779 q 225 553 225 651 q 236 450 225 506 z "},"ğ":{"ha":894,"x_min":28,"x_max":878,"o":"m 354 138 q 299 116 318 132 q 279 81 279 100 q 317 31 279 51 q 429 10 354 10 q 526 18 471 10 q 638 28 585 28 q 808 -15 753 28 q 863 -119 863 -57 q 800 -243 863 -194 q 645 -314 738 -292 q 463 -336 553 -336 q 386 -330 424 -336 q 285 -310 349 -324 q 191 -291 226 -297 q 121 -285 156 -285 q 36 -299 74 -285 l 29 -299 l 29 -89 l 36 -89 q 112 -110 75 -89 q 206 -176 149 -132 q 337 -265 279 -235 q 468 -296 394 -296 q 565 -275 522 -296 q 630 -219 607 -254 q 653 -147 653 -185 q 585 -52 653 -81 q 411 -28 517 -24 q 365 -29 396 -29 q 210 -8 274 -29 q 146 58 146 13 q 187 122 146 97 q 286 150 228 147 q 96 266 164 183 q 28 469 28 349 q 78 662 28 582 q 217 783 129 742 q 413 824 304 824 q 572 800 496 824 q 683 865 639 799 q 744 1017 726 932 l 878 917 q 785 824 846 864 q 636 786 724 785 q 807 667 746 747 q 868 472 868 586 q 762 217 868 307 q 460 128 656 128 q 354 138 401 128 m 236 450 q 292 301 251 365 q 390 201 333 236 q 506 167 447 167 q 631 231 588 167 q 674 392 674 294 q 664 488 674 443 q 606 640 649 574 q 506 743 564 707 q 389 779 449 779 q 267 715 308 779 q 225 553 225 651 q 236 450 225 506 m 446 944 q 320 980 369 944 q 247 1065 271 1015 q 219 1164 224 1115 l 258 1164 q 446 1068 300 1068 q 633 1164 590 1068 l 671 1164 q 643 1065 667 1115 q 570 980 619 1015 q 446 944 521 944 z "},"ģ":{"ha":894,"x_min":28,"x_max":878,"o":"m 354 138 q 299 116 318 132 q 279 81 279 100 q 317 31 279 51 q 429 10 354 10 q 526 18 471 10 q 638 28 585 28 q 808 -15 753 28 q 863 -119 863 -57 q 800 -243 863 -194 q 645 -314 738 -292 q 463 -336 553 -336 q 386 -330 424 -336 q 285 -310 349 -324 q 191 -291 226 -297 q 121 -285 156 -285 q 36 -299 74 -285 l 29 -299 l 29 -89 l 36 -89 q 112 -110 75 -89 q 206 -176 149 -132 q 337 -265 279 -235 q 468 -296 394 -296 q 565 -275 522 -296 q 630 -219 607 -254 q 653 -147 653 -185 q 585 -52 653 -81 q 411 -28 517 -24 q 365 -29 396 -29 q 210 -8 274 -29 q 146 58 146 13 q 187 122 146 97 q 286 150 228 147 q 96 266 164 183 q 28 469 28 349 q 78 662 28 582 q 217 783 129 742 q 413 824 304 824 q 572 800 496 824 q 683 865 639 799 q 744 1017 726 932 l 878 917 q 785 824 846 864 q 636 786 724 785 q 807 667 746 747 q 868 472 868 586 q 762 217 868 307 q 460 128 656 128 q 354 138 401 128 m 236 450 q 292 301 251 365 q 390 201 333 236 q 506 167 447 167 q 631 231 588 167 q 674 392 674 294 q 664 488 674 443 q 606 640 649 574 q 506 743 564 707 q 389 779 449 779 q 267 715 308 779 q 225 553 225 651 q 236 450 225 506 m 340 928 q 397 1120 340 1035 q 558 1250 453 1206 l 567 1240 q 492 1089 492 1169 q 511 994 492 1050 q 519 967 513 989 q 525 928 525 946 l 340 928 z "},"ġ":{"ha":894,"x_min":28,"x_max":878,"o":"m 354 138 q 299 116 318 132 q 279 81 279 100 q 317 31 279 51 q 429 10 354 10 q 526 18 471 10 q 638 28 585 28 q 808 -15 753 28 q 863 -119 863 -57 q 800 -243 863 -194 q 645 -314 738 -292 q 463 -336 553 -336 q 386 -330 424 -336 q 285 -310 349 -324 q 191 -291 226 -297 q 121 -285 156 -285 q 36 -299 74 -285 l 29 -299 l 29 -89 l 36 -89 q 112 -110 75 -89 q 206 -176 149 -132 q 337 -265 279 -235 q 468 -296 394 -296 q 565 -275 522 -296 q 630 -219 607 -254 q 653 -147 653 -185 q 585 -52 653 -81 q 411 -28 517 -24 q 365 -29 396 -29 q 210 -8 274 -29 q 146 58 146 13 q 187 122 146 97 q 286 150 228 147 q 96 266 164 183 q 28 469 28 349 q 78 662 28 582 q 217 783 129 742 q 413 824 304 824 q 572 800 496 824 q 683 865 639 799 q 744 1017 726 932 l 878 917 q 785 824 846 864 q 636 786 724 785 q 807 667 746 747 q 868 472 868 586 q 762 217 868 307 q 460 128 656 128 q 354 138 401 128 m 236 450 q 292 301 251 365 q 390 201 333 236 q 506 167 447 167 q 631 231 588 167 q 674 392 674 294 q 664 488 674 443 q 606 640 649 574 q 506 743 564 707 q 389 779 449 779 q 267 715 308 779 q 225 553 225 651 q 236 450 225 506 m 447 975 q 373 1006 403 975 q 343 1079 343 1036 q 373 1153 343 1124 q 447 1183 403 1183 q 521 1153 490 1183 q 551 1079 551 1124 q 521 1006 551 1036 q 447 975 490 975 z "},"h":{"ha":929,"x_min":60,"x_max":926,"o":"m 926 0 l 722 0 l 640 581 q 599 687 631 653 q 521 721 567 721 q 390 672 461 721 q 264 551 319 624 l 264 0 l 60 0 l 60 975 l 264 975 l 264 603 q 444 758 339 696 q 642 821 550 821 q 770 772 718 821 q 838 619 822 724 l 926 0 z "},"ħ":{"ha":929,"x_min":-8,"x_max":926,"o":"m 926 0 l 722 0 l 640 581 q 599 687 631 653 q 521 721 567 721 q 390 672 461 721 q 264 551 319 624 l 264 0 l 60 0 l 60 785 l -8 785 l -8 826 l 60 826 l 60 975 l 264 975 l 264 826 l 338 826 l 338 785 l 264 785 l 264 603 q 444 758 339 696 q 642 821 550 821 q 770 772 718 821 q 838 619 822 724 l 926 0 z "},"i":{"ha":325,"x_min":60,"x_max":272,"o":"m 167 939 q 91 969 122 939 q 60 1044 60 1000 q 91 1119 60 1089 q 167 1150 122 1150 q 242 1119 211 1150 q 272 1044 272 1089 q 242 969 272 1000 q 167 939 211 939 m 268 0 l 64 0 l 64 803 l 268 803 l 268 0 z "},"ı":{"ha":317,"x_min":60,"x_max":264,"o":"m 264 0 l 60 0 l 60 803 l 264 803 l 264 0 z "},"í":{"ha":317,"x_min":-90,"x_max":272,"o":"m 264 0 l 60 0 l 60 803 l 264 803 l 264 0 m -90 925 q -55 974 -78 950 q 4 1031 -32 999 q 81 1110 56 1078 q 108 1178 107 1142 l 272 1178 q 247 1099 272 1132 q 184 1046 221 1067 q 86 997 147 1025 q -6 954 29 974 q -58 908 -40 935 l -90 925 z "},"î":{"ha":317,"x_min":-96,"x_max":419,"o":"m 264 0 l 60 0 l 60 803 l 264 803 l 264 0 m 257 925 q 240 993 257 957 q 192 1079 224 1029 q 160 1133 169 1115 l 128 1078 q 81 989 96 1022 q 65 925 65 956 l -96 925 q -68 988 -96 961 q 15 1049 -40 1015 q 102 1112 72 1085 q 139 1178 132 1139 l 181 1178 q 218 1112 188 1139 q 307 1049 249 1085 q 391 988 363 1014 q 419 925 419 961 l 257 925 z "},"ï":{"ha":317,"x_min":-1,"x_max":324,"o":"m 264 0 l 60 0 l 60 803 l 264 803 l 264 0 m 67 975 q 19 994 39 975 q -1 1042 -1 1014 q 19 1090 -1 1071 q 67 1110 39 1110 q 114 1090 94 1110 q 133 1042 133 1071 q 114 994 133 1014 q 67 975 94 975 m 257 975 q 209 994 229 975 q 189 1042 189 1014 q 209 1090 189 1071 q 257 1110 229 1110 q 304 1090 285 1110 q 324 1042 324 1071 q 304 994 324 1014 q 257 975 285 975 z "},"ì":{"ha":317,"x_min":-15,"x_max":347,"o":"m 264 0 l 60 0 l 60 803 l 264 803 l 264 0 m 315 908 q 263 954 297 935 q 171 997 228 974 q 73 1046 110 1025 q 10 1099 36 1067 q -15 1178 -15 1132 l 149 1178 q 176 1110 150 1142 q 253 1031 201 1078 q 312 974 289 999 q 347 925 335 950 l 315 908 z "},"ī":{"ha":317,"x_min":-69,"x_max":392,"o":"m 264 0 l 60 0 l 60 803 l 264 803 l 264 0 m 392 1003 l -69 1003 l -69 1044 l 392 1044 l 392 1003 z "},"į":{"ha":317,"x_min":-42,"x_max":265,"o":"m 264 0 l 60 0 l 60 803 l 264 803 l 264 0 m 161 975 q 87 1006 117 975 q 57 1079 57 1036 q 87 1153 57 1124 q 161 1183 117 1183 q 235 1153 204 1183 q 265 1079 265 1124 q 235 1006 265 1036 q 161 975 204 975 m 113 -347 q 3 -308 47 -347 q -42 -199 -42 -268 q -12 -103 -42 -149 q 78 -29 18 -58 q 224 0 138 0 l 264 0 l 264 -15 q 144 -64 183 -24 q 106 -160 106 -104 q 130 -226 106 -201 q 190 -250 154 -250 q 257 -228 225 -250 l 264 -292 q 113 -347 192 -347 z "},"j":{"ha":343,"x_min":-368,"x_max":290,"o":"m 181 935 q 103 967 135 935 q 71 1044 71 999 q 103 1122 71 1090 q 181 1154 135 1154 q 258 1122 226 1154 q 290 1044 290 1090 q 258 967 290 999 q 181 935 226 935 m -368 -126 q -337 -125 -357 -125 q -256 -135 -292 -125 q -172 -162 -221 -144 q -96 -189 -128 -181 q -26 -197 -64 -197 q 53 -162 28 -197 q 78 -33 78 -128 l 78 803 l 282 803 l 282 13 q 219 -178 282 -115 q 44 -240 157 -240 q -11 -237 8 -240 q -100 -233 -58 -233 q -351 -285 -243 -233 l -368 -285 l -368 -126 z "},"k":{"ha":786,"x_min":60,"x_max":782,"o":"m 576 546 l 782 0 l 574 0 l 386 500 l 264 396 l 264 0 l 60 0 l 60 975 l 264 975 l 264 439 l 389 544 q 481 642 453 599 q 513 717 508 686 q 518 803 518 749 l 742 803 l 440 546 l 576 546 z "},"ķ":{"ha":786,"x_min":60,"x_max":782,"o":"m 576 546 l 782 0 l 574 0 l 386 500 l 264 396 l 264 0 l 60 0 l 60 975 l 264 975 l 264 439 l 389 544 q 481 642 453 599 q 513 717 508 686 q 518 803 518 749 l 742 803 l 440 546 l 576 546 m 281 -433 q 356 -282 356 -362 q 336 -187 356 -243 q 328 -160 335 -182 q 322 -121 322 -139 l 526 -121 q 462 -312 526 -225 q 289 -443 397 -399 l 281 -433 z "},"l":{"ha":317,"x_min":60,"x_max":264,"o":"m 264 0 l 60 0 l 60 975 l 264 975 l 264 0 z "},"ĺ":{"ha":317,"x_min":-49,"x_max":314,"o":"m 264 0 l 60 0 l 60 975 l 264 975 l 264 0 m -49 1097 q -13 1147 -36 1122 q 46 1203 10 1171 q 123 1282 97 1250 q 150 1350 149 1314 l 314 1350 q 288 1272 314 1304 q 226 1218 263 1239 q 128 1169 189 1197 q 36 1126 71 1146 q -17 1081 1 1107 l -49 1097 z "},"ľ":{"ha":615,"x_min":60,"x_max":592,"o":"m 264 0 l 60 0 l 60 975 l 264 975 l 264 0 m 365 663 q 439 814 439 736 q 421 908 439 849 q 413 935 419 914 q 407 975 407 957 l 592 975 q 535 783 592 868 q 372 653 478 697 l 365 663 z "},"ļ":{"ha":317,"x_min":11,"x_max":264,"o":"m 264 0 l 60 0 l 60 975 l 264 975 l 264 0 m 11 -433 q 86 -282 86 -362 q 67 -187 86 -243 q 59 -160 65 -182 q 53 -121 53 -139 l 257 -121 q 192 -312 257 -225 q 19 -443 128 -399 l 11 -433 z "},"ł":{"ha":317,"x_min":-25,"x_max":340,"o":"m 264 586 l 340 615 l 340 574 l 264 544 l 264 0 l 60 0 l 60 467 l -25 435 l -25 476 l 60 508 l 60 975 l 264 975 l 264 586 z "},"m":{"ha":1467,"x_min":60,"x_max":1428,"o":"m 60 0 l 60 803 l 264 803 l 264 561 q 442 758 338 689 q 644 828 546 828 q 796 766 739 828 q 853 585 853 704 q 1024 765 924 701 q 1221 828 1125 828 q 1370 770 1313 828 q 1428 606 1428 713 l 1428 0 l 1224 0 l 1224 621 q 1197 710 1224 681 q 1125 740 1169 740 q 983 679 1060 740 q 853 515 906 618 l 853 0 l 649 0 l 649 601 q 622 702 649 668 q 550 736 594 736 q 402 669 483 736 q 264 493 321 603 l 264 0 l 60 0 z "},"n":{"ha":944,"x_min":60,"x_max":942,"o":"m 942 0 l 738 0 l 646 557 q 596 681 631 642 q 511 721 561 721 q 383 669 451 721 q 264 544 314 618 l 264 0 l 60 0 l 60 803 l 264 803 l 264 607 q 430 759 326 699 q 628 819 533 819 q 765 770 708 819 q 838 619 821 721 l 942 0 z "},"ń":{"ha":944,"x_min":60,"x_max":942,"o":"m 942 0 l 738 0 l 646 557 q 596 681 631 642 q 511 721 561 721 q 383 669 451 721 q 264 544 314 618 l 264 0 l 60 0 l 60 803 l 264 803 l 264 607 q 430 759 326 699 q 628 819 533 819 q 765 770 708 819 q 838 619 821 721 l 942 0 m 221 925 q 256 974 233 950 q 315 1031 279 999 q 392 1110 367 1078 q 419 1178 418 1142 l 583 1178 q 558 1099 583 1132 q 495 1046 532 1067 q 397 997 458 1025 q 306 954 340 974 q 253 908 271 935 l 221 925 z "},"ň":{"ha":944,"x_min":60,"x_max":942,"o":"m 942 0 l 738 0 l 646 557 q 596 681 631 642 q 511 721 561 721 q 383 669 451 721 q 264 544 314 618 l 264 0 l 60 0 l 60 803 l 264 803 l 264 607 q 430 759 326 699 q 628 819 533 819 q 765 770 708 819 q 838 619 821 721 l 942 0 m 731 1178 q 702 1115 731 1142 q 618 1054 674 1089 q 529 991 560 1018 q 492 925 499 964 l 450 925 q 413 991 443 964 q 326 1054 383 1018 q 243 1115 271 1088 q 215 1178 215 1142 l 376 1178 q 392 1114 376 1147 q 439 1025 407 1081 l 471 969 q 503 1024 481 988 q 551 1110 535 1074 q 568 1178 568 1146 l 731 1178 z "},"ņ":{"ha":944,"x_min":60,"x_max":942,"o":"m 942 0 l 738 0 l 646 557 q 596 681 631 642 q 511 721 561 721 q 383 669 451 721 q 264 544 314 618 l 264 0 l 60 0 l 60 803 l 264 803 l 264 607 q 430 759 326 699 q 628 819 533 819 q 765 770 708 819 q 838 619 821 721 l 942 0 m 322 -433 q 397 -282 397 -362 q 378 -187 397 -243 q 370 -160 376 -182 q 364 -121 364 -139 l 568 -121 q 503 -312 568 -225 q 331 -443 439 -399 l 322 -433 z "},"ŋ":{"ha":944,"x_min":60,"x_max":946,"o":"m 942 0 q 946 -58 946 -29 q 871 -219 946 -164 q 606 -274 796 -274 l 606 -222 q 744 -74 744 -222 q 738 0 744 -42 l 646 557 q 596 681 631 642 q 511 721 561 721 q 383 669 451 721 q 264 544 314 618 l 264 0 l 60 0 l 60 803 l 264 803 l 264 607 q 430 759 326 699 q 628 819 533 819 q 765 770 708 819 q 838 619 821 721 l 942 0 z "},"ñ":{"ha":944,"x_min":60,"x_max":942,"o":"m 942 0 l 738 0 l 646 557 q 596 681 631 642 q 511 721 561 721 q 383 669 451 721 q 264 544 314 618 l 264 0 l 60 0 l 60 803 l 264 803 l 264 607 q 430 759 326 699 q 628 819 533 819 q 765 770 708 819 q 838 619 821 721 l 942 0 m 599 971 q 528 983 567 971 q 433 1017 490 994 q 355 1045 385 1036 q 304 1054 325 1054 q 254 1000 254 1054 l 233 1000 q 269 1113 233 1074 q 350 1151 306 1151 q 422 1139 382 1151 q 517 1103 461 1126 q 556 1088 525 1100 q 610 1070 588 1076 q 647 1064 632 1064 q 677 1075 667 1064 q 688 1113 688 1086 l 710 1113 q 677 1006 710 1040 q 599 971 644 971 z "},"o":{"ha":896,"x_min":28,"x_max":868,"o":"m 449 -24 q 138 84 249 -24 q 28 394 28 192 q 139 713 28 600 q 449 825 250 825 q 757 715 646 825 q 868 406 868 606 q 759 86 868 196 q 449 -24 650 -24 m 496 19 q 632 99 583 19 q 681 296 681 179 q 644 517 681 404 q 541 706 607 631 q 394 782 475 782 q 263 703 307 782 q 218 506 218 624 q 253 282 218 396 q 353 94 289 168 q 496 19 417 19 z "},"ó":{"ha":896,"x_min":28,"x_max":868,"o":"m 449 -24 q 138 84 249 -24 q 28 394 28 192 q 139 713 28 600 q 449 825 250 825 q 757 715 646 825 q 868 406 868 606 q 759 86 868 196 q 449 -24 650 -24 m 496 19 q 632 99 583 19 q 681 296 681 179 q 644 517 681 404 q 541 706 607 631 q 394 782 475 782 q 263 703 307 782 q 218 506 218 624 q 253 282 218 396 q 353 94 289 168 q 496 19 417 19 m 197 925 q 233 974 210 950 q 292 1031 256 999 q 369 1110 343 1078 q 396 1178 394 1142 l 560 1178 q 534 1099 560 1132 q 472 1046 508 1067 q 374 997 435 1025 q 282 954 317 974 q 229 908 247 935 l 197 925 z "},"ô":{"ha":896,"x_min":28,"x_max":868,"o":"m 449 -24 q 138 84 249 -24 q 28 394 28 192 q 139 713 28 600 q 449 825 250 825 q 757 715 646 825 q 868 406 868 606 q 759 86 868 196 q 449 -24 650 -24 m 496 19 q 632 99 583 19 q 681 296 681 179 q 644 517 681 404 q 541 706 607 631 q 394 782 475 782 q 263 703 307 782 q 218 506 218 624 q 253 282 218 396 q 353 94 289 168 q 496 19 417 19 m 544 925 q 528 993 544 957 q 479 1079 511 1029 q 447 1133 457 1115 l 415 1078 q 368 989 383 1022 q 353 925 353 956 l 192 925 q 219 988 192 961 q 303 1049 247 1015 q 390 1112 360 1085 q 426 1178 419 1139 l 468 1178 q 506 1112 475 1139 q 594 1049 536 1085 q 678 988 650 1014 q 707 925 707 961 l 544 925 z "},"ö":{"ha":896,"x_min":28,"x_max":868,"o":"m 449 -24 q 138 84 249 -24 q 28 394 28 192 q 139 713 28 600 q 449 825 250 825 q 757 715 646 825 q 868 406 868 606 q 759 86 868 196 q 449 -24 650 -24 m 496 19 q 632 99 583 19 q 681 296 681 179 q 644 517 681 404 q 541 706 607 631 q 394 782 475 782 q 263 703 307 782 q 218 506 218 624 q 253 282 218 396 q 353 94 289 168 q 496 19 417 19 m 354 975 q 306 994 326 975 q 286 1042 286 1014 q 306 1090 286 1071 q 354 1110 326 1110 q 401 1090 382 1110 q 421 1042 421 1071 q 401 994 421 1014 q 354 975 382 975 m 544 975 q 497 994 517 975 q 476 1042 476 1014 q 497 1090 476 1071 q 544 1110 517 1110 q 592 1090 572 1110 q 611 1042 611 1071 q 592 994 611 1014 q 544 975 572 975 z "},"ò":{"ha":896,"x_min":28,"x_max":868,"o":"m 449 -24 q 138 84 249 -24 q 28 394 28 192 q 139 713 28 600 q 449 825 250 825 q 757 715 646 825 q 868 406 868 606 q 759 86 868 196 q 449 -24 650 -24 m 496 19 q 632 99 583 19 q 681 296 681 179 q 644 517 681 404 q 541 706 607 631 q 394 782 475 782 q 263 703 307 782 q 218 506 218 624 q 253 282 218 396 q 353 94 289 168 q 496 19 417 19 m 603 908 q 550 954 585 935 q 458 997 515 974 q 360 1046 397 1025 q 298 1099 324 1067 q 272 1178 272 1132 l 436 1178 q 463 1110 438 1142 q 540 1031 489 1078 q 599 974 576 999 q 635 925 622 950 l 603 908 z "},"ő":{"ha":896,"x_min":28,"x_max":868,"o":"m 449 -24 q 138 84 249 -24 q 28 394 28 192 q 139 713 28 600 q 449 825 250 825 q 757 715 646 825 q 868 406 868 606 q 759 86 868 196 q 449 -24 650 -24 m 496 19 q 632 99 583 19 q 681 296 681 179 q 644 517 681 404 q 541 706 607 631 q 394 782 475 782 q 263 703 307 782 q 218 506 218 624 q 253 282 218 396 q 353 94 289 168 q 496 19 417 19 m 211 925 q 247 974 224 950 q 306 1031 269 999 q 383 1110 357 1078 q 410 1178 408 1142 l 574 1178 q 548 1099 574 1132 q 485 1046 522 1067 q 388 997 449 1025 q 296 954 331 974 q 243 908 261 935 l 211 925 m 421 924 q 454 971 433 949 q 515 1031 475 993 q 593 1110 568 1079 q 619 1176 618 1140 l 783 1176 q 758 1099 783 1131 q 695 1046 732 1067 q 599 999 658 1025 q 507 953 542 974 q 453 907 472 933 l 421 924 z "},"ō":{"ha":896,"x_min":28,"x_max":868,"o":"m 449 -24 q 138 84 249 -24 q 28 394 28 192 q 139 713 28 600 q 449 825 250 825 q 757 715 646 825 q 868 406 868 606 q 759 86 868 196 q 449 -24 650 -24 m 496 19 q 632 99 583 19 q 681 296 681 179 q 644 517 681 404 q 541 706 607 631 q 394 782 475 782 q 263 703 307 782 q 218 506 218 624 q 253 282 218 396 q 353 94 289 168 q 496 19 417 19 m 679 1003 l 218 1003 l 218 1044 l 679 1044 l 679 1003 z "},"ø":{"ha":896,"x_min":28,"x_max":868,"o":"m 601 804 q 799 665 729 768 q 868 406 868 563 q 759 86 868 196 q 449 -24 650 -24 q 367 -18 401 -24 l 307 -231 l 265 -231 l 328 -12 q 106 122 183 18 q 28 394 28 225 q 139 713 28 600 q 449 825 250 825 q 563 814 507 825 l 625 1033 l 667 1033 l 601 804 m 218 506 q 256 276 218 392 q 357 90 293 160 l 535 714 q 394 782 469 782 q 263 703 307 782 q 218 506 218 624 m 496 19 q 632 99 583 19 q 681 296 681 179 q 649 498 681 393 q 565 676 618 603 l 389 58 q 496 19 439 19 z "},"õ":{"ha":896,"x_min":28,"x_max":868,"o":"m 449 -24 q 138 84 249 -24 q 28 394 28 192 q 139 713 28 600 q 449 825 250 825 q 757 715 646 825 q 868 406 868 606 q 759 86 868 196 q 449 -24 650 -24 m 496 19 q 632 99 583 19 q 681 296 681 179 q 644 517 681 404 q 541 706 607 631 q 394 782 475 782 q 263 703 307 782 q 218 506 218 624 q 253 282 218 396 q 353 94 289 168 q 496 19 417 19 m 574 971 q 503 983 542 971 q 408 1017 465 994 q 330 1045 360 1036 q 279 1054 300 1054 q 229 1000 229 1054 l 208 1000 q 244 1113 208 1074 q 325 1151 281 1151 q 397 1139 357 1151 q 492 1103 436 1126 q 531 1088 500 1100 q 585 1070 563 1076 q 622 1064 607 1064 q 652 1075 642 1064 q 663 1113 663 1086 l 685 1113 q 652 1006 685 1040 q 574 971 619 971 z "},"œ":{"ha":1567,"x_min":28,"x_max":1536,"o":"m 454 -24 q 229 26 325 -24 q 81 171 133 76 q 28 397 28 265 q 135 715 28 606 q 446 825 242 825 q 644 781 554 825 q 788 658 735 736 q 946 783 844 740 q 1176 825 1047 825 q 1368 794 1289 825 q 1488 712 1447 763 q 1528 601 1528 661 q 1475 460 1528 517 q 1344 377 1422 403 q 1189 354 1267 351 l 1149 356 q 1040 336 1081 356 q 975 267 1000 317 l 953 332 q 996 378 965 367 q 1089 390 1026 390 l 1165 389 q 1284 446 1244 389 q 1324 601 1324 503 q 1285 733 1324 683 q 1165 782 1246 782 q 1037 737 1096 782 q 942 609 978 692 q 907 419 907 526 q 955 210 907 301 q 1076 71 1003 119 q 1221 22 1150 22 q 1292 41 1260 22 q 1347 87 1324 60 q 1404 161 1369 114 q 1464 239 1439 210 q 1521 288 1489 268 l 1536 103 q 1432 60 1504 94 q 1292 0 1356 21 q 1147 -21 1228 -21 q 956 24 1051 -21 q 800 153 860 69 q 663 20 753 64 q 454 -24 574 -24 m 496 19 q 631 99 586 19 q 675 297 675 178 q 664 418 675 356 q 608 601 647 518 q 514 733 569 685 q 397 782 458 782 q 267 702 310 782 q 224 503 224 622 q 236 374 224 449 q 290 196 251 276 q 381 67 328 115 q 496 19 435 19 z "},"p":{"ha":890,"x_min":60,"x_max":863,"o":"m 563 822 q 712 778 643 822 q 822 651 781 733 q 863 456 863 568 q 806 205 863 314 q 659 38 750 96 q 465 -21 568 -21 q 264 46 356 -21 l 264 -235 l 60 -235 l 60 803 l 264 803 l 264 644 q 402 778 324 733 q 563 822 481 822 m 417 56 q 539 97 483 56 q 627 217 594 139 q 660 399 660 294 q 608 640 660 557 q 478 724 557 724 q 369 685 425 724 q 264 572 314 647 l 264 110 q 417 56 338 56 z "},"þ":{"ha":890,"x_min":60,"x_max":863,"o":"m 563 822 q 712 778 643 822 q 822 651 781 733 q 863 456 863 568 q 806 205 863 314 q 659 38 750 96 q 465 -21 568 -21 q 264 46 356 -21 l 264 -235 l 60 -235 l 60 975 l 264 975 l 264 644 q 402 778 324 733 q 563 822 481 822 m 417 56 q 539 97 483 56 q 627 217 594 139 q 660 399 660 294 q 608 640 660 557 q 478 724 557 724 q 369 685 425 724 q 264 572 314 647 l 264 110 q 417 56 338 56 z "},"q":{"ha":897,"x_min":28,"x_max":840,"o":"m 635 119 q 495 15 572 54 q 342 -24 418 -24 q 181 31 253 -24 q 69 183 110 86 q 28 404 28 281 q 75 644 28 550 q 198 782 122 739 q 363 825 274 825 q 444 813 403 825 q 542 781 485 801 q 636 749 600 760 q 707 739 672 739 q 833 803 789 739 l 840 803 l 839 -235 l 635 -235 l 635 119 m 432 56 q 535 85 482 56 q 635 168 589 114 l 635 703 q 557 728 603 708 q 501 748 524 742 q 451 754 478 754 q 295 674 358 754 q 232 404 232 593 q 288 144 232 232 q 432 56 344 56 z "},"r":{"ha":732,"x_min":60,"x_max":729,"o":"m 60 0 l 60 803 l 264 803 l 264 556 q 372 753 303 682 q 540 825 440 825 q 633 814 581 825 q 729 803 689 803 l 729 599 q 670 613 697 599 q 601 660 643 628 q 534 708 564 692 q 469 725 504 724 q 337 640 386 724 q 264 450 288 556 l 264 0 l 60 0 z "},"ŕ":{"ha":732,"x_min":60,"x_max":729,"o":"m 60 0 l 60 803 l 264 803 l 264 556 q 372 753 303 682 q 540 825 440 825 q 633 814 581 825 q 729 803 689 803 l 729 599 q 670 613 697 599 q 601 660 643 628 q 534 708 564 692 q 469 725 504 724 q 337 640 386 724 q 264 450 288 556 l 264 0 l 60 0 m 115 925 q 151 974 128 950 q 210 1031 174 999 q 287 1110 261 1078 q 314 1178 313 1142 l 478 1178 q 452 1099 478 1132 q 390 1046 426 1067 q 292 997 353 1025 q 200 954 235 974 q 147 908 165 935 l 115 925 z "},"ř":{"ha":732,"x_min":60,"x_max":729,"o":"m 60 0 l 60 803 l 264 803 l 264 556 q 372 753 303 682 q 540 825 440 825 q 633 814 581 825 q 729 803 689 803 l 729 599 q 670 613 697 599 q 601 660 643 628 q 534 708 564 692 q 469 725 504 724 q 337 640 386 724 q 264 450 288 556 l 264 0 l 60 0 m 625 1178 q 597 1115 625 1142 q 513 1054 568 1089 q 424 991 454 1018 q 386 925 393 964 l 344 925 q 308 991 338 964 q 221 1054 278 1018 q 138 1115 165 1088 q 110 1178 110 1142 l 271 1178 q 286 1114 271 1147 q 333 1025 301 1081 l 365 969 q 397 1024 375 988 q 446 1110 429 1074 q 463 1178 463 1146 l 625 1178 z "},"ŗ":{"ha":732,"x_min":19,"x_max":729,"o":"m 60 0 l 60 803 l 264 803 l 264 556 q 372 753 303 682 q 540 825 440 825 q 633 814 581 825 q 729 803 689 803 l 729 599 q 670 613 697 599 q 601 660 643 628 q 534 708 564 692 q 469 725 504 724 q 337 640 386 724 q 264 450 288 556 l 264 0 l 60 0 m 19 -433 q 94 -282 94 -362 q 75 -187 94 -243 q 67 -160 74 -182 q 61 -121 61 -139 l 265 -121 q 201 -312 265 -225 q 28 -443 136 -399 l 19 -433 z "},"s":{"ha":772,"x_min":29,"x_max":756,"o":"m 471 -24 q 378 -17 421 -24 q 285 1 335 -11 q 219 15 253 8 q 156 21 185 21 q 29 0 89 21 l 29 206 q 133 181 85 206 q 249 108 181 157 q 360 36 314 60 q 461 13 407 13 q 566 49 521 13 q 611 143 611 86 q 579 213 611 182 q 500 268 547 244 q 368 326 453 292 q 194 404 260 369 q 81 492 128 439 q 33 619 33 546 q 135 783 33 740 q 357 825 238 825 q 441 820 401 825 q 540 804 481 815 q 608 792 574 797 q 667 788 642 788 q 738 800 703 788 l 738 596 l 725 596 q 667 613 692 596 q 606 669 643 631 q 538 733 568 708 q 459 775 507 757 q 347 793 411 793 q 235 771 290 793 q 181 694 181 749 q 211 629 181 658 q 288 577 242 600 q 415 519 333 554 q 591 438 524 474 q 707 346 658 401 q 756 215 756 290 q 677 38 756 100 q 471 -24 599 -24 z "},"ś":{"ha":772,"x_min":29,"x_max":756,"o":"m 471 -24 q 378 -17 421 -24 q 285 1 335 -11 q 219 15 253 8 q 156 21 185 21 q 29 0 89 21 l 29 206 q 133 181 85 206 q 249 108 181 157 q 360 36 314 60 q 461 13 407 13 q 566 49 521 13 q 611 143 611 86 q 579 213 611 182 q 500 268 547 244 q 368 326 453 292 q 194 404 260 369 q 81 492 128 439 q 33 619 33 546 q 135 783 33 740 q 357 825 238 825 q 441 820 401 825 q 540 804 481 815 q 608 792 574 797 q 667 788 642 788 q 738 800 703 788 l 738 596 l 725 596 q 667 613 692 596 q 606 669 643 631 q 538 733 568 708 q 459 775 507 757 q 347 793 411 793 q 235 771 290 793 q 181 694 181 749 q 211 629 181 658 q 288 577 242 600 q 415 519 333 554 q 591 438 524 474 q 707 346 658 401 q 756 215 756 290 q 677 38 756 100 q 471 -24 599 -24 m 133 925 q 169 974 146 950 q 228 1031 192 999 q 305 1110 279 1078 q 332 1178 331 1142 l 496 1178 q 470 1099 496 1132 q 408 1046 444 1067 q 310 997 371 1025 q 218 954 253 974 q 165 908 183 935 l 133 925 z "},"š":{"ha":772,"x_min":29,"x_max":756,"o":"m 471 -24 q 378 -17 421 -24 q 285 1 335 -11 q 219 15 253 8 q 156 21 185 21 q 29 0 89 21 l 29 206 q 133 181 85 206 q 249 108 181 157 q 360 36 314 60 q 461 13 407 13 q 566 49 521 13 q 611 143 611 86 q 579 213 611 182 q 500 268 547 244 q 368 326 453 292 q 194 404 260 369 q 81 492 128 439 q 33 619 33 546 q 135 783 33 740 q 357 825 238 825 q 441 820 401 825 q 540 804 481 815 q 608 792 574 797 q 667 788 642 788 q 738 800 703 788 l 738 596 l 725 596 q 667 613 692 596 q 606 669 643 631 q 538 733 568 708 q 459 775 507 757 q 347 793 411 793 q 235 771 290 793 q 181 694 181 749 q 211 629 181 658 q 288 577 242 600 q 415 519 333 554 q 591 438 524 474 q 707 346 658 401 q 756 215 756 290 q 677 38 756 100 q 471 -24 599 -24 m 643 1178 q 615 1115 643 1142 q 531 1054 586 1089 q 442 991 472 1018 q 404 925 411 964 l 363 925 q 326 991 356 964 q 239 1054 296 1018 q 156 1115 183 1088 q 128 1178 128 1142 l 289 1178 q 304 1114 289 1147 q 351 1025 319 1081 l 383 969 q 415 1024 393 988 q 464 1110 447 1074 q 481 1178 481 1146 l 643 1178 z "},"ş":{"ha":772,"x_min":29,"x_max":756,"o":"m 471 -24 q 379 -17 425 -24 l 364 -71 l 417 -71 q 504 -98 475 -71 q 533 -168 533 -125 q 450 -306 533 -268 q 208 -354 367 -344 l 208 -333 q 432 -183 432 -306 q 414 -125 432 -147 q 364 -103 396 -103 l 308 -103 l 336 -10 l 282 1 q 217 15 250 8 q 156 21 185 21 q 29 0 89 21 l 29 206 q 133 181 85 206 q 249 108 181 157 q 360 36 314 60 q 461 13 407 13 q 566 49 521 13 q 611 143 611 86 q 579 213 611 182 q 500 268 547 244 q 368 326 453 292 q 194 404 260 369 q 81 492 128 439 q 33 619 33 546 q 135 783 33 740 q 357 825 238 825 q 441 820 401 825 q 540 804 481 815 q 608 792 574 797 q 667 788 642 788 q 738 800 703 788 l 738 596 l 725 596 q 667 613 692 596 q 606 669 643 631 q 538 733 568 708 q 459 775 507 757 q 347 793 411 793 q 235 771 290 793 q 181 694 181 749 q 211 629 181 658 q 288 577 242 600 q 415 519 333 554 q 591 438 524 474 q 707 346 658 401 q 756 215 756 290 q 677 38 756 100 q 471 -24 599 -24 z "},"ș":{"ha":772,"x_min":29,"x_max":756,"o":"m 471 -24 q 378 -17 421 -24 q 285 1 335 -11 q 219 15 253 8 q 156 21 185 21 q 29 0 89 21 l 29 206 q 133 181 85 206 q 249 108 181 157 q 360 36 314 60 q 461 13 407 13 q 566 49 521 13 q 611 143 611 86 q 579 213 611 182 q 500 268 547 244 q 368 326 453 292 q 194 404 260 369 q 81 492 128 439 q 33 619 33 546 q 135 783 33 740 q 357 825 238 825 q 441 820 401 825 q 540 804 481 815 q 608 792 574 797 q 667 788 642 788 q 738 800 703 788 l 738 596 l 725 596 q 667 613 692 596 q 606 669 643 631 q 538 733 568 708 q 459 775 507 757 q 347 793 411 793 q 235 771 290 793 q 181 694 181 749 q 211 629 181 658 q 288 577 242 600 q 415 519 333 554 q 591 438 524 474 q 707 346 658 401 q 756 215 756 290 q 677 38 756 100 q 471 -24 599 -24 m 235 -433 q 310 -282 310 -362 q 290 -187 310 -243 q 283 -160 289 -182 q 276 -121 276 -139 l 481 -121 q 416 -312 481 -225 q 243 -443 351 -399 l 235 -433 z "},"ß":{"ha":981,"x_min":28,"x_max":953,"o":"m 647 -24 q 458 27 544 -24 q 314 172 371 78 l 349 203 q 449 90 392 128 q 565 51 507 51 q 669 97 628 51 q 711 215 711 143 q 651 393 711 297 q 465 579 592 489 q 550 715 511 643 q 606 876 606 813 q 576 954 606 926 q 499 982 547 982 q 378 937 440 982 q 274 801 315 892 q 232 586 232 711 l 232 0 l 28 0 l 28 622 q 90 847 28 754 q 246 984 151 939 q 438 1029 340 1029 q 604 983 540 1029 q 668 856 668 936 q 665 819 668 832 q 632 714 657 771 q 874 494 794 613 q 953 264 953 375 q 914 117 953 182 q 806 14 875 51 q 647 -24 736 -24 z "},"t":{"ha":622,"x_min":-3,"x_max":622,"o":"m 331 -24 q 144 40 208 -24 q 81 213 81 104 l 81 697 q 62 752 81 735 q -3 776 43 769 l -3 803 q 135 844 78 803 q 223 952 193 886 q 257 1093 253 1018 l 283 1093 l 285 803 l 479 803 l 479 761 l 285 761 l 285 168 q 308 54 285 93 q 371 15 331 15 q 426 40 403 15 q 479 114 450 64 q 544 203 514 174 q 622 233 574 233 l 622 28 q 583 32 601 32 q 534 26 558 32 q 479 7 510 19 q 401 -16 432 -8 q 331 -24 371 -24 z "},"ŧ":{"ha":622,"x_min":-3,"x_max":622,"o":"m 371 15 q 426 40 403 15 q 479 114 450 64 q 544 203 514 174 q 622 233 574 233 l 622 28 q 583 32 601 32 q 534 26 558 32 q 479 7 510 19 q 401 -16 432 -8 q 331 -24 371 -24 q 144 40 208 -24 q 81 213 81 104 l 81 379 l 26 379 l 26 421 l 81 421 l 81 697 q 62 752 81 735 q -3 776 43 769 l -3 803 q 135 844 78 803 q 223 952 193 886 q 257 1093 253 1018 l 283 1093 l 285 803 l 479 803 l 479 761 l 285 761 l 285 421 l 372 421 l 372 379 l 285 379 l 285 168 q 308 54 285 93 q 371 15 331 15 z "},"ť":{"ha":782,"x_min":-3,"x_max":801,"o":"m 331 -24 q 144 40 208 -24 q 81 213 81 104 l 81 697 q 62 752 81 735 q -3 776 43 769 l -3 803 q 135 844 78 803 q 223 952 193 886 q 257 1093 253 1018 l 283 1093 l 285 803 l 479 803 l 479 761 l 285 761 l 285 168 q 308 54 285 93 q 371 15 331 15 q 426 40 403 15 q 479 114 450 64 q 544 203 514 174 q 622 233 574 233 l 622 28 q 583 32 601 32 q 534 26 558 32 q 479 7 510 19 q 401 -16 432 -8 q 331 -24 371 -24 m 575 663 q 649 814 649 736 q 631 908 649 849 q 623 935 629 914 q 617 975 617 957 l 801 975 q 744 783 801 868 q 582 653 688 697 l 575 663 z "},"ţ":{"ha":622,"x_min":-3,"x_max":622,"o":"m 371 15 q 426 40 403 15 q 479 114 450 64 q 544 203 514 174 q 622 233 574 233 l 622 28 q 583 32 601 32 q 534 26 558 32 q 479 7 510 19 q 401 -16 432 -8 q 331 -24 371 -24 l 307 -24 l 293 -71 l 346 -71 q 433 -98 404 -71 q 463 -168 463 -125 q 379 -306 463 -268 q 138 -354 296 -344 l 138 -333 q 361 -183 361 -306 q 343 -125 361 -147 q 293 -103 325 -103 l 238 -103 l 263 -18 q 127 60 174 0 q 81 213 81 121 l 81 697 q 62 752 81 735 q -3 776 43 769 l -3 803 q 135 844 78 803 q 223 952 193 886 q 257 1093 253 1018 l 283 1093 l 285 803 l 479 803 l 479 761 l 285 761 l 285 168 q 308 54 285 93 q 371 15 331 15 z "},"ț":{"ha":622,"x_min":-3,"x_max":622,"o":"m 331 -24 q 144 40 208 -24 q 81 213 81 104 l 81 697 q 62 752 81 735 q -3 776 43 769 l -3 803 q 135 844 78 803 q 223 952 193 886 q 257 1093 253 1018 l 283 1093 l 285 803 l 479 803 l 479 761 l 285 761 l 285 168 q 308 54 285 93 q 371 15 331 15 q 426 40 403 15 q 479 114 450 64 q 544 203 514 174 q 622 233 574 233 l 622 28 q 583 32 601 32 q 534 26 558 32 q 479 7 510 19 q 401 -16 432 -8 q 331 -24 371 -24 m 163 -433 q 238 -282 238 -362 q 218 -187 238 -243 q 210 -160 217 -182 q 204 -121 204 -139 l 408 -121 q 344 -312 408 -225 q 171 -443 279 -399 l 163 -433 z "},"u":{"ha":850,"x_min":49,"x_max":804,"o":"m 351 -24 q 198 6 267 -24 q 89 92 129 35 q 49 231 49 150 l 49 803 l 253 803 l 253 199 q 293 63 253 104 q 399 21 333 21 q 469 28 440 21 q 532 49 497 35 q 600 69 586 71 l 600 803 l 804 803 l 804 0 l 764 0 q 672 56 724 56 q 628 49 651 56 q 567 26 606 42 q 458 -11 504 1 q 351 -24 411 -24 z "},"ú":{"ha":850,"x_min":49,"x_max":804,"o":"m 351 -24 q 198 6 267 -24 q 89 92 129 35 q 49 231 49 150 l 49 803 l 253 803 l 253 199 q 293 63 253 104 q 399 21 333 21 q 469 28 440 21 q 532 49 497 35 q 600 69 586 71 l 600 803 l 804 803 l 804 0 l 764 0 q 672 56 724 56 q 628 49 651 56 q 567 26 606 42 q 458 -11 504 1 q 351 -24 411 -24 m 174 925 q 209 974 186 950 q 268 1031 232 999 q 345 1110 319 1078 q 372 1178 371 1142 l 536 1178 q 510 1099 536 1132 q 448 1046 485 1067 q 350 997 411 1025 q 258 954 293 974 q 206 908 224 935 l 174 925 z "},"û":{"ha":850,"x_min":49,"x_max":804,"o":"m 351 -24 q 198 6 267 -24 q 89 92 129 35 q 49 231 49 150 l 49 803 l 253 803 l 253 199 q 293 63 253 104 q 399 21 333 21 q 469 28 440 21 q 532 49 497 35 q 600 69 586 71 l 600 803 l 804 803 l 804 0 l 764 0 q 672 56 724 56 q 628 49 651 56 q 567 26 606 42 q 458 -11 504 1 q 351 -24 411 -24 m 521 925 q 504 993 521 957 q 456 1079 488 1029 q 424 1133 433 1115 l 392 1078 q 344 989 360 1022 q 329 925 329 956 l 168 925 q 196 988 168 961 q 279 1049 224 1015 q 366 1112 336 1085 q 403 1178 396 1139 l 444 1178 q 482 1112 451 1139 q 571 1049 513 1085 q 655 988 626 1014 q 683 925 683 961 l 521 925 z "},"ü":{"ha":850,"x_min":49,"x_max":804,"o":"m 351 -24 q 198 6 267 -24 q 89 92 129 35 q 49 231 49 150 l 49 803 l 253 803 l 253 199 q 293 63 253 104 q 399 21 333 21 q 469 28 440 21 q 532 49 497 35 q 600 69 586 71 l 600 803 l 804 803 l 804 0 l 764 0 q 672 56 724 56 q 628 49 651 56 q 567 26 606 42 q 458 -11 504 1 q 351 -24 411 -24 m 331 975 q 283 994 303 975 q 263 1042 263 1014 q 283 1090 263 1071 q 331 1110 303 1110 q 378 1090 358 1110 q 397 1042 397 1071 q 378 994 397 1014 q 331 975 358 975 m 521 975 q 473 994 493 975 q 453 1042 453 1014 q 473 1090 453 1071 q 521 1110 493 1110 q 568 1090 549 1110 q 588 1042 588 1071 q 568 994 588 1014 q 521 975 549 975 z "},"ù":{"ha":850,"x_min":49,"x_max":804,"o":"m 351 -24 q 198 6 267 -24 q 89 92 129 35 q 49 231 49 150 l 49 803 l 253 803 l 253 199 q 293 63 253 104 q 399 21 333 21 q 469 28 440 21 q 532 49 497 35 q 600 69 586 71 l 600 803 l 804 803 l 804 0 l 764 0 q 672 56 724 56 q 628 49 651 56 q 567 26 606 42 q 458 -11 504 1 q 351 -24 411 -24 m 579 908 q 526 954 561 935 q 435 997 492 974 q 337 1046 374 1025 q 274 1099 300 1067 q 249 1178 249 1132 l 413 1178 q 440 1110 414 1142 q 517 1031 465 1078 q 576 974 553 999 q 611 925 599 950 l 579 908 z "},"ű":{"ha":850,"x_min":49,"x_max":804,"o":"m 351 -24 q 198 6 267 -24 q 89 92 129 35 q 49 231 49 150 l 49 803 l 253 803 l 253 199 q 293 63 253 104 q 399 21 333 21 q 469 28 440 21 q 532 49 497 35 q 600 69 586 71 l 600 803 l 804 803 l 804 0 l 764 0 q 672 56 724 56 q 628 49 651 56 q 567 26 606 42 q 458 -11 504 1 q 351 -24 411 -24 m 189 925 q 224 974 201 950 q 283 1031 247 999 q 360 1110 335 1078 q 388 1178 386 1142 l 551 1178 q 526 1099 551 1132 q 463 1046 500 1067 q 365 997 426 1025 q 274 954 308 974 q 221 908 239 935 l 189 925 m 399 924 q 432 971 411 949 q 493 1031 453 993 q 571 1110 546 1079 q 597 1176 596 1140 l 761 1176 q 735 1099 761 1131 q 673 1046 710 1067 q 576 999 636 1025 q 485 953 519 974 q 431 907 450 933 l 399 924 z "},"ū":{"ha":850,"x_min":49,"x_max":804,"o":"m 351 -24 q 198 6 267 -24 q 89 92 129 35 q 49 231 49 150 l 49 803 l 253 803 l 253 199 q 293 63 253 104 q 399 21 333 21 q 469 28 440 21 q 532 49 497 35 q 600 69 586 71 l 600 803 l 804 803 l 804 0 l 764 0 q 672 56 724 56 q 628 49 651 56 q 567 26 606 42 q 458 -11 504 1 q 351 -24 411 -24 m 657 1003 l 196 1003 l 196 1044 l 657 1044 l 657 1003 z "},"ų":{"ha":850,"x_min":49,"x_max":804,"o":"m 600 803 l 804 803 l 804 -15 q 685 -64 724 -24 q 646 -160 646 -104 q 670 -226 646 -201 q 731 -250 694 -250 q 797 -228 765 -250 l 804 -292 q 653 -347 732 -347 q 543 -308 588 -347 q 499 -199 499 -268 q 528 -103 499 -149 q 618 -29 558 -58 q 764 0 678 0 q 672 56 724 56 q 628 49 651 56 q 567 26 606 42 q 458 -11 504 1 q 351 -24 411 -24 q 198 6 267 -24 q 89 92 129 35 q 49 231 49 150 l 49 803 l 253 803 l 253 199 q 293 63 253 104 q 399 21 333 21 q 469 28 440 21 q 532 49 497 35 q 600 69 586 71 l 600 803 z "},"ů":{"ha":850,"x_min":49,"x_max":804,"o":"m 351 -24 q 198 6 267 -24 q 89 92 129 35 q 49 231 49 150 l 49 803 l 253 803 l 253 199 q 293 63 253 104 q 399 21 333 21 q 469 28 440 21 q 532 49 497 35 q 600 69 586 71 l 600 803 l 804 803 l 804 0 l 764 0 q 672 56 724 56 q 628 49 651 56 q 567 26 606 42 q 458 -11 504 1 q 351 -24 411 -24 m 422 915 q 333 952 369 915 q 296 1042 296 989 q 333 1131 296 1094 q 422 1168 369 1168 q 512 1131 475 1168 q 549 1042 549 1094 q 512 952 549 989 q 422 915 475 915 m 422 986 q 462 1002 446 986 q 478 1042 478 1018 q 462 1081 478 1065 q 422 1097 446 1097 q 383 1081 399 1097 q 367 1042 367 1065 q 383 1002 367 1018 q 422 986 399 986 z "},"v":{"ha":744,"x_min":-39,"x_max":753,"o":"m 575 456 l 547 803 l 753 803 l 443 0 l 269 0 l -39 803 l 165 803 l 438 97 l 575 456 z "},"w":{"ha":1276,"x_min":-39,"x_max":1285,"o":"m 271 0 l -39 803 l 164 803 l 408 175 l 543 524 q 576 685 576 611 q 543 804 576 763 l 739 804 l 989 160 l 1125 507 q 1161 708 1161 603 q 1149 803 1161 768 l 1285 803 l 974 0 l 846 0 l 617 603 l 385 0 l 271 0 z "},"ẃ":{"ha":1276,"x_min":-39,"x_max":1285,"o":"m 271 0 l -39 803 l 164 803 l 408 175 l 543 524 q 576 685 576 611 q 543 804 576 763 l 739 804 l 989 160 l 1125 507 q 1161 708 1161 603 q 1149 803 1161 768 l 1285 803 l 974 0 l 846 0 l 617 603 l 385 0 l 271 0 m 388 925 q 423 974 400 950 q 482 1031 446 999 q 559 1110 533 1078 q 586 1178 585 1142 l 750 1178 q 724 1099 750 1132 q 662 1046 699 1067 q 564 997 625 1025 q 472 954 507 974 q 419 908 438 935 l 388 925 z "},"ŵ":{"ha":1276,"x_min":-39,"x_max":1285,"o":"m 271 0 l -39 803 l 164 803 l 408 175 l 543 524 q 576 685 576 611 q 543 804 576 763 l 739 804 l 989 160 l 1125 507 q 1161 708 1161 603 q 1149 803 1161 768 l 1285 803 l 974 0 l 846 0 l 617 603 l 385 0 l 271 0 m 735 925 q 718 993 735 957 q 669 1079 701 1029 q 638 1133 647 1115 l 606 1078 q 558 989 574 1022 q 543 925 543 956 l 382 925 q 410 988 382 961 q 493 1049 438 1015 q 580 1112 550 1085 q 617 1178 610 1139 l 658 1178 q 696 1112 665 1139 q 785 1049 726 1085 q 869 988 840 1014 q 897 925 897 961 l 735 925 z "},"ẅ":{"ha":1276,"x_min":-39,"x_max":1285,"o":"m 271 0 l -39 803 l 164 803 l 408 175 l 543 524 q 576 685 576 611 q 543 804 576 763 l 739 804 l 989 160 l 1125 507 q 1161 708 1161 603 q 1149 803 1161 768 l 1285 803 l 974 0 l 846 0 l 617 603 l 385 0 l 271 0 m 544 975 q 497 994 517 975 q 476 1042 476 1014 q 497 1090 476 1071 q 544 1110 517 1110 q 592 1090 572 1110 q 611 1042 611 1071 q 592 994 611 1014 q 544 975 572 975 m 735 975 q 687 994 707 975 q 667 1042 667 1014 q 687 1090 667 1071 q 735 1110 707 1110 q 782 1090 763 1110 q 801 1042 801 1071 q 782 994 801 1014 q 735 975 763 975 z "},"ẁ":{"ha":1276,"x_min":-39,"x_max":1285,"o":"m 271 0 l -39 803 l 164 803 l 408 175 l 543 524 q 576 685 576 611 q 543 804 576 763 l 739 804 l 989 160 l 1125 507 q 1161 708 1161 603 q 1149 803 1161 768 l 1285 803 l 974 0 l 846 0 l 617 603 l 385 0 l 271 0 m 793 908 q 740 954 775 935 q 649 997 706 974 q 551 1046 588 1025 q 488 1099 514 1067 q 463 1178 463 1132 l 626 1178 q 653 1110 628 1142 q 731 1031 679 1078 q 790 974 767 999 q 825 925 813 950 l 793 908 z "},"x":{"ha":808,"x_min":-61,"x_max":863,"o":"m -61 0 l 324 379 l -17 803 l 206 803 l 475 465 l 531 521 q 654 671 629 621 q 680 756 679 721 q 681 803 681 790 l 863 803 l 494 439 l 842 0 l 629 0 l 343 354 l 271 282 q 160 156 193 204 q 124 81 128 107 q 119 0 119 56 l -61 0 z "},"y":{"ha":714,"x_min":-104,"x_max":758,"o":"m 254 -301 q 194 -294 228 -301 q 126 -279 160 -287 q 41 -260 75 -267 q -26 -253 7 -253 q -104 -265 -72 -253 l -104 -79 q -13 -102 -53 -79 q 78 -169 26 -125 q 154 -227 121 -206 q 226 -257 188 -249 q 254 -260 246 -260 q 341 -223 308 -260 q 374 -118 374 -186 q 326 68 374 -36 l -10 803 l 194 803 l 488 158 l 556 353 q 592 567 592 451 q 580 694 592 633 q 550 803 568 756 l 758 803 l 508 99 q 525 -14 525 39 q 488 -164 525 -99 q 388 -265 450 -229 q 254 -301 326 -301 z "},"ý":{"ha":714,"x_min":-104,"x_max":758,"o":"m 254 -301 q 194 -294 228 -301 q 126 -279 160 -287 q 41 -260 75 -267 q -26 -253 7 -253 q -104 -265 -72 -253 l -104 -79 q -13 -102 -53 -79 q 78 -169 26 -125 q 154 -227 121 -206 q 226 -257 188 -249 q 254 -260 246 -260 q 341 -223 308 -260 q 374 -118 374 -186 q 326 68 374 -36 l -10 803 l 194 803 l 488 158 l 556 353 q 592 567 592 451 q 580 694 592 633 q 550 803 568 756 l 758 803 l 508 99 q 525 -14 525 39 q 488 -164 525 -99 q 388 -265 450 -229 q 254 -301 326 -301 m 106 925 q 141 974 118 950 q 200 1031 164 999 q 277 1110 251 1078 q 304 1178 303 1142 l 468 1178 q 442 1099 468 1132 q 380 1046 417 1067 q 282 997 343 1025 q 190 954 225 974 q 138 908 156 935 l 106 925 z "},"ŷ":{"ha":714,"x_min":-104,"x_max":758,"o":"m 254 -301 q 194 -294 228 -301 q 126 -279 160 -287 q 41 -260 75 -267 q -26 -253 7 -253 q -104 -265 -72 -253 l -104 -79 q -13 -102 -53 -79 q 78 -169 26 -125 q 154 -227 121 -206 q 226 -257 188 -249 q 254 -260 246 -260 q 341 -223 308 -260 q 374 -118 374 -186 q 326 68 374 -36 l -10 803 l 194 803 l 488 158 l 556 353 q 592 567 592 451 q 580 694 592 633 q 550 803 568 756 l 758 803 l 508 99 q 525 -14 525 39 q 488 -164 525 -99 q 388 -265 450 -229 q 254 -301 326 -301 m 453 925 q 436 993 453 957 q 388 1079 419 1029 q 356 1133 365 1115 l 324 1078 q 276 989 292 1022 q 261 925 261 956 l 100 925 q 128 988 100 961 q 211 1049 156 1015 q 298 1112 268 1085 q 335 1178 328 1139 l 376 1178 q 414 1112 383 1139 q 503 1049 444 1085 q 587 988 558 1014 q 615 925 615 961 l 453 925 z "},"ÿ":{"ha":714,"x_min":-104,"x_max":758,"o":"m 254 -301 q 194 -294 228 -301 q 126 -279 160 -287 q 41 -260 75 -267 q -26 -253 7 -253 q -104 -265 -72 -253 l -104 -79 q -13 -102 -53 -79 q 78 -169 26 -125 q 154 -227 121 -206 q 226 -257 188 -249 q 254 -260 246 -260 q 341 -223 308 -260 q 374 -118 374 -186 q 326 68 374 -36 l -10 803 l 194 803 l 488 158 l 556 353 q 592 567 592 451 q 580 694 592 633 q 550 803 568 756 l 758 803 l 508 99 q 525 -14 525 39 q 488 -164 525 -99 q 388 -265 450 -229 q 254 -301 326 -301 m 263 975 q 215 994 235 975 q 194 1042 194 1014 q 215 1090 194 1071 q 263 1110 235 1110 q 310 1090 290 1110 q 329 1042 329 1071 q 310 994 329 1014 q 263 975 290 975 m 453 975 q 405 994 425 975 q 385 1042 385 1014 q 405 1090 385 1071 q 453 1110 425 1110 q 500 1090 481 1110 q 519 1042 519 1071 q 500 994 519 1014 q 453 975 481 975 z "},"ỳ":{"ha":714,"x_min":-104,"x_max":758,"o":"m 254 -301 q 194 -294 228 -301 q 126 -279 160 -287 q 41 -260 75 -267 q -26 -253 7 -253 q -104 -265 -72 -253 l -104 -79 q -13 -102 -53 -79 q 78 -169 26 -125 q 154 -227 121 -206 q 226 -257 188 -249 q 254 -260 246 -260 q 341 -223 308 -260 q 374 -118 374 -186 q 326 68 374 -36 l -10 803 l 194 803 l 488 158 l 556 353 q 592 567 592 451 q 580 694 592 633 q 550 803 568 756 l 758 803 l 508 99 q 525 -14 525 39 q 488 -164 525 -99 q 388 -265 450 -229 q 254 -301 326 -301 m 511 908 q 458 954 493 935 q 367 997 424 974 q 269 1046 306 1025 q 206 1099 232 1067 q 181 1178 181 1132 l 344 1178 q 372 1110 346 1142 q 449 1031 397 1078 q 508 974 485 999 q 543 925 531 950 l 511 908 z "},"z":{"ha":783,"x_min":13,"x_max":786,"o":"m 13 0 l 554 760 l 447 760 q 333 737 382 760 q 221 669 283 714 q 131 613 169 632 q 44 594 92 594 l 44 803 q 188 779 108 779 q 326 790 232 779 q 388 797 338 792 q 488 803 439 803 l 786 803 l 247 44 l 371 44 q 517 72 460 46 q 633 143 574 97 q 709 192 678 176 q 781 208 740 208 l 781 0 q 633 22 714 22 q 486 11 586 22 q 430 6 471 10 q 354 0 389 1 l 13 0 z "},"ź":{"ha":783,"x_min":13,"x_max":786,"o":"m 13 0 l 554 760 l 447 760 q 333 737 382 760 q 221 669 283 714 q 131 613 169 632 q 44 594 92 594 l 44 803 q 188 779 108 779 q 326 790 232 779 q 388 797 338 792 q 488 803 439 803 l 786 803 l 247 44 l 371 44 q 517 72 460 46 q 633 143 574 97 q 709 192 678 176 q 781 208 740 208 l 781 0 q 633 22 714 22 q 486 11 586 22 q 430 6 471 10 q 354 0 389 1 l 13 0 m 140 925 q 176 974 153 950 q 235 1031 199 999 q 312 1110 286 1078 q 339 1178 338 1142 l 503 1178 q 477 1099 503 1132 q 415 1046 451 1067 q 317 997 378 1025 q 225 954 260 974 q 172 908 190 935 l 140 925 z "},"ž":{"ha":783,"x_min":13,"x_max":786,"o":"m 13 0 l 554 760 l 447 760 q 333 737 382 760 q 221 669 283 714 q 131 613 169 632 q 44 594 92 594 l 44 803 q 188 779 108 779 q 326 790 232 779 q 388 797 338 792 q 488 803 439 803 l 786 803 l 247 44 l 371 44 q 517 72 460 46 q 633 143 574 97 q 709 192 678 176 q 781 208 740 208 l 781 0 q 633 22 714 22 q 486 11 586 22 q 430 6 471 10 q 354 0 389 1 l 13 0 m 650 1178 q 622 1115 650 1142 q 538 1054 593 1089 q 449 991 479 1018 q 411 925 418 964 l 369 925 q 333 991 363 964 q 246 1054 303 1018 q 163 1115 190 1088 q 135 1178 135 1142 l 296 1178 q 311 1114 296 1147 q 358 1025 326 1081 l 390 969 q 422 1024 400 988 q 471 1110 454 1074 q 488 1178 488 1146 l 650 1178 z "},"ż":{"ha":783,"x_min":13,"x_max":786,"o":"m 13 0 l 554 760 l 447 760 q 333 737 382 760 q 221 669 283 714 q 131 613 169 632 q 44 594 92 594 l 44 803 q 188 779 108 779 q 326 790 232 779 q 388 797 338 792 q 488 803 439 803 l 786 803 l 247 44 l 371 44 q 517 72 460 46 q 633 143 574 97 q 709 192 678 176 q 781 208 740 208 l 781 0 q 633 22 714 22 q 486 11 586 22 q 430 6 471 10 q 354 0 389 1 l 13 0 m 392 975 q 317 1006 347 975 q 288 1079 288 1036 q 317 1153 288 1124 q 392 1183 347 1183 q 465 1153 435 1183 q 496 1079 496 1124 q 465 1006 496 1036 q 392 975 435 975 z "},"":{"ha":842,"x_min":39,"x_max":1268,"o":"m 969 -462 q 698 -374 797 -462 q 599 -125 599 -286 l 599 107 q 483 12 553 47 q 340 -24 414 -24 q 192 4 261 -24 q 81 85 124 32 q 39 211 39 139 q 76 340 39 283 q 170 436 114 396 q 318 529 226 476 q 485 639 425 593 q 574 747 544 685 q 492 793 551 793 q 411 767 447 793 q 321 688 375 742 q 235 610 271 636 q 157 585 200 585 l 157 789 q 215 782 182 782 q 279 788 243 782 q 350 801 315 794 q 443 819 408 814 q 517 825 478 825 q 719 768 636 825 q 803 578 803 711 l 803 -139 q 849 -359 803 -286 q 975 -432 894 -432 q 1088 -387 1042 -432 q 1133 -262 1133 -342 q 1099 -173 1133 -211 q 1011 -135 1065 -135 q 940 -153 972 -135 l 939 -126 q 1002 -67 963 -87 q 1086 -46 1042 -46 q 1175 -67 1133 -46 q 1242 -130 1217 -89 q 1268 -224 1268 -171 q 1234 -344 1268 -290 q 1133 -431 1200 -399 q 969 -462 1065 -462 m 599 633 q 583 701 599 671 q 515 609 554 649 q 415 519 476 569 q 322 435 356 469 q 266 353 289 401 q 243 243 243 306 q 290 97 243 149 q 408 44 338 44 q 510 73 460 44 q 599 156 561 101 l 599 633 z "},"":{"ha":890,"x_min":58,"x_max":863,"o":"m 493 -24 q 416 -13 453 -24 q 326 17 379 -3 q 249 43 281 35 q 186 51 218 51 q 129 40 154 51 q 76 0 104 28 l 60 0 l 60 871 q 122 1113 58 1007 q 294 1278 185 1219 q 539 1336 404 1336 q 706 1301 633 1336 q 816 1214 778 1267 q 854 1107 854 1161 q 803 1003 854 1044 q 656 963 753 963 q 579 981 611 963 q 506 1035 547 1000 q 460 1070 479 1058 q 422 1082 442 1082 q 383 1069 404 1082 l 374 1069 q 379 1118 371 1092 q 410 1164 388 1144 q 467 1183 432 1183 q 540 1156 517 1183 q 585 1074 564 1128 q 617 1009 601 1031 q 665 988 633 988 q 711 1006 696 988 q 726 1057 726 1025 q 697 1163 726 1104 q 617 1261 668 1221 q 504 1301 565 1301 q 317 1188 369 1301 q 264 871 265 1075 l 264 578 l 268 578 q 395 765 325 704 q 554 826 465 826 q 707 777 636 826 q 820 637 778 728 q 863 426 863 546 q 820 194 863 296 q 694 34 778 92 q 493 -24 611 -24 m 450 28 q 606 130 554 28 q 658 426 658 232 q 616 663 658 585 q 494 742 574 742 q 372 674 432 742 q 264 476 313 606 l 264 93 q 450 28 369 28 z "},"":{"ha":768,"x_min":28,"x_max":908,"o":"m 442 -22 q 228 28 322 -22 q 81 178 135 79 q 28 415 28 276 q 85 654 28 563 q 228 785 143 746 q 403 824 314 824 q 497 802 464 824 q 563 739 529 781 q 619 683 593 701 q 693 665 646 665 q 772 693 736 665 q 829 767 808 721 q 850 867 850 814 q 801 1001 850 949 q 661 1053 751 1053 q 474 949 564 1053 l 468 971 l 492 992 q 565 1068 544 1035 q 644 1168 604 1133 q 735 1203 683 1203 q 863 1145 817 1203 q 908 990 908 1088 q 862 778 908 886 q 738 599 815 669 q 572 529 660 529 q 517 549 535 529 q 493 599 499 569 q 486 675 488 628 q 476 758 485 731 q 436 785 468 785 q 292 710 356 785 q 229 440 229 636 q 273 210 229 300 q 377 78 317 119 q 488 38 438 38 q 617 89 569 38 q 686 244 664 140 l 771 206 q 633 35 721 93 q 442 -22 544 -22 z "},"":{"ha":892,"x_min":25,"x_max":925,"o":"m 925 24 q 873 -12 904 0 q 807 -24 842 -24 q 715 -2 758 -24 q 645 62 672 19 q 618 165 618 104 l 618 217 l 614 217 q 500 36 574 97 q 339 -25 426 -25 q 186 25 258 -25 q 69 169 114 75 q 25 386 25 263 q 76 626 25 526 q 213 776 126 725 q 408 826 300 826 q 617 781 510 826 l 617 907 q 563 1225 614 1113 q 376 1338 511 1338 q 263 1297 314 1338 q 183 1199 213 1257 q 153 1093 153 1140 q 169 1042 153 1061 q 215 1024 185 1024 q 263 1045 247 1024 q 296 1110 279 1067 q 340 1192 317 1164 q 414 1219 364 1219 q 471 1200 449 1219 q 501 1154 493 1181 q 507 1106 510 1128 l 497 1106 q 458 1118 476 1118 q 422 1107 439 1118 q 375 1071 404 1096 q 301 1017 335 1036 q 224 999 268 999 q 76 1040 126 999 q 25 1143 25 1081 q 63 1250 25 1197 q 174 1338 101 1303 q 342 1372 246 1372 q 586 1314 476 1372 q 758 1149 696 1256 q 819 907 821 1043 l 819 101 q 831 50 819 67 q 863 33 843 33 q 918 65 890 33 l 925 24 m 414 93 q 502 122 460 93 q 576 207 544 151 q 618 339 607 263 l 617 738 q 483 772 550 772 q 355 733 413 772 q 263 612 297 694 q 228 406 228 529 q 253 233 228 304 q 322 128 279 163 q 414 93 365 93 z "},"":{"ha":936,"x_min":28,"x_max":910,"o":"m 521 -24 q 292 22 406 -24 q 103 168 179 68 q 28 419 28 268 q 165 725 28 625 q 524 825 301 825 q 693 795 617 825 q 813 714 769 765 q 857 601 857 663 q 803 461 857 515 q 668 383 749 407 q 504 358 588 360 q 387 341 433 358 q 311 282 340 324 l 296 346 q 352 385 314 376 q 478 393 390 393 q 607 444 561 393 q 653 601 653 494 q 606 735 653 688 q 489 782 558 782 q 367 740 426 782 q 270 617 308 699 q 232 419 232 535 q 287 190 232 279 q 426 59 342 100 q 603 18 510 18 q 715 35 663 18 q 797 81 767 51 q 828 147 828 111 q 810 199 828 181 q 768 217 792 217 q 725 200 743 217 q 707 154 707 183 q 717 119 707 138 l 708 117 q 676 143 701 128 q 637 178 650 164 q 624 217 624 193 q 660 294 624 264 q 757 325 697 325 q 869 289 829 325 q 910 199 910 253 q 868 94 910 144 q 739 10 826 43 q 521 -24 651 -24 z "},"":{"ha":894,"x_min":-267,"x_max":928,"o":"m -3 -529 q -147 -497 -87 -529 q -237 -410 -207 -464 q -267 -294 -267 -357 q -233 -169 -267 -229 q -131 -73 -199 -110 q 33 -36 -62 -36 q 160 -58 104 -36 q 256 -112 217 -81 q 350 -196 296 -143 q 463 -290 417 -260 q 571 -319 508 -319 q 685 -272 643 -319 q 726 -158 726 -224 q 705 -78 726 -115 q 642 -25 683 -42 q 567 -8 604 -11 q 472 -4 529 -4 l 425 -4 q 290 25 342 -4 q 238 113 238 54 q 244 140 238 126 q 263 161 251 153 q 89 277 150 199 q 28 469 28 356 q 78 661 28 582 q 218 781 129 740 q 424 821 307 821 q 572 800 497 821 q 656 833 618 799 q 719 917 694 867 q 751 1013 743 968 l 885 913 q 789 822 853 861 q 638 785 725 783 q 808 667 747 747 q 868 472 868 586 q 760 215 868 301 q 453 129 651 129 q 379 144 417 129 q 360 117 360 136 q 388 65 360 85 q 460 44 417 44 q 572 58 497 44 q 717 76 650 76 q 869 22 810 76 q 928 -119 928 -32 q 892 -246 928 -187 q 791 -340 857 -304 q 638 -375 725 -375 q 508 -359 567 -375 q 407 -320 450 -343 q 304 -260 364 -297 q 185 -193 232 -214 q 81 -172 139 -172 q -72 -222 -21 -172 q -124 -342 -124 -271 q -85 -456 -124 -406 q 11 -506 -46 -506 q 69 -483 47 -506 q 90 -431 90 -461 q 65 -362 90 -393 q -11 -322 39 -331 l -10 -312 q 35 -303 7 -314 q 97 -289 71 -289 q 167 -317 136 -289 q 199 -394 199 -346 q 144 -490 199 -451 q -3 -529 90 -529 m 496 165 q 631 229 586 165 q 675 390 675 293 q 664 488 675 436 q 608 635 647 568 q 514 741 569 701 q 396 781 458 781 q 266 717 308 781 q 224 557 224 653 q 236 450 224 503 q 332 247 260 329 q 496 165 404 165 z "},"":{"ha":929,"x_min":60,"x_max":1714,"o":"m 1513 -117 q 1602 -133 1556 -117 q 1681 -186 1649 -149 q 1714 -282 1714 -224 q 1673 -394 1714 -336 q 1543 -493 1632 -453 q 1318 -533 1454 -533 q 1044 -474 1171 -533 q 833 -296 918 -415 q 722 0 747 -176 l 640 581 q 599 687 631 653 q 521 721 567 721 q 390 672 461 721 q 264 551 319 624 l 264 0 l 60 0 l 60 975 l 264 975 l 264 603 q 444 758 339 696 q 642 821 550 821 q 770 772 718 821 q 838 619 822 724 l 926 0 q 1063 -374 958 -243 q 1333 -504 1168 -504 q 1467 -469 1413 -504 q 1547 -379 1521 -433 q 1572 -271 1572 -325 q 1549 -183 1572 -218 q 1485 -147 1526 -147 q 1424 -171 1444 -147 q 1379 -244 1403 -194 q 1345 -306 1360 -283 q 1304 -345 1331 -329 q 1238 -361 1278 -361 q 1148 -319 1181 -361 q 1115 -224 1115 -276 l 1126 -222 q 1211 -250 1172 -250 q 1268 -235 1242 -250 q 1331 -193 1294 -221 q 1419 -136 1379 -156 q 1513 -117 1458 -117 z "},"":{"ha":325,"x_min":60,"x_max":733,"o":"m 167 939 q 91 969 122 939 q 60 1044 60 1000 q 91 1119 60 1089 q 167 1150 122 1150 q 242 1119 211 1150 q 272 1044 272 1089 q 242 969 272 1000 q 167 939 211 939 m 551 -46 q 640 -67 599 -46 q 708 -130 682 -89 q 733 -224 733 -171 q 699 -344 733 -290 q 598 -431 665 -399 q 435 -462 531 -462 q 163 -374 263 -462 q 64 -125 64 -286 l 64 803 l 268 803 l 268 -139 q 314 -359 268 -286 q 440 -432 360 -432 q 553 -387 507 -432 q 599 -262 599 -342 q 565 -173 599 -211 q 476 -135 531 -135 q 406 -153 438 -135 l 404 -126 q 467 -67 428 -87 q 551 -46 507 -46 z "},"":{"ha":328,"x_min":-129,"x_max":292,"o":"m 182 935 q 104 967 136 935 q 72 1044 72 999 q 104 1122 72 1090 q 182 1154 136 1154 q 260 1122 228 1154 q 292 1044 292 1090 q 260 967 292 999 q 182 935 228 935 m -129 -350 q 23 -242 -36 -317 q 82 -7 82 -168 l 82 803 l 286 803 l 286 24 q 219 -176 286 -90 q 56 -310 153 -262 q -129 -367 -42 -358 l -129 -350 z "},"":{"ha":888,"x_min":39,"x_max":896,"o":"m 574 539 l 896 0 l 664 0 l 386 494 l 288 419 l 288 0 l 83 0 l 83 975 l 288 975 l 288 458 l 406 549 q 617 806 543 653 q 692 1108 692 958 q 656 1297 692 1213 q 549 1429 619 1381 q 379 1478 478 1478 q 236 1420 285 1478 q 188 1283 188 1363 q 222 1163 188 1214 q 313 1113 257 1113 q 358 1140 346 1113 q 381 1226 371 1168 q 396 1303 388 1274 q 425 1352 404 1332 q 485 1372 446 1372 q 558 1340 528 1372 q 590 1254 588 1307 l 576 1250 q 560 1251 571 1251 q 501 1232 524 1251 q 450 1172 478 1213 q 385 1101 415 1125 q 301 1076 354 1076 q 159 1105 218 1076 q 69 1180 100 1133 q 39 1281 39 1226 q 77 1395 39 1340 q 192 1484 115 1450 q 379 1518 269 1518 q 613 1465 507 1518 q 780 1318 718 1411 q 842 1111 842 1225 q 761 848 842 983 q 513 588 681 713 l 449 539 l 574 539 z "},"":{"ha":303,"x_min":58,"x_max":854,"o":"m 539 1440 q 706 1406 633 1440 q 816 1318 778 1371 q 854 1211 854 1265 q 803 1108 854 1149 q 656 1067 753 1067 q 579 1085 611 1067 q 506 1139 547 1104 q 460 1174 479 1163 q 422 1186 442 1186 q 383 1174 404 1186 l 374 1174 q 379 1222 371 1196 q 410 1268 388 1249 q 467 1288 432 1288 q 540 1260 517 1288 q 585 1178 564 1232 q 617 1113 601 1135 q 665 1092 633 1092 q 711 1110 696 1092 q 726 1161 726 1129 q 697 1267 726 1208 q 617 1365 668 1325 q 504 1406 565 1406 q 317 1292 369 1406 q 264 975 265 1179 l 264 0 l 60 0 l 60 975 q 122 1217 58 1111 q 294 1382 185 1324 q 539 1440 404 1440 z "},"":{"ha":1467,"x_min":60,"x_max":2019,"o":"m 1821 -92 q 1969 -133 1918 -92 q 2019 -236 2019 -174 q 1981 -343 2019 -290 q 1871 -431 1943 -396 q 1704 -465 1799 -465 q 1460 -407 1569 -465 q 1287 -242 1350 -349 q 1225 0 1224 -136 l 1224 0 l 1224 621 q 1197 719 1224 688 q 1125 750 1171 750 q 983 685 1061 750 q 853 515 906 619 l 853 0 l 649 0 l 649 601 q 622 714 649 678 q 549 750 594 750 q 403 678 483 750 q 264 493 324 607 l 264 0 l 60 0 l 60 803 l 264 803 l 264 561 q 442 758 338 689 q 644 828 546 828 q 796 766 739 828 q 853 585 853 704 q 1024 765 924 701 q 1221 828 1125 828 q 1370 770 1313 828 q 1428 606 1428 713 l 1428 0 l 1429 0 q 1483 -317 1431 -204 q 1669 -431 1535 -431 q 1782 -390 1731 -431 q 1863 -292 1833 -350 q 1892 -186 1892 -233 q 1876 -135 1892 -154 q 1831 -117 1861 -117 q 1783 -138 1799 -117 q 1750 -203 1767 -160 q 1706 -285 1729 -257 q 1632 -312 1682 -312 q 1574 -293 1596 -312 q 1544 -247 1551 -274 q 1539 -199 1536 -221 l 1549 -199 q 1586 -211 1569 -211 q 1624 -199 1606 -211 q 1671 -164 1643 -187 q 1744 -110 1713 -129 q 1821 -92 1776 -92 z "},"":{"ha":960,"x_min":60,"x_max":1706,"o":"m 1503 -117 q 1593 -133 1546 -117 q 1673 -186 1640 -149 q 1706 -282 1706 -224 q 1665 -394 1706 -336 q 1534 -493 1624 -453 q 1308 -533 1444 -533 q 1038 -478 1149 -533 q 847 -281 928 -424 q 717 125 767 -137 l 710 161 q 640 501 667 393 q 576 671 614 610 q 478 732 538 732 q 378 695 435 732 q 264 583 322 658 l 264 0 l 60 0 l 60 803 l 264 803 l 264 640 q 424 775 333 726 q 600 824 514 824 q 729 786 679 824 q 812 666 779 749 q 868 439 844 583 l 881 372 q 993 -155 949 11 q 1113 -412 1038 -321 q 1324 -504 1189 -504 q 1457 -469 1403 -504 q 1538 -379 1511 -433 q 1564 -271 1564 -325 q 1540 -183 1564 -218 q 1475 -147 1517 -147 q 1414 -171 1435 -147 q 1369 -244 1393 -194 q 1314 -331 1343 -301 q 1228 -361 1285 -361 q 1138 -319 1171 -361 q 1106 -224 1106 -276 l 1117 -222 q 1203 -250 1163 -250 q 1258 -236 1233 -250 q 1321 -193 1283 -222 q 1411 -136 1372 -156 q 1503 -117 1450 -117 z "},"":{"ha":890,"x_min":-567,"x_max":863,"o":"m 563 822 q 712 778 643 822 q 822 651 781 733 q 863 456 863 568 q 806 205 863 314 q 659 38 750 96 q 465 -21 568 -21 q 264 46 356 -21 l 264 -181 q 199 -393 264 -303 q 26 -531 135 -483 q -212 -578 -83 -578 q -483 -512 -400 -578 q -567 -346 -567 -446 q -520 -227 -567 -276 q -402 -152 -474 -178 q -254 -126 -331 -126 q -104 -160 -164 -126 q -44 -257 -44 -194 q -67 -324 -44 -299 q -132 -376 -90 -350 q -173 -407 -158 -394 q -196 -435 -187 -419 l -210 -435 q -190 -297 -190 -353 q -296 -160 -190 -160 q -376 -201 -347 -160 q -406 -304 -406 -242 q -378 -419 -406 -365 q -298 -507 -350 -474 q -176 -540 -246 -540 q -47 -487 -100 -540 q 33 -362 7 -435 q 60 -235 60 -290 l 60 803 l 264 803 l 264 644 q 402 778 324 733 q 563 822 481 822 m 417 56 q 539 97 483 56 q 627 217 594 139 q 660 399 660 294 q 608 640 660 557 q 478 724 557 724 q 369 685 425 724 q 264 572 314 647 l 264 110 q 417 56 338 56 z "},"":{"ha":907,"x_min":32,"x_max":1368,"o":"m 1117 199 q 1253 172 1196 199 q 1339 102 1310 146 q 1368 8 1368 58 q 1327 -108 1368 -53 q 1204 -199 1286 -164 q 1006 -235 1122 -235 l 639 -235 l 639 119 q 499 15 576 54 q 346 -24 422 -24 q 185 31 257 -24 q 73 183 114 86 q 32 404 32 281 q 79 644 32 550 q 202 782 126 739 q 368 825 278 825 q 447 814 407 825 q 546 781 486 803 q 640 749 603 760 q 713 739 678 739 q 838 803 793 739 l 844 803 l 843 -193 l 918 -193 q 1078 -160 1014 -193 q 1172 -76 1142 -128 q 1201 31 1201 -25 q 1169 132 1201 90 q 1086 174 1138 174 q 1039 153 1057 174 q 1021 104 1021 132 q 1049 35 1021 67 q 1133 -8 1078 3 l 1129 -18 q 1111 -15 1115 -15 q 1086 -19 1099 -15 q 1069 -25 1074 -24 q 1015 -37 1039 -37 q 949 -10 978 -37 q 919 65 919 17 q 973 160 919 121 q 1117 199 1026 199 m 639 703 q 561 728 611 708 q 506 747 529 740 q 457 754 483 754 q 299 674 363 754 q 236 404 236 593 q 292 144 236 232 q 436 56 349 56 q 540 85 486 56 q 639 168 593 114 l 639 703 z "},"":{"ha":375,"x_min":60,"x_max":1372,"o":"m 60 650 q 172 756 118 693 q 307 926 226 819 q 506 1167 421 1075 q 710 1330 592 1260 q 978 1410 829 1400 q 1029 1413 1014 1413 q 1213 1377 1135 1413 q 1331 1283 1290 1342 q 1372 1160 1372 1225 q 1324 1025 1372 1089 q 1185 921 1276 961 q 968 881 1093 881 q 830 905 901 881 q 710 974 758 929 q 661 1081 661 1019 q 694 1167 661 1136 q 789 1229 726 1197 q 830 1252 810 1240 q 860 1276 850 1264 l 868 1269 q 807 1094 807 1190 q 853 962 807 1015 q 978 908 900 908 q 1114 971 1060 908 q 1168 1138 1168 1033 q 1108 1299 1168 1242 q 939 1350 1049 1356 q 638 1215 794 1344 q 376 890 482 1085 q 264 511 271 696 l 264 0 l 60 0 l 60 650 z "},"":{"ha":772,"x_min":29,"x_max":1032,"o":"m 426 -22 q 321 -3 388 -21 q 234 15 269 8 q 160 21 199 21 q 29 0 93 21 l 29 206 q 133 181 85 206 q 249 108 181 157 q 362 37 314 61 q 464 13 410 13 q 568 50 525 13 q 611 143 611 88 q 578 215 611 183 q 497 269 546 246 q 365 326 449 293 q 193 403 260 368 q 80 490 126 438 q 33 613 33 542 q 92 750 33 701 q 231 814 150 799 q 392 825 313 829 q 504 808 439 824 q 590 796 560 796 q 797 849 719 796 q 875 1010 875 901 q 846 1117 875 1069 q 767 1192 817 1165 q 654 1219 717 1219 q 535 1183 581 1219 q 490 1086 490 1147 q 526 1000 490 1039 q 633 943 563 961 l 629 933 q 594 938 610 938 q 561 933 578 938 q 540 928 544 929 q 474 915 506 915 q 381 953 417 915 q 346 1044 346 990 q 389 1145 346 1100 q 509 1216 432 1190 q 685 1242 586 1242 q 878 1205 800 1242 q 994 1109 957 1168 q 1032 983 1032 1050 q 998 860 1032 919 q 896 763 964 800 q 731 725 828 725 q 628 733 681 725 q 504 758 575 742 q 399 780 442 772 q 318 788 356 788 q 222 765 263 788 q 181 694 181 743 q 211 629 181 658 q 287 578 242 600 q 415 519 332 556 q 591 438 524 474 q 707 346 658 401 q 756 217 756 290 q 666 29 756 90 q 426 -22 576 -32 z "},"":{"ha":406,"x_min":-431,"x_max":864,"o":"m 511 -506 q 301 -457 400 -506 q 142 -310 203 -408 q 82 -71 82 -211 l 81 668 q 60 744 81 718 q -3 776 39 769 l -3 803 q 136 837 79 804 q 220 919 193 869 q 247 1025 247 969 q 192 1200 247 1128 q 49 1308 136 1272 q -132 1344 -39 1344 q -320 1295 -243 1344 q -397 1158 -397 1246 q -333 1028 -397 1075 q -169 982 -269 982 q 43 1040 -60 982 l 50 1025 q 11 998 28 1013 q -32 956 -6 983 q -105 892 -72 913 q -194 871 -137 871 q -311 903 -257 871 q -398 999 -365 935 q -431 1158 -431 1064 q -383 1358 -431 1279 q -261 1474 -336 1438 q -101 1510 -186 1510 q 85 1461 -3 1510 q 228 1312 174 1413 q 283 1064 283 1211 l 285 803 l 461 803 l 461 761 l 285 761 l 285 -153 q 328 -331 285 -260 q 437 -436 371 -403 q 572 -469 503 -469 q 706 -419 653 -469 q 760 -278 760 -368 q 737 -200 760 -228 q 681 -172 714 -172 q 611 -210 642 -172 q 575 -315 581 -247 l 560 -312 q 553 -240 563 -281 q 546 -193 546 -212 q 563 -137 546 -165 q 615 -90 581 -108 q 700 -72 650 -72 q 817 -120 771 -72 q 864 -240 864 -168 q 822 -371 864 -310 q 699 -469 779 -432 q 511 -506 619 -506 z "}}}
